<svg viewBox="0 0 256 256" xmlns="http://www.w3.org/2000/svg"><path d="m0 0h256v256h-256z" fill="none"/><rect fill="#fafafa" height="117.76" rx="4.85" width="175.05" x="40.47" y="69.12"/><path d="m200.08 190.06h-144.16a18.65 18.65 0 0 1 -18.63-18.63v-86.86a18.65 18.65 0 0 1 18.63-18.63h144.16a18.65 18.65 0 0 1 18.63 18.63v86.86a18.65 18.65 0 0 1 -18.63 18.63zm-144.16-117.76a12.28 12.28 0 0 0 -12.26 12.27v86.86a12.28 12.28 0 0 0 12.26 12.27h144.16a12.28 12.28 0 0 0 12.26-12.27v-86.86a12.28 12.28 0 0 0 -12.26-12.27z"/><path d="m40.47 154.36h175.06a0 0 0 0 1 0 0v18.15a14.37 14.37 0 0 1 -14.37 14.37h-146.31a14.37 14.37 0 0 1 -14.37-14.37v-18.15a0 0 0 0 1 0 0z"/><circle cx="197.23" cy="168.58" fill="#388e3c" r="35.01"/><path d="m197.23 206.77a38.19 38.19 0 1 1 38.19-38.19 38.24 38.24 0 0 1 -38.19 38.19zm0-70a31.83 31.83 0 1 0 31.82 31.83 31.87 31.87 0 0 0 -31.82-31.85z"/><ellipse cx="192.85" cy="163.91" fill="#388e3c" rx="9.95" ry="9.55"/><g fill="#fff"><path d="m192.85 176.64a12.74 12.74 0 1 1 13.15-12.73 12.95 12.95 0 0 1 -13.15 12.73zm0-19.1a6.38 6.38 0 1 0 6.76 6.37 6.58 6.58 0 0 0 -6.76-6.37z"/><path d="m199.89 171.64 9.27 11.36z"/><path d="m201.34 169.99h6.37v14.67h-6.37z" transform="matrix(.77483417 -.63216455 .63216455 .77483417 -66.04 169.21)"/></g></svg>