<svg viewBox="0 0 117.6 100" xmlns="http://www.w3.org/2000/svg"><path d="m16 75 43.3 25 43.3-25-43.3-25z" fill="#ef5350"/><path d="m43.3 19 16-19-43.3 25-16 19z" fill="#e57373"/><path d="m59.3 0v50l-43.3 25v-50z" fill="#ef9a9a"/><path d="m59.3 0v50l43.3 25v-50z" fill="#ef5350"/><rect fill="#eee" height="35.6" rx="17.8" width="64.02" x="27.29" y="8.4"/><g fill="#e57373"><circle cx="45.77" cy="26.2" r="3.04"/><circle cx="59.3" cy="26.2" r="3.04"/><circle cx="72.83" cy="26.2" r="3.04"/></g><path d="m16 25v50l43.3 25v-50z" fill="#ef5350"/><path d="m102.6 25v50l-43.3 25v-50z" fill="#ef9a9a"/><path d="m102.6 25v26l-43.3 25v-26z" fill="#e57373"/><path d="m102.6 25 15 25-43.3 25-15-25z" fill="#ffcdd2"/></svg>