<svg height="30" viewBox="0 0 30 30" width="30" xmlns="http://www.w3.org/2000/svg"><g fill="#9ba0a6" transform="translate(-797.753 -286.913)"><path d="m812.753 306.413a1 1 0 0 1 -1-1v-3a1 1 0 0 1 2 0v3a1 1 0 0 1 -1 1z"/><path d="m818.753 302.6v-2.182a5.992 5.992 0 0 0 -3-5.191v-.809a3 3 0 0 0 -6 0v.809a5.992 5.992 0 0 0 -3 5.191v2.182a3 3 0 0 0 -2 2.817v4a3 3 0 0 0 3 3h10a3 3 0 0 0 3-3v-4a2.993 2.993 0 0 0 -2-2.817zm-7-8.183a1 1 0 0 1 2 0v.09a5.6 5.6 0 0 0 -2 0zm7 15a1 1 0 0 1 -1 1h-10a1 1 0 0 1 -1-1v-4a.988.988 0 0 1 .671-.933l1.329-.473v-3.593a4.083 4.083 0 0 1 .085-.817c.008-.036.024-.069.033-.105a3.964 3.964 0 0 1 .212-.66c0-.01.01-.018.015-.028a4 4 0 0 1 3.031-2.327 3.121 3.121 0 0 1 1.248 0 4 4 0 0 1 3.032 2.327c0 .01.01.018.015.028a3.844 3.844 0 0 1 .211.66c.009.036.025.069.033.105a3.945 3.945 0 0 1 .085.817v3.594l1.329.473a1 1 0 0 1 .255.138.981.981 0 0 1 .115.108.864.864 0 0 1 .1.1.836.836 0 0 1 .079.14.769.769 0 0 1 .067.131.933.933 0 0 1 .055.313z"/></g><path d="m0 0h30v30h-30z" fill="none"/></svg>