<svg enable-background="new 0 0 24 24" viewBox="0 0 24 24" xmlns="http://www.w3.org/2000/svg"><path d="m0 0h24v24h-24z" fill="none"/><path d="m18.3 12c.4-.1.7-.5.7-1v-4c0-.6-.4-1-1-1h-3c0-1.7-1.3-3-3-3s-3 1.3-3 3h-3c-.6 0-1 .4-1 1v4c0 .5.3.9.7 1-1.7 1.1-2.7 3-2.7 5 0 1.7 1.3 3 3 3h.1c0 .6.4 1 1 1h9.9c.6 0 1-.4 1-1 1.7 0 3-1.3 3-3 0-2-1-3.9-2.7-5zm-12.3 6c-.6 0-1-.4-1-1 0-1 .4-2 1.1-2.7zm6-13c.6 0 1 .4 1 1h-2c0-.6.4-1 1-1m6 9.3c.7.7 1 1.7 1 2.7 0 .6-.4 1-1 1zm-9-.3c-.6 0-1-.4-1-1v-2c0-.6.4-1 1-1s1 .4 1 1v2c0 .6-.4 1-1 1zm6 0c-.6 0-1-.4-1-1v-2c0-.6.4-1 1-1s1 .4 1 1v2c0 .6-.4 1-1 1z"/></svg>