<svg viewBox="0 0 24 24" xmlns="http://www.w3.org/2000/svg"><path d="m15.36 16.62a1.24 1.24 0 0 1 1.25 1.24.9.9 0 0 1 -.06.37c-.28.83-1.43 1.19-2.17 1.41a9.08 9.08 0 0 1 -2.38.36 8 8 0 0 1 -8-8.23 8.1 8.1 0 0 1 7.77-7.77 8 8 0 0 1 8.23 8v.07a1.76 1.76 0 0 1 -1.78 1.71h-2.81a1.42 1.42 0 0 0 -1.41 1.42 1.41 1.41 0 0 0 1.37 1.41zm-7.72-6.84a1.33 1.33 0 1 0 1.36 1.33 1.33 1.33 0 0 0 -1.36-1.33zm3.07-3.37a1.34 1.34 0 1 0 1.29 1.34 1.34 1.34 0 0 0 -1.29-1.34zm4.43 1.11a1.33 1.33 0 1 0 1.34 1.33 1.33 1.33 0 0 0 -1.34-1.33z"/><path d="m0 0h24v24h-24z" fill="none"/></svg>