<svg height="30" viewBox="0 0 30 30" width="30" xmlns="http://www.w3.org/2000/svg"><path d="m0 0h30v30h-30z" fill="none"/><g fill="#9ba0a6" transform="translate(-910.517 -253.82)"><path d="m920.517 275.82a2 2 0 0 1 -2-2v-10a2 2 0 0 1 2-2h7a1 1 0 0 0 1-1 1 1 0 0 0 -1-1h-7a4 4 0 0 0 -4 4v10a4 4 0 0 0 4 4h7a1 1 0 0 0 1-1 1 1 0 0 0 -1-1z"/><path d="m934.766 268.184-4-4.526a1 1 0 0 0 -1.5 1.324l2.507 2.838h-8.258a1 1 0 0 0 0 2h8.285l-2.534 2.833a1 1 0 1 0 1.491 1.334l4-4.474a1 1 0 0 0 .009-1.329z"/></g></svg>