<svg height="30" viewBox="0 0 30 30" width="30" xmlns="http://www.w3.org/2000/svg"><g transform="translate(-809.411 -416.001)"><path d="m809.411 416.001h30v30h-30z" fill="none"/><path d="m824.589 439a7.9 7.9 0 0 0 4.862-1.653 8.064 8.064 0 0 0 2.085-2.4 8.1 8.1 0 0 1 -.947.054 8.269 8.269 0 0 1 -1.228-.092 8 8 0 0 1 -5.736-11.848 8 8 0 0 0 .964 15.94m0 2a10 10 0 0 1 -10-9.976 10.017 10.017 0 0 1 10-10.024 9.743 9.743 0 0 1 1.145.068 1 1 0 0 1 .614 1.7 5.995 5.995 0 0 0 3.314 10.165 6.416 6.416 0 0 0 .929.07 5.967 5.967 0 0 0 2.269-.447.993.993 0 0 1 1.345 1.161 9.991 9.991 0 0 1 -9.614 7.28z" fill="#9ba0a6"/></g></svg>