<svg viewBox="0 0 24 24" xmlns="http://www.w3.org/2000/svg"><path d="m14.69 18.49-1.54 1.51a1.62 1.62 0 0 1 -2.3 0l-1.54-1.51h-2.17a1.63 1.63 0 0 1 -1.63-1.63v-2.17l-1.51-1.54a1.62 1.62 0 0 1 0-2.3l1.51-1.54v-2.17a1.63 1.63 0 0 1 1.63-1.63h2.17l1.54-1.51a1.62 1.62 0 0 1 2.3 0l1.54 1.53h2.17a1.63 1.63 0 0 1 1.63 1.63v2.15l1.51 1.54a1.62 1.62 0 0 1 0 2.3l-1.53 1.54v2.17a1.63 1.63 0 0 1 -1.63 1.63zm-3.27-10.65a4.13 4.13 0 0 0 -3.42 4.39 4.05 4.05 0 0 0 2.3 3.38 4.14 4.14 0 0 0 5.33-1.55.29.29 0 0 0 -.35-.41 3.34 3.34 0 0 1 -2.85-.17 3.22 3.22 0 0 1 -1.63-2.48 3.33 3.33 0 0 1 .88-2.71.29.29 0 0 0 -.26-.45z"/><path d="m0 0h24v24h-24z" fill="none"/></svg>