<svg height="30" viewBox="0 0 30 30" width="30" xmlns="http://www.w3.org/2000/svg"><path d="m0 0h30v30h-30z" fill="none"/><g fill="#9ba0a6" transform="translate(-682.786 -236.494)"><path d="m693.787 250.494h8a1 1 0 0 1 1 1 1 1 0 0 1 -1 1h-8a1 1 0 0 1 -1-1 1 1 0 0 1 1-1z"/><path d="m692.787 258.494a2 2 0 0 1 -2-2v-1a1 1 0 0 0 -1-1 1 1 0 0 0 -1 1v1a4 4 0 0 0 4 4h1a1 1 0 0 0 1-1 1 1 0 0 0 -1-1z"/><path d="m690.787 246.494a2 2 0 0 1 2-2h1a1 1 0 0 0 1-1 1 1 0 0 0 -1-1h-1a4 4 0 0 0 -4 4v1a1 1 0 0 0 1 1 1 1 0 0 0 1-1z"/><path d="m704.787 256.494a2 2 0 0 1 -2 2h-1a1 1 0 0 0 -1 1 1 1 0 0 0 1 1h1a4 4 0 0 0 4-4v-1a1 1 0 0 0 -1-1 1 1 0 0 0 -1 1z"/><path d="m702.787 242.494h-1a1 1 0 0 0 -1 1 1 1 0 0 0 1 1h1a2 2 0 0 1 2 2v1a1 1 0 0 0 1 1 1 1 0 0 0 1-1v-1a4 4 0 0 0 -4-4z"/></g></svg>