<svg viewBox="0 0 24 24" xmlns="http://www.w3.org/2000/svg"><path d="m16 20h-8a4 4 0 0 1 -4-4v-8a4 4 0 0 1 4-4h8a4 4 0 0 1 4 4v8a4 4 0 0 1 -4 4zm-2-13a1 1 0 0 0 1 1 1 1 0 0 1 1 1 1 1 0 0 0 1 1 1 1 0 0 0 1-1 3 3 0 0 0 -3-3 1 1 0 0 0 -1 1zm-8 2a1 1 0 0 0 1 1 1 1 0 0 0 1-1 1 1 0 0 1 1-1 1 1 0 0 0 1-1 1 1 0 0 0 -1-1 3 3 0 0 0 -3 3zm3 9a1 1 0 0 0 1-1 1 1 0 0 0 -1-1 1 1 0 0 1 -1-1 1 1 0 0 0 -1-1 1 1 0 0 0 -1 1 3 3 0 0 0 3 3zm9-3a1 1 0 0 0 -1-1 1 1 0 0 0 -1 1 1 1 0 0 1 -1 1 1 1 0 0 0 -1 1 1 1 0 0 0 1 1 3 3 0 0 0 3-3z"/><path d="m0 0h24v24h-24z" fill="none"/></svg>