<svg height="30" viewBox="0 0 30 30" width="30" xmlns="http://www.w3.org/2000/svg"><g transform="translate(70.158 -291.189)"><path d="m-70.158 291.189h30v30h-30z" fill="none"/><path d="m-46.449 313.486-3.4-3.4a7.955 7.955 0 0 0 1.689-4.9 8.009 8.009 0 0 0 -8-8 8.009 8.009 0 0 0 -8 8 8.008 8.008 0 0 0 8 8 7.948 7.948 0 0 0 4.9-1.688l3.4 3.4a1 1 0 0 0 .707.293 1 1 0 0 0 .707-.293 1 1 0 0 0 -.003-1.412zm-9.707-2.293a6 6 0 0 1 -6-6 6.007 6.007 0 0 1 6-6 6.007 6.007 0 0 1 6 6 6.007 6.007 0 0 1 -6 6z" fill="#9ba0a6"/></g></svg>