<svg height="30" viewBox="0 0 30 30" width="30" xmlns="http://www.w3.org/2000/svg"><g transform="translate(-685.072 -259.831)"><path d="m685.072 259.831h30v30h-30z" fill="none"/><path d="m702.289 284.831h-4.436a6.008 6.008 0 0 1 -5.213-3.032l-2.279-4a6.036 6.036 0 0 1 0-5.938l2.279-4a6.012 6.012 0 0 1 5.213-3.03h4.436a6.016 6.016 0 0 1 5.215 3.03l2.277 4a6.016 6.016 0 0 1 0 5.938l-2.278 4a6.009 6.009 0 0 1 -5.214 3.032zm-4.436-18a4.011 4.011 0 0 0 -3.475 2.02l-2.278 4a4.012 4.012 0 0 0 0 3.958l2.278 4a4.007 4.007 0 0 0 3.475 2.021h4.436a4 4 0 0 0 3.476-2.021l2.278-4a4.006 4.006 0 0 0 0-3.957l-2.277-4a4.011 4.011 0 0 0 -3.476-2.02zm2.218 12a4 4 0 1 1 4-4 4 4 0 0 1 -4 4zm0-6a2 2 0 1 0 2 2 2 2 0 0 0 -2-2z" fill="#9ba0a6"/></g></svg>