<svg viewBox="0 0 256 256" xmlns="http://www.w3.org/2000/svg"><ellipse cx="128" cy="168.37" fill="#0d47a1" rx="84.11" ry="35.06"/><path d="m128 206.61c-48.95 0-87.3-16.79-87.3-38.24s38.35-38.24 87.3-38.24 87.29 16.8 87.29 38.24-38.29 38.24-87.29 38.24zm0-70.11c-43.87 0-80.93 14.59-80.93 31.87s37.06 31.88 80.93 31.88 80.93-14.6 80.93-31.88-37.06-31.87-80.93-31.87z"/><path d="m99.45 67v92.3a2 2 0 0 0 1.17 1.8l27 12.15a2 2 0 0 0 1.62 0l27-12.15a2 2 0 0 0 1.17-1.8v-92.3a2 2 0 0 0 -2.79-1.8l-25.41 11.42a1.91 1.91 0 0 1 -1.62 0l-25.35-11.41a2 2 0 0 0 -2.79 1.79z" fill="#1976d2"/><path d="m128.4 176.61a5.06 5.06 0 0 1 -2.12-.46l-26.97-12.15a5.19 5.19 0 0 1 -3-4.71v-92.29a5.16 5.16 0 0 1 7.28-4.7l24.81 11.2 24.85-11.19a5.16 5.16 0 0 1 7.28 4.7v92.3a5.16 5.16 0 0 1 -3 4.7l-27 12.15a5.21 5.21 0 0 1 -2.13.45zm-25.76-18.08 25.76 11.6 25.76-11.6v-89.65l-23.64 10.65a5.18 5.18 0 0 1 -4.24 0l-23.64-10.65z"/><path d="m100 65.32 28.27-12.73a.3.3 0 0 1 .23 0l28.26 12.73a.28.28 0 0 1 0 .51l-28.24 12.72a.24.24 0 0 1 -.23 0l-28.29-12.72a.28.28 0 0 1 0-.51z" fill="#0d47a1"/><path d="m128.49 82.06-1.55-.62-30.1-13.55-.17-2.32a3.47 3.47 0 0 1 2-3.15l29.54-13.3 1.51.55 30.28 13.59.17 2.31a3.48 3.48 0 0 1 -2 3.16zm-21.28-16.49 21.19 9.55 21.19-9.55-21.19-9.57z"/><path d="m128.4 152.33v20.09a2 2 0 0 1 -1.16 1.8l-27 12.14a1.94 1.94 0 0 1 -1.63 0l-27-12.14a2 2 0 0 1 -1.16-1.8v-50.67a2 2 0 0 1 2.78-1.8l25.35 11.41a2 2 0 0 0 1.63 0l25.41-11.36a2 2 0 0 1 2.78 1.8v30.58z" fill="#1976d2"/><path d="m99.46 189.72a5.26 5.26 0 0 1 -2.13-.45l-27-12.15a5.14 5.14 0 0 1 -3-4.7v-50.67a5.16 5.16 0 0 1 7.27-4.7l24.85 11.18 24.86-11.18a5.16 5.16 0 0 1 7.27 4.7v50.67a5.16 5.16 0 0 1 -3.05 4.71l-27 12.14a5.16 5.16 0 0 1 -2.07.45zm-25.77-18.08 25.76 11.6 25.77-11.6v-48l-23.65 10.64a5.14 5.14 0 0 1 -4.24 0l-23.64-10.66z"/><path d="m71.07 120.06 28.27-12.73a.31.31 0 0 1 .23 0l28.27 12.73a.28.28 0 0 1 0 .5l-28.27 12.73a.31.31 0 0 1 -.23 0l-28.27-12.73a.28.28 0 0 1 0-.5z" fill="#0d47a1"/><path d="m99.53 136.8-1.53-.64-30.11-13.54-.16-2.31a3.45 3.45 0 0 1 2-3.15l29.54-13.3 1.51.55 30.22 13.59.16 2.31a3.46 3.46 0 0 1 -2 3.15zm-21.27-16.49 21.2 9.54 21.19-9.54-21.2-9.54z"/><path d="m186.29 152.33v20.09a2 2 0 0 1 -1.16 1.8l-27 12.14a1.91 1.91 0 0 1 -1.62 0l-27-12.14a2 2 0 0 1 -1.16-1.8v-70a2 2 0 0 1 2.79-1.8l25.4 11.38a1.91 1.91 0 0 0 1.62 0l25.35-11.41a2 2 0 0 1 2.78 1.8v49.93z" fill="#1976d2"/><path d="m157.35 189.72a5.21 5.21 0 0 1 -2.12-.45l-27-12.15a5.14 5.14 0 0 1 -3-4.7v-70a5.15 5.15 0 0 1 7.27-4.7l24.86 11.19 24.84-11.21a5.15 5.15 0 0 1 7.27 4.7v70a5.16 5.16 0 0 1 -3 4.71l-27 12.14a5.16 5.16 0 0 1 -2.12.47zm-25.77-18.08 25.77 11.6 25.76-11.6v-67.37l-23.65 10.65a5.17 5.17 0 0 1 -4.22 0l-23.66-10.65z"/><path d="m129 100.71 28.23-12.71a.31.31 0 0 1 .23 0l28.27 12.73a.28.28 0 0 1 0 .51l-28.27 12.72a.24.24 0 0 1 -.23 0l-28.23-12.74a.28.28 0 0 1 0-.51z" fill="#0d47a1"/><path d="m157.5 117.42-1.51-.55-30.21-13.59-.16-2.32a3.48 3.48 0 0 1 2-3.15l29.61-13.34 1.56.64 30.08 13.54.17 2.31a3.47 3.47 0 0 1 -2 3.16zm-21.35-16.42 21.2 9.55 21.19-9.55-21.2-9.54z"/><path d="m0 0h256v256h-256z" fill="none"/></svg>