<svg viewBox="0 0 24 24" xmlns="http://www.w3.org/2000/svg"><rect fill="#ef9a9a" height="16" rx="2" width="16" x="4" y="4"/><path d="m17.82 11a3.22 3.22 0 0 0 .13-.47 3 3 0 0 0 .05-.53 2.06 2.06 0 0 0 0-.26c0-.11 0-.21 0-.31l-.06-.19c0-.13-.07-.25-.12-.37v-.07a3 3 0 0 0 -2.82-1.8h-.17-.2a2.13 2.13 0 0 0 -.25 0 3.61 3.61 0 0 0 -1.38.68v-3.68h-2v3.68a3.63 3.63 0 0 0 -1.41-.62l-.29-.06h-.17-.13a3 3 0 0 0 -3 2.87s0 .05 0 .13a2.48 2.48 0 0 0 .06.54 2.24 2.24 0 0 0 .1.37s0 .06 0 .09h-2.16v2h5.14l-2.77 2.22 1.25 1.56 3.38-2.7v5.92h2v-5.92l3.37 2.7 1.25-1.56-2.77-2.22h5.15v-2zm-8.82 0a1 1 0 0 1 -1-1 1 1 0 0 1 1-1h.19c1 .21 1.61 1.49 1.79 2zm6 0h-2c.19-.49.74-1.77 1.79-2a1.25 1.25 0 0 1 .21 0 1 1 0 0 1 1 1 1 1 0 0 1 -1 1z" fill="#ff5252"/><path d="m0 0h24v24h-24z" fill="none"/></svg>