<svg enable-background="new 0 0 24 24" viewBox="0 0 24 24" xmlns="http://www.w3.org/2000/svg"><path d="m4 12h16v6c0 1.1-.9 2-2 2h-12c-1.1 0-2-.9-2-2z" fill="#ef9a9a"/><path d="m20 8h-3c.6 0 1-.4 1-1v-1c0-1.1-.9-2-2-2-1.5 0-2.8.8-3.5 2.1-.3-.2-.7-.2-1 0-.7-1.3-2-2.1-3.5-2.1-1.1 0-2 .9-2 2v1c0 .6.4 1 1 1h-3c-.6 0-1 .4-1 1v2c0 .6.4 1 1 1h7v8h2v-8h7c.6 0 1-.4 1-1v-2c0-.6-.4-1-1-1zm-12 0v-1c.3-.1.7-.1 1 0 .8.1 1.5.5 2 1zm5 0c.5-.5 1.2-.9 2-1 .3-.1.7-.1 1 0v1z" fill="#ff5252"/><path d="m0 0h24v24h-24z" fill="none"/></svg>