<svg viewBox="0 0 24 24" xmlns="http://www.w3.org/2000/svg"><g fill="#bdbdbd"><path d="m4.68 10.62h3a0 0 0 0 1 0 0v5a0 0 0 0 1 0 0h-3a1 1 0 0 1 -1-1v-3a1 1 0 0 1 1-1z" transform="matrix(.97 -.26 .26 .97 -3.2 1.92)"/><rect height="11" rx="1" transform="matrix(.96592583 -.25881905 .25881905 .96592583 -1.95 4.93)" width="3" x="16.26" y="4.39"/><path d="m9.08 14.22h4a0 0 0 0 1 0 0v6.16a1 1 0 0 1 -1 1h-2a1 1 0 0 1 -1-1v-6.16a0 0 0 0 1 0 0z" transform="matrix(.96592583 -.25881905 .25881905 .96592583 -4.23 3.47)"/></g><path d="m17.48 14.62-9.21.4-1.3-4.83 8.18-4.26z" fill="#eee"/><path d="m0 0h24v24h-24z" fill="none"/></svg>