<svg viewBox="0 0 24 24" xmlns="http://www.w3.org/2000/svg"><path d="m14 12h6a0 0 0 0 1 0 0v8a0 0 0 0 1 0 0h-8a0 0 0 0 1 0 0v-6a2 2 0 0 1 2-2z" fill="#ffca28" transform="matrix(-1 0 0 -1 32 32)"/><path d="m6 4h6a0 0 0 0 1 0 0v8a0 0 0 0 1 0 0h-8a0 0 0 0 1 0 0v-6a2 2 0 0 1 2-2z" fill="#ffca28"/><path d="m4 12h8a0 0 0 0 1 0 0v8a0 0 0 0 1 0 0h-6a2 2 0 0 1 -2-2v-6a0 0 0 0 1 0 0z" fill="#ffa726"/><path d="m12 4h8a0 0 0 0 1 0 0v8a0 0 0 0 1 0 0h-6a2 2 0 0 1 -2-2v-6a0 0 0 0 1 0 0z" fill="#ffa726" transform="matrix(-1 0 0 -1 32 16)"/><path d="m0 0h24v24h-24z" fill="none"/></svg>