<svg viewBox="0 0 24.16 24.16" xmlns="http://www.w3.org/2000/svg"><path d="m.08.08h24v24h-24z" fill="none" transform="matrix(.99997801 -.0066322 .0066322 .99997801 -.08 .08)"/><path d="m10.1 20.09c-2.89-.09-6.47-1.79-7-4.45a5.41 5.41 0 0 1 .69-3.35 7.31 7.31 0 0 1 3.11-3.18c.24-.14 2.6-1.39 3.58-.8a2.38 2.38 0 0 1 1 1.61.46.46 0 0 0 .77.26 2.35 2.35 0 0 1 1.49-.38 1.89 1.89 0 0 1 1 .37 2.19 2.19 0 0 1 .68 1.06c.29.72.1.81.3 1.17.42.76 1.3.54 1.91 1.28a2.41 2.41 0 0 1 .43 1.4c.07 1.98-3.8 5.15-7.96 5.01z" fill="#ef5350"/><path d="m20.06 9a1 1 0 0 1 -.88-.51 6.81 6.81 0 0 0 -2.5-2.53 6.92 6.92 0 0 0 -2.74-.86 1 1 0 1 1 .18-2 8.66 8.66 0 0 1 6.8 4.4 1 1 0 0 1 -.38 1.36.94.94 0 0 1 -.48.14z" fill="#ef9a9a"/><path d="m17 10a1 1 0 0 1 -.83-.44 3.53 3.53 0 0 0 -.77-.82 4 4 0 0 0 -1.56-.74 1 1 0 1 1 .41-1.95 5.84 5.84 0 0 1 2.43 1.13 5.65 5.65 0 0 1 1.18 1.26 1 1 0 0 1 -.26 1.39 1 1 0 0 1 -.6.17z" fill="#ff5252"/><ellipse cx="10.1" cy="15.11" fill="#ef9a9a" rx="5.06" ry="3.91" transform="matrix(.96418804 -.26521957 .26521957 .96418804 -3.65 3.22)"/><ellipse cx="10.1" cy="15.58" fill="#ff5252" rx="3.03" ry="2.47" transform="matrix(.96418804 -.26521957 .26521957 .96418804 -3.77 3.24)"/><g fill="#ef9a9a"><ellipse cx="9.63" cy="16.08" rx="1.55" ry=".92" transform="matrix(.96418804 -.26521957 .26521957 .96418804 -3.92 3.13)"/><circle cx="11.6" cy="14.58" r=".5"/></g></svg>