<svg viewBox="0 0 18 18" xmlns="http://www.w3.org/2000/svg"><path d="m16.46 10a5.58 5.58 0 0 0 -.18-7.88l-.14-.12a5 5 0 0 0 -3.14-1.28 5.2 5.2 0 0 0 -4 1.6 5.15 5.15 0 0 0 -7.29-.17l-.17.17a5.59 5.59 0 0 0 0 7.7l6.74 7a1 1 0 0 0 1.42-.02l6.73-7z" fill="none"/><path d="m9 14.85 5.54-5.73.46-.49a3.58 3.58 0 0 0 1-2.63 3.52 3.52 0 0 0 -1.2-2.5 3 3 0 0 0 -1.9-.78h-.11a3.18 3.18 0 0 0 -2.34 1l-1.45 1.49-1.45-1.51a3.12 3.12 0 0 0 -2.28-1 3.17 3.17 0 0 0 -2.18.87l-.09.12a3.56 3.56 0 0 0 0 4.94zm0 2.44a1 1 0 0 1 -.72-.29l-6.74-7a5.59 5.59 0 0 1 0-7.7l.17-.17a5.15 5.15 0 0 1 7.29.19 5.19 5.19 0 0 1 3.79-1.61h.21a5 5 0 0 1 3.14 1.29 5.58 5.58 0 0 1 .32 8l-6.74 7a1 1 0 0 1 -.72.29z" fill="#212121"/><path d="m0 0h18v18h-18z" fill="none"/></svg>