<svg enable-background="new 0 0 18 18" viewBox="0 0 18 18" xmlns="http://www.w3.org/2000/svg"><path d="m9 17.3c-.3 0-.5-.1-.7-.3l-6.7-7c-2-2.2-2-5.5 0-7.7l.2-.2c2-1.9 5.2-1.8 7.2.2 1-1 2.4-1.6 3.8-1.6h.2c1.2.1 2.3.5 3.1 1.3 2.3 2.1 2.5 5.6.4 7.9 0 0-.1.1-.1.1l-6.7 7c-.2.2-.4.3-.7.3z" fill="#212121"/><g fill="none"><path d="m16.5 10c2.1-2.2 2-5.8-.2-7.9l-.2-.1c-.9-.8-2-1.2-3.1-1.3-1.5-.1-3 .5-4 1.6-2-2-5.2-2.1-7.3-.2l-.2.2c-2 2.2-2 5.5 0 7.7l6.7 7c.4.4 1 .4 1.4 0z"/><path d="m0 0h18v18h-18z"/></g></svg>