<svg viewBox="0 0 24 24" xmlns="http://www.w3.org/2000/svg"><path d="m0 0h24v24h-24z" fill="none"/><rect fill="none" height="8" rx="3" width="8" x="3" y="3"/><path d="m8 11h-2a3 3 0 0 1 -3-3v-2a3 3 0 0 1 3-3h2a3 3 0 0 1 3 3v2a3 3 0 0 1 -3 3zm-2-6a1 1 0 0 0 -1 1v2a1 1 0 0 0 1 1h2a1 1 0 0 0 1-1v-2a1 1 0 0 0 -1-1z" fill="#fff"/><rect fill="none" height="8" rx="3" width="8" x="13" y="3"/><path d="m18 11h-2a3 3 0 0 1 -3-3v-2a3 3 0 0 1 3-3h2a3 3 0 0 1 3 3v2a3 3 0 0 1 -3 3zm-2-6a1 1 0 0 0 -1 1v2a1 1 0 0 0 1 1h2a1 1 0 0 0 1-1v-2a1 1 0 0 0 -1-1z" fill="#fff"/><rect fill="none" height="8" rx="3" width="8" x="3" y="13"/><g fill="#fff"><path d="m8 21h-2a3 3 0 0 1 -3-3v-2a3 3 0 0 1 3-3h2a3 3 0 0 1 3 3v2a3 3 0 0 1 -3 3zm-2-6a1 1 0 0 0 -1 1v2a1 1 0 0 0 1 1h2a1 1 0 0 0 1-1v-2a1 1 0 0 0 -1-1z"/><path d="m13 13h2v2h-2z"/><path d="m19 17h-2v-2h-2v2h-2v2 2h2v-2h2v2h2 2v-2h-2z"/><path d="m19 13h2v2h-2z"/></g></svg>