<svg height="18" viewBox="0 0 18 18" width="18" xmlns="http://www.w3.org/2000/svg"><g fill="#9ba0a6" transform="translate(151.667 -397.663)"><path d="m-138.545 407.542a1 1 0 0 0 -1.415 0l-1.707 1.707v-10.586a1 1 0 0 0 -1-1 1 1 0 0 0 -1 1v10.586l-1.707-1.708a1 1 0 0 0 -1.414 0 1 1 0 0 0 0 1.415l3.535 3.535.024-.024a.972.972 0 0 0 .562.2.969.969 0 0 0 .562-.2l.024.024 3.536-3.536a1 1 0 0 0 0-1.413z"/><path d="m-135.667 404.663v7a2 2 0 0 1 -2 2h-10a2 2 0 0 1 -2-2v-7a1 1 0 0 0 -1-1 1 1 0 0 0 -1 1v7a4 4 0 0 0 4 4h10a4 4 0 0 0 4-4v-7a1 1 0 0 0 -1-1 1 1 0 0 0 -1 1z"/></g></svg>