<svg viewBox="0 0 128 128" xmlns="http://www.w3.org/2000/svg"><g stroke="#000" stroke-miterlimit="10" stroke-width="3"><path d="m39.1 41.44a47.46 47.46 0 0 0 6.12 3.82 48.54 48.54 0 0 0 18.78 5.39 44.25 44.25 0 0 0 -2.64-16.17 42.68 42.68 0 0 0 -6-11 12.29 12.29 0 0 0 -21.95 6.82 12.61 12.61 0 0 0 5.69 11.14z" fill="none"/><path d="m88.91 41.44a48 48 0 0 1 -6.11 3.82 48.53 48.53 0 0 1 -18.8 5.39 44.3 44.3 0 0 1 2.65-16.17 42.7 42.7 0 0 1 6-11 12.29 12.29 0 0 1 22 6.82 12.61 12.61 0 0 1 -5.74 11.14z" fill="none"/><path d="m18.97 50.65h90.07v20.9h-90.07z" fill="#fff"/><path d="m22.19 71.55h83.62v37.75h-83.62z" fill="#fff"/><path d="m53.55 50.65h20.9v20.9h-20.9z" fill="#f44336"/><path d="m55.63 71.55h16.74v37.75h-16.74z" fill="#e53935"/></g><path d="m0 0h128v128h-128z" fill="none"/></svg>