<svg viewBox="0 0 256 256" xmlns="http://www.w3.org/2000/svg"><rect fill="#fafafa" height="124.65" rx="4.34" width="76.07" x="89.97" y="70.31"/><path d="m152.23 198.14h-48.46a17 17 0 0 1 -17-17v-97a17 17 0 0 1 17-17h48.46a17 17 0 0 1 17 17v97a17 17 0 0 1 -17 17zm-48.46-124.65a10.63 10.63 0 0 0 -10.62 10.62v97a10.63 10.63 0 0 0 10.62 10.62h48.46a10.63 10.63 0 0 0 10.62-10.62v-97a10.63 10.63 0 0 0 -10.62-10.62z"/><path d="m90 102.4v78.75a13.8 13.8 0 0 0 13.8 13.8h48.46a13.81 13.81 0 0 0 13.74-13.8v-81.55s-11.81 7.31-19.89 6.73-13.87-6.43-13.87-6.43a36.74 36.74 0 0 0 -19.43-7c-11.52-.66-22.81 9.5-22.81 9.5z" fill="#039be5"/><path d="m152.23 198.14h-48.46a17 17 0 0 1 -17-17v-80.14l1.06-1c.5-.45 12.44-11 25.19-10.32a39.91 39.91 0 0 1 21.25 7.71l.26.24s5.1 5 11.83 5.5c5.81.41 14.95-4.39 18-6.27l4.86-3v87.27a17 17 0 0 1 -16.99 17.01zm-59.08-94.25v77.26a10.63 10.63 0 0 0 10.62 10.62h48.46a10.63 10.63 0 0 0 10.62-10.62v-76.15c-4.51 2.23-11.32 4.94-16.92 4.54-8.47-.6-14.64-6.15-15.75-7.21a34.06 34.06 0 0 0 -17.51-6.24c-8.21-.48-16.62 5.51-19.52 7.8z"/><g fill="#fff"><path d="m137.2 121.49-24.35 29.32h16.72l-11.85 24.79 25.43-30.3h-16.72z"/><path d="m117.72 178.78a3.17 3.17 0 0 1 -2.87-4.55l9.67-20.23h-11.67a3.18 3.18 0 0 1 -2.45-5.21l24.35-29.32a3.18 3.18 0 0 1 5.35 3.34l-8.74 19.32h11.79a3.18 3.18 0 0 1 2.44 5.23l-25.43 30.3a3.2 3.2 0 0 1 -2.44 1.12zm14-30.3a4 4 0 0 1 .52.63 3.19 3.19 0 0 1 .18 3.07l-1 2.14 4.91-5.84zm-12.12-.85h4.62a3.32 3.32 0 0 1 -.5-.61 3.17 3.17 0 0 1 -.22-3l1-2.31z"/><path d="m112.85 61.05h30.3v6.29h-30.3z"/></g><rect height="12.66" rx="3.18" width="36.66" x="109.67" y="57.86"/><path d="m0 0h256v256h-256z" fill="none"/></svg>