<svg viewBox="0 0 256 256" xmlns="http://www.w3.org/2000/svg"><path d="m129.31 182.14 12.43-6.08a3 3 0 0 1 1.31-.3h53.59a3 3 0 0 0 3-3v-88.27a3 3 0 0 0 -3-3h-53.59a3 3 0 0 0 -1.31.31l-12.43 6.1a3 3 0 0 1 -2.62 0l-12.43-6.08a3 3 0 0 0 -1.31-.31h-53.59a3 3 0 0 0 -3 3v88.3a3 3 0 0 0 3 3h53.64a3 3 0 0 1 1.31.3l12.43 6.08a2.94 2.94 0 0 0 2.57-.05z" fill="#039be5"/><path d="m128 185.63a6.18 6.18 0 0 1 -2.71-.63l-12.43-6.08h-53.5a6.18 6.18 0 0 1 -6.16-6.16v-88.27a6.17 6.17 0 0 1 6.16-6.16h53.64a6.17 6.17 0 0 1 2.7.62l12.39 6.05 12.25-6a6.18 6.18 0 0 1 2.71-.62h53.59a6.16 6.16 0 0 1 6.16 6.16v88.3a6.17 6.17 0 0 1 -6.16 6.16h-53.59l-12.34 6a6.18 6.18 0 0 1 -2.71.63zm-15-13a6.17 6.17 0 0 1 2.7.62l12.34 6 12.34-6a6.18 6.18 0 0 1 2.71-.62h53.59l-.21-88.09-53.38.2-12.39 6.02a6.13 6.13 0 0 1 -5.4 0l-12.44-6.09h-53.5l.21 88.1z"/><path d="m129.18 164.79 11.28-5.51a2.56 2.56 0 0 1 1.18-.28h48.59a2.7 2.7 0 0 0 2.7-2.69v-80.06a2.7 2.7 0 0 0 -2.7-2.7h-48.59a2.68 2.68 0 0 0 -1.18.27l-11.28 5.52a2.71 2.71 0 0 1 -2.36 0l-11.28-5.52a2.68 2.68 0 0 0 -1.18-.27h-48.59a2.7 2.7 0 0 0 -2.7 2.7v80.06a2.7 2.7 0 0 0 2.7 2.69h48.59a2.56 2.56 0 0 1 1.18.28l11.28 5.51a2.71 2.71 0 0 0 2.36 0z" fill="#fafafa"/><path d="m128 168.25a5.88 5.88 0 0 1 -2.58-.6l-11.28-5.51h-48.37a5.88 5.88 0 0 1 -5.88-5.88v-80.01a5.88 5.88 0 0 1 5.88-5.88h48.59a5.92 5.92 0 0 1 2.64.63l11 5.39 11.06-5.39a5.85 5.85 0 0 1 2.58-.6h48.59a5.88 5.88 0 0 1 5.88 5.88v80.02a5.88 5.88 0 0 1 -5.88 5.88h-48.59l-11 5.46a5.79 5.79 0 0 1 -2.64.61zm-61.74-12.43h48.1a6 6 0 0 1 2.59.6l11 5.4 11.06-5.4a6 6 0 0 1 2.58-.6h48.11v-79.09h-48.06l-11.06 5.47a5.85 5.85 0 0 1 -5.16 0l-11.28-5.51h-47.88z"/><path d="m128 109.15a17.17 17.17 0 0 1 17.17 17.17v13.68a0 0 0 0 1 0 0h-34.34a0 0 0 0 1 0 0v-13.69a17.17 17.17 0 0 1 17.17-17.16z" fill="#039be5"/><path d="m148.35 143.23h-40.7v-17.31a20 20 0 0 1 20-20h.78a20 20 0 0 1 20 20zm-34.35-6.37h28v-10.94a13.6 13.6 0 0 0 -13.59-13.59h-.78a13.6 13.6 0 0 0 -13.63 13.59z"/><rect fill="#039be5" height="22.83" rx="11.41" width="22.83" x="116.59" y="91"/><path d="m128 117a14.6 14.6 0 1 1 14.6-14.6 14.62 14.62 0 0 1 -14.6 14.6zm0-22.83a8.23 8.23 0 1 0 8.23 8.23 8.24 8.24 0 0 0 -8.23-8.22z"/><path d="m0 0h256v256h-256z" fill="none"/></svg>