<svg viewBox="0 0 256 256" xmlns="http://www.w3.org/2000/svg"><rect fill="#fafafa" height="149.59" rx="19.86" width="112.68" x="71.66" y="57.4"/><path d="m165 210.74h-74.18a22.45 22.45 0 0 1 -22.43-22.43v-111.1a22.46 22.46 0 0 1 22.43-22.43h74.18a22.47 22.47 0 0 1 22.44 22.43v111.1a22.46 22.46 0 0 1 -22.44 22.43zm-74.18-149.59a16.08 16.08 0 0 0 -16.06 16.06v111.1a16.07 16.07 0 0 0 16.06 16.06h74.18a16.08 16.08 0 0 0 16.07-16.06v-111.1a16.09 16.09 0 0 0 -16.07-16.06z" transform="translate(.09 -.57)"/><path d="m97.96 49.01h60.08v21.46h-60.08z" fill="#ffa000"/><path d="m161.14 74.22h-66.45v-27.82h66.45zm-60.08-6.37h53.71v-15.09h-53.71z" transform="translate(.09 -.57)"/><path d="m97.42 112.4-10.27-9.78 4.38-4.61 5.36 5.09 11.18-13.41 4.89 4.08z"/><path d="m97.42 141.05-10.27-9.79 4.38-4.61 5.36 5.1 11.18-13.41 4.89 4.07z"/><path d="m104.7 175.48h-11.22a7.41 7.41 0 0 1 -7.41-7.4v-11.23a7.41 7.41 0 0 1 7.41-7.4h11.22a7.41 7.41 0 0 1 7.41 7.4v11.23a7.41 7.41 0 0 1 -7.41 7.4zm-11.22-19.67a1 1 0 0 0 -1 1v11.23a1 1 0 0 0 1 1h11.22a1 1 0 0 0 1-1v-11.19a1 1 0 0 0 -1-1z" transform="translate(.09 -.57)"/><path d="m121.17 99.74h45.49v6.37h-45.49z"/><path d="m121.17 128.39h45.49v6.37h-45.49z"/><path d="m121.17 157.03h45.49v6.37h-45.49z"/><path d="m0 0h256v256h-256z" fill="none"/></svg>