<svg viewBox="0 0 256 256" xmlns="http://www.w3.org/2000/svg"><path d="m194.27 106-56.45-48a15.17 15.17 0 0 0 -19.64 0l-56.45 48a15.17 15.17 0 0 0 -5.34 11.56v68.84a15.17 15.17 0 0 0 15.17 15.16h112.88a15.17 15.17 0 0 0 15.17-15.16v-68.81a15.17 15.17 0 0 0 -5.34-11.59z" fill="#fafafa"/><path d="m184.45 204.75h-112.9a18.38 18.38 0 0 1 -18.35-18.35v-68.81a18.32 18.32 0 0 1 6.47-14l56.45-48a18.28 18.28 0 0 1 23.76 0l56.45 48a18.32 18.32 0 0 1 6.47 14v68.81a18.38 18.38 0 0 1 -18.35 18.35zm-56.45-147.13a12 12 0 0 0 -7.76 2.87l-56.45 48a12 12 0 0 0 -4.22 9.14v68.77a12 12 0 0 0 12 12h112.9a12 12 0 0 0 12-12v-68.81a12 12 0 0 0 -4.22-9.14l-56.45-48a12 12 0 0 0 -7.8-2.83z"/><path d="m89.19 169.74a15.91 15.91 0 0 1 15.91 15.91v15.91a0 0 0 0 1 0 0h-31.82a0 0 0 0 1 0 0v-15.91a15.91 15.91 0 0 1 15.91-15.91z" fill="#c62828"/><path d="m108.29 204.75h-38.2v-19.1a19.1 19.1 0 0 1 38.2 0zm-31.83-6.37h25.46v-12.73a12.73 12.73 0 0 0 -25.46 0z"/><path d="m128 155.77a22.9 22.9 0 0 1 22.9 22.9v22.9a0 0 0 0 1 0 0h-45.8a0 0 0 0 1 0 0v-22.9a22.9 22.9 0 0 1 22.9-22.9z" fill="#f44336"/><path d="m154.08 204.75h-52.16v-26.08a26.08 26.08 0 0 1 52.16 0zm-45.79-6.37h39.42v-19.71a19.71 19.71 0 0 0 -39.42 0z"/><path d="m166.81 169.74a15.91 15.91 0 0 1 15.91 15.91v15.91a0 0 0 0 1 0 0h-31.82a0 0 0 0 1 0 0v-15.91a15.91 15.91 0 0 1 15.91-15.91z" fill="#c62828"/><path d="m185.91 204.75h-38.2v-19.1a19.1 19.1 0 0 1 38.2 0zm-31.83-6.37h25.46v-12.73a12.73 12.73 0 1 0 -25.46 0z"/><rect fill="#c62828" height="22.28" rx="11.14" width="22.28" x="78.05" y="150.19"/><path d="m89.19 175.65a14.32 14.32 0 1 1 14.32-14.32 14.33 14.33 0 0 1 -14.32 14.32zm0-22.28a8 8 0 1 0 8 8 8 8 0 0 0 -8-8z"/><rect fill="#c62828" height="22.28" rx="11.14" width="22.28" x="155.67" y="150.19"/><path d="m166.81 175.65a14.32 14.32 0 1 1 14.32-14.32 14.33 14.33 0 0 1 -14.32 14.32zm0-22.28a8 8 0 1 0 8 8 8 8 0 0 0 -8-8z"/><rect fill="#f44336" height="35.08" rx="17.54" width="35.08" x="110.46" y="130.46"/><path d="m128 168.73a20.73 20.73 0 1 1 20.72-20.73 20.75 20.75 0 0 1 -20.72 20.73zm0-35.09a14.36 14.36 0 1 0 14.36 14.36 14.38 14.38 0 0 0 -14.36-14.36z"/><path d="m0 0h256v256h-256z" fill="none"/></svg>