<svg viewBox="0 0 256 256" xmlns="http://www.w3.org/2000/svg"><rect fill="#e53935" height="117.76" rx="11.99" width="175.05" x="40.47" y="69.86"/><path d="m202.32 190.8h-148.64a16.41 16.41 0 0 1 -16.39-16.39v-91.35a16.41 16.41 0 0 1 16.39-16.39h148.64a16.41 16.41 0 0 1 16.39 16.39v91.35a16.41 16.41 0 0 1 -16.39 16.39zm-148.64-117.8a10 10 0 0 0 -10 10v91.35a10 10 0 0 0 10 10h148.64a10 10 0 0 0 10-10v-91.29a10 10 0 0 0 -10-10z"/><path d="m85.68 120.27h5.45a16.37 16.37 0 0 1 16.37 16.37v17.48a0 0 0 0 1 0 0h-38.19a0 0 0 0 1 0 0v-17.48a16.37 16.37 0 0 1 16.37-16.37z" fill="#e57373"/><path d="m110.69 157.31h-44.56v-21.31a18.94 18.94 0 0 1 18.92-18.92h6.72a18.94 18.94 0 0 1 18.92 18.92zm-38.19-6.37h31.83v-14.94a12.57 12.57 0 0 0 -12.56-12.55h-6.72a12.56 12.56 0 0 0 -12.55 12.55z"/><circle cx="88.41" cy="115.67" fill="#e57373" r="12.33"/><path d="m88.41 131.18a15.51 15.51 0 1 1 15.51-15.51 15.52 15.52 0 0 1 -15.51 15.51zm0-24.65a9.15 9.15 0 1 0 9.15 9.14 9.15 9.15 0 0 0 -9.15-9.14z"/><circle cx="197.23" cy="169.43" fill="#388e3c" r="35.01"/><path d="m197.23 207.62a38.2 38.2 0 1 1 38.19-38.2 38.24 38.24 0 0 1 -38.19 38.2zm0-70a31.83 31.83 0 1 0 31.82 31.82 31.87 31.87 0 0 0 -31.82-31.84z"/><ellipse cx="194.04" cy="164.65" fill="#388e3c" rx="9.95" ry="9.55"/><g fill="#fff"><path d="m194 177.38a12.74 12.74 0 1 1 13.13-12.73 12.95 12.95 0 0 1 -13.13 12.73zm0-19.09a6.38 6.38 0 1 0 6.77 6.36 6.57 6.57 0 0 0 -6.77-6.36z"/><path d="m201.08 172.38 9.28 11.37z"/><path d="m202.54 170.73h6.36v14.67h-6.36z" transform="matrix(.77483417 -.63216455 .63216455 .77483417 -66.25 170.15)"/></g><path d="m126.88 103.35h58.93" fill="#388e3c"/><path d="m126.88 100.16h58.94v6.37h-58.94z"/><path d="m126.77 118.88h58.94" fill="#388e3c"/><path d="m126.78 115.7h58.93v6.37h-58.93z"/><path d="m126.88 118.88h58.93" fill="#388e3c"/><path d="m126.88 115.7h58.94v6.37h-58.94z"/><path d="m126.88 134.42h30.01" fill="#388e3c"/><path d="m126.88 131.23h30.01v6.37h-30.01z"/><path d="m0 0h256v256h-256z" fill="none"/></svg>