<svg viewBox="0 0 256 256" xmlns="http://www.w3.org/2000/svg"><circle cx="128" cy="128" fill="#fafafa" r="83.31"/><path d="m128 214.5a86.5 86.5 0 1 1 86.49-86.5 86.61 86.61 0 0 1 -86.49 86.5zm0-166.63a80.13 80.13 0 1 0 80.13 80.13 80.23 80.23 0 0 0 -80.13-80.13z"/><circle cx="128" cy="128" fill="#42a5f5" r="66.84"/><path d="m128 198a70 70 0 1 1 70-70 70.1 70.1 0 0 1 -70 70zm0-133.68a63.66 63.66 0 1 0 63.66 63.68 63.73 63.73 0 0 0 -63.66-63.66z"/><path d="m188.24 157a66.87 66.87 0 0 1 -120.48 0z" fill="#ff6f00"/><path d="m128 198a70.44 70.44 0 0 1 -63.1-39.64l-2.21-4.56h130.62l-2.2 4.56a70.47 70.47 0 0 1 -63.11 39.64zm-54.93-37.82a63.66 63.66 0 0 0 109.86 0z"/><path d="m127.09 109a27.05 27.05 0 0 1 27.05 27.05v20.95a0 0 0 0 1 0 0h-54.14a0 0 0 0 1 0 0v-20.9a27.05 27.05 0 0 1 27.09-27.1z" fill="#fafafa"/><path d="m157.33 160.18h-60.48v-24.09a30.24 30.24 0 0 1 60.48 0zm-54.11-6.37h47.78v-17.72a23.87 23.87 0 0 0 -47.74 0z"/><circle cx="127.09" cy="102.52" fill="#fafafa" r="17.46"/><path d="m127.09 123.17a20.65 20.65 0 1 1 20.65-20.65 20.67 20.67 0 0 1 -20.65 20.65zm0-34.93a14.28 14.28 0 1 0 14.28 14.28 14.3 14.3 0 0 0 -14.28-14.28z"/><path d="m0 0h256v256h-256z" fill="none"/></svg>