<svg viewBox="0 0 256 256" xmlns="http://www.w3.org/2000/svg"><path d="m0 0h256v256h-256z" fill="none"/><path d="m80.26 169.82v-23.94c0-8.18 21.37-14.82 47.74-14.82s47.74 6.64 47.74 14.82v23.94c0 8.18-21.37 14.81-47.74 14.81s-47.74-6.63-47.74-14.81z" fill="#fafafa"/><path d="m128 187.81c-25.31 0-50.92-6.18-50.92-18v-23.93c0-11.82 25.61-18 50.92-18s50.93 6.18 50.93 18v23.94c0 11.81-25.62 17.99-50.93 17.99zm0-53.56c-26.79 0-44.56 7-44.56 11.63v23.94c0 4.63 17.77 11.63 44.56 11.63s44.56-7 44.56-11.63v-23.94c0-4.63-17.77-11.63-44.56-11.63z"/><path d="m80.26 133v-23.95c0-8.18 21.37-14.81 47.74-14.81s47.74 6.63 47.74 14.81v23.95c0 8.19-21.37 14.82-47.74 14.82s-47.74-6.64-47.74-14.82z" fill="#fafafa"/><path d="m128 151c-25.31 0-50.92-6.18-50.92-18v-23.95c0-11.81 25.61-18 50.92-18s50.93 6.18 50.93 18v23.95c0 11.81-25.62 18-50.93 18zm0-53.57c-26.79 0-44.56 7-44.56 11.63v23.94c0 4.64 17.77 11.64 44.56 11.64s44.56-7 44.56-11.64v-23.95c0-4.63-17.77-11.63-44.56-11.63z"/><path d="m80.26 95.44v-23.94c0-8.18 21.37-14.82 47.74-14.82s47.74 6.64 47.74 14.82v23.94c0 8.18-21.37 14.81-47.74 14.81s-47.74-6.63-47.74-14.81z" fill="#fafafa"/><path d="m128 113.43c-25.31 0-50.92-6.18-50.92-18v-23.93c0-11.82 25.61-18 50.92-18s50.93 6.18 50.93 18v23.94c0 11.81-25.62 17.99-50.93 17.99zm0-53.56c-26.79 0-44.56 7-44.56 11.63v23.94c0 4.63 17.77 11.63 44.56 11.63s44.56-7 44.56-11.63v-23.94c0-4.63-17.77-11.63-44.56-11.63z"/><circle cx="175.74" cy="163.01" fill="#388e3c" r="35.01"/><path d="m175.74 201.2a38.19 38.19 0 1 1 38.2-38.2 38.23 38.23 0 0 1 -38.2 38.2zm0-70a31.83 31.83 0 1 0 31.83 31.8 31.87 31.87 0 0 0 -31.83-31.82z"/><ellipse cx="171.37" cy="158.34" fill="#388e3c" rx="9.95" ry="9.55"/><g fill="#fff"><path d="m171.37 171.07a12.74 12.74 0 1 1 13.12-12.73 12.95 12.95 0 0 1 -13.12 12.73zm0-19.1a6.38 6.38 0 1 0 6.76 6.37 6.59 6.59 0 0 0 -6.76-6.34z"/><path d="m178.41 166.07 9.27 11.36z"/><path d="m179.86 164.42h6.36v14.67h-6.36z" transform="matrix(.77483417 -.63216455 .63216455 .77483417 -67.36 154.39)"/></g></svg>