<svg enable-background="new 0 0 256 256" viewBox="0 0 256 256" xmlns="http://www.w3.org/2000/svg"><path d="m0 0h256v256h-256z" fill="none"/><path d="m165.7 190c11.9 17.4 35.6 21.9 53.1 10.1 17.4-11.9 21.9-35.6 10.1-53.1-2.7-4-6.1-7.4-10.1-10.1v-52.3c0-10.3-8.3-18.6-18.6-18.6h-144.3c-10.3 0-18.6 8.3-18.6 18.6v86.9c0 10.3 8.3 18.6 18.6 18.6z"/><path d="m212.3 133.5c-19.4-8.3-41.9.6-50.2 20-4.1 9.6-4.1 20.5 0 30.2h-106.2c-6.8 0-12.3-5.5-12.3-12.3v-86.8c0-6.8 5.5-12.3 12.3-12.3h144.2c6.8 0 12.3 5.5 12.3 12.3v48.9z" fill="#fff"/><path d="m197.2 136.8c-17.6 0-31.8 14.2-31.8 31.8s14.2 31.8 31.8 31.8 31.8-14.2 31.8-31.8-14.2-31.8-31.8-31.8z" fill="#00bfa5"/><path d="m93.8 114.7h-12l12-17.3h12v61.3h-12z"/><path d="m131 141.3h11.9l-11.9 17.3h-12v-61.2h12z"/><path d="m211.8 163.1v21.2h-29.2v-21.2h4.1v-5.3c.4-5.8 5.3-10.2 11.1-9.9 5.3.3 9.5 4.6 9.9 9.9v5.3zm-11.1 0v-5.3c-.3-1.9-2-3.3-4-3-1.6.2-2.8 1.5-3 3v5.3z" fill="#fff"/></svg>