<svg viewBox="0 0 256 256" xmlns="http://www.w3.org/2000/svg"><rect fill="#fafafa" height="141.9" rx="10.08" width="111.4" x="72.3" y="57.05"/><path d="m172.18 202.14h-88.36a14.72 14.72 0 0 1 -14.7-14.71v-118.86a14.72 14.72 0 0 1 14.7-14.71h88.36a14.72 14.72 0 0 1 14.7 14.71v118.86a14.72 14.72 0 0 1 -14.7 14.71zm-88.36-141.91a8.35 8.35 0 0 0 -8.34 8.34v118.86a8.35 8.35 0 0 0 8.34 8.34h88.36a8.35 8.35 0 0 0 8.34-8.34v-118.86a8.35 8.35 0 0 0 -8.34-8.34z"/><path d="m106.92 91.34a15.74 15.74 0 0 1 15.74 15.74v12.16a0 0 0 0 1 0 0h-31.48a0 0 0 0 1 0 0v-12.16a15.74 15.74 0 0 1 15.74-15.74z" fill="#e53935"/><path d="m125.84 122.42h-37.84v-15.34a18.92 18.92 0 0 1 37.84 0zm-31.47-6.37h25.1v-9a12.55 12.55 0 0 0 -25.1 0z"/><circle cx="106.92" cy="87.55" fill="#e53935" r="10.16"/><path d="m106.92 100.89a13.34 13.34 0 1 1 13.34-13.34 13.35 13.35 0 0 1 -13.34 13.34zm0-20.31a7 7 0 1 0 7 7 7 7 0 0 0 -7-7z"/><path d="m134.72 97.71h33.3" fill="#e53935"/><path d="m134.72 94.53h33.29v6.37h-33.29z"/><path d="m135.17 110.42h33.3" fill="#e53935"/><path d="m135.17 107.24h33.29v6.37h-33.29z"/><path d="m134.28 84.98h33.29" fill="#e53935"/><path d="m134.28 81.8h33.3v6.37h-33.3z"/><path d="m88.09 134.01h55.02" fill="#e53935"/><path d="m88.09 130.82h55.02v6.37h-55.02z"/><path d="m88.09 147.95h74.33" fill="#e53935"/><path d="m88.09 144.77h74.33v6.37h-74.33z"/><path d="m88.09 161.9h58.17" fill="#e53935"/><path d="m88.09 158.72h58.17v6.37h-58.17z"/><path d="m88.09 175.85h51.3" fill="#e53935"/><path d="m88.09 172.66h51.3v6.37h-51.3z"/><path d="m0 0h256v256h-256z" fill="none"/></svg>