<svg viewBox="0 0 32 42" xmlns="http://www.w3.org/2000/svg"><path d="m32 18v-13a5 5 0 0 0 -5-5h-22a5 5 0 0 0 -5 5v8a5 5 0 0 0 5 5h23l4 4zm-3-8.76v3.76a2 2 0 0 1 -2 2h-22a2 2 0 0 1 -2-2v-8a2 2 0 0 1 2-2h22a2 2 0 0 1 2 2z"/><path d="m9 7a2 2 0 0 1 2 2 2 2 0 0 1 -2 2 2 2 0 0 1 -2-2 2 2 0 0 1 2-2z"/><path d="m16 7a2 2 0 0 1 2 2 2 2 0 0 1 -2 2 2 2 0 0 1 -2-2 2 2 0 0 1 2-2z"/><path d="m23 7a2 2 0 0 1 2 2 2 2 0 0 1 -2 2 2 2 0 0 1 -2-2 2 2 0 0 1 2-2z"/><path d="m27 23h-23l-4-4v18a5 5 0 0 0 5 5h22a5 5 0 0 0 5-5v-9a5 5 0 0 0 -5-5zm-5.11 14.34a1 1 0 0 1 -.63.22h-11a1 1 0 0 1 -1-1 1 1 0 0 1 .16-.56l3.58-5.24a1 1 0 0 1 1.39-.26 1.07 1.07 0 0 1 .26.26l2.83 4.11 1.06-1.34a1 1 0 0 1 1.46-.15l.15.15 1.85 2.4a1 1 0 0 1 -.11 1.41zm-1.13-5.9a2 2 0 1 1 2-2 2 2 0 0 1 -2 2z"/></svg>