<svg viewBox="0 0 32 42" xmlns="http://www.w3.org/2000/svg"><path d="m27 17.59v-11.59a6 6 0 0 0 -6-6h-15a6 6 0 0 0 -6 6v22a6 6 0 0 0 6 6h1a8 8 0 0 0 8 8h9a8 8 0 0 0 8-8v-9a8 8 0 0 0 -5-7.41zm-20-.59v14h-1a3 3 0 0 1 -3-3v-22a3 3 0 0 1 3-3h15a3 3 0 0 1 3 3v11zm8 9.5a1.5 1.5 0 0 1 -3 0v-1.5a3 3 0 0 1 3-3h1.5a1.5 1.5 0 0 1 1.5 1.5 1.5 1.5 0 0 1 -1.5 1.5h-1.5zm3 9a1.5 1.5 0 0 1 -1.5 1.5h-1.5a3 3 0 0 1 -3-3v-1.5a1.5 1.5 0 0 1 3 0v1.5h1.5a1.5 1.5 0 0 1 1.5 1.5zm1.5-4a2 2 0 1 1 2-2 2 2 0 0 1 -2 2zm7.5 2.5a3 3 0 0 1 -3 3h-1.5a1.5 1.5 0 0 1 0-3h1.5v-1.5a1.5 1.5 0 0 1 3 0zm0-7.5a1.5 1.5 0 0 1 -3 0v-1.5h-1.5a1.5 1.5 0 0 1 0-3h1.5a3 3 0 0 1 3 3z"/></svg>