<svg viewBox="0 0 32 42" xmlns="http://www.w3.org/2000/svg"><path d="m27 0h-22c-.15 0-.3 0-.44 0a5 5 0 0 0 -4.5 4.38c-.06.21-.06.41-.06.62v32a4.93 4.93 0 0 0 .05.54 5 5 0 0 0 4.95 4.46h22a5 5 0 0 0 5-5v-32a5 5 0 0 0 -5-5zm-21 3a3 3 0 1 1 -3 3 3 3 0 0 1 3-3zm2.5 24h-4a1.5 1.5 0 0 1 0-3h4a1.5 1.5 0 0 1 0 3zm5-6h-9a1.5 1.5 0 0 1 0-3h9a1.5 1.5 0 0 1 0 3zm0-6h-9a1.5 1.5 0 0 1 0-3h9a1.5 1.5 0 0 1 0 3zm15.5 22a2 2 0 0 1 -2 2h-9v-36h9a2 2 0 0 1 2 2z"/><path d="m23.67 17.56a1.5 1.5 0 1 0 -2.34 1.88l1.25 1.56-1.25 1.56a1.5 1.5 0 0 0 1.17 2.44 1.48 1.48 0 0 0 1.17-.56l2-2.5a1.5 1.5 0 0 0 0-1.88z"/></svg>