<svg viewBox="0 0 256 256" xmlns="http://www.w3.org/2000/svg"><path d="m60.14 152.19c0 18.53 24.13 33.55 53.89 33.55s53.88-15 53.88-33.55-24.13-33.55-53.91-33.55-53.89 15-53.89 33.55" fill="#fff"/><path d="m114 188.92c-31.44 0-57-16.48-57-36.73s25.6-36.74 57.07-36.74 57.07 16.48 57.07 36.74-25.65 36.73-57.14 36.73zm0-67.1c-28 0-50.71 13.62-50.71 30.37s22.78 30.37 50.71 30.37 50.7-13.62 50.7-30.37-22.7-30.37-50.7-30.37z"/><path d="m115.3 183c-26.35 2.61-49.1-9.31-50.81-26.59s18.27-33.42 44.6-36 49.09 9.31 50.79 26.59-18.25 33.45-44.58 36m52.7-57.4c-2.24-.68-3.78-1.12-2.62-4.07 2.55-6.39 2.82-11.9 0-15.85-5.16-7.38-19.3-7-35.51-.2 0 0-5.09 2.22-3.78-1.8 2.49-8 2.11-14.71-1.75-18.6-8.79-8.8-32.17.33-52.22 20.38-15 15-23.71 30.92-23.71 44.69 0 26.3 33.75 42.31 66.75 42.31 43.28 0 72.07-25.14 72.07-45.1 0-12.08-10.15-18.93-19.28-21.76" fill="#d32f2f"/><path d="m115.19 195.64c-34.38 0-69.94-17-69.94-45.49 0-14.38 8.76-31.05 24.65-46.94 15-15 32.66-24.66 45-24.66 4.84 0 8.88 1.48 11.67 4.29 4.21 4.23 5.32 10.84 3.26 19.21 17.82-7.16 32.34-6.49 38.14 1.81 3.26 4.66 3.4 10.9.42 18.55l.41.13h.07c13.5 4.18 21.54 13.45 21.52 24.8.05 22.85-30.85 48.3-75.2 48.3zm-.25-110.73c-10.61 0-26.9 9.16-40.54 22.8-14.69 14.69-22.78 29.76-22.78 42.44 0 24.49 32.32 39.13 63.57 39.13 42.68 0 68.89-24.42 68.89-41.92 0-12.47-13-17.48-17-18.72l.94-3-1 3c-1.66-.51-3.73-1.14-4.73-3.22a6.33 6.33 0 0 1 .14-5c2.26-5.67 2.39-10 .39-12.85-4-5.72-16.72-5.35-31.67.91-1.33.58-4.77 1.74-7-.31-.8-.73-2-2.4-1-5.42 2.18-7 1.84-12.52-1-15.36-1.59-1.6-4-2.42-7.16-2.42zm-6.75 101.65c-24.81 0-45.15-12.51-46.87-29.82-1.88-19 19.41-36.73 47.45-39.52 17-1.67 33.27 2.41 43.65 10.92 6.27 5.15 9.94 11.56 10.62 18.53s-1.64 14-6.78 20.27c-8.51 10.38-23.7 17.58-40.65 19.25-2.5.24-4.99.37-7.42.37zm8.13-63.35q-3.42 0-6.92.35c-24.55 2.44-43.28 17-41.75 32.55s22.77 26.17 47.35 23.74c15.3-1.51 28.88-7.84 36.34-16.94 4-4.94 5.91-10.34 5.38-15.61s-3.4-10.19-8.33-14.24c-7.72-6.33-19.39-9.85-32.07-9.85z"/><path d="m196.72 77.44a42.09 42.09 0 0 0 -40.09-13 6.09 6.09 0 0 0 2.54 11.91 29.95 29.95 0 0 1 34.76 38.51 6.1 6.1 0 0 0 11.6 3.76 42 42 0 0 0 -8.81-41.17" fill="#f57c00"/><path d="m199.72 126a9.28 9.28 0 0 1 -8.82-12.12 26.76 26.76 0 0 0 -31.07-34.42 9.26 9.26 0 0 1 -7-1.28 9.28 9.28 0 0 1 3.17-16.83 45.32 45.32 0 0 1 52.75 57.76l-.16.51a9.27 9.27 0 0 1 -8.87 6.38zm-34.33-53.47a33.12 33.12 0 0 1 31.61 43.33 2.91 2.91 0 0 0 5.48 2l.06-.18a39 39 0 0 0 -8.14-38.06 39 39 0 0 0 -37.07-12 2.9 2.9 0 0 0 -2.27 3.38 2.82 2.82 0 0 0 1.26 1.83 2.87 2.87 0 0 0 2.19.41 32.77 32.77 0 0 1 6.88-.71z"/><path d="m180.67 91.93a20.46 20.46 0 0 0 -19.52-6.3 5.24 5.24 0 1 0 2.17 10.26 10 10 0 0 1 11.68 12.89 5.25 5.25 0 1 0 10 3.22 20.5 20.5 0 0 0 -4.28-20.07" fill="#f57c00"/><path d="m179.93 118.82a8.37 8.37 0 0 1 -2.55-.4 8.47 8.47 0 0 1 -5.45-10.61 6.83 6.83 0 0 0 -7.93-8.81 8.41 8.41 0 0 1 -10-6.46 8.45 8.45 0 0 1 6.5-10 23.7 23.7 0 0 1 22.5 7.26 23.8 23.8 0 0 1 5 23.2 8.49 8.49 0 0 1 -8.07 5.82zm-14.51-26.34a13.19 13.19 0 0 1 12.58 17.28 2.07 2.07 0 0 0 1.34 2.6 2.05 2.05 0 0 0 2.59-1.34 17.38 17.38 0 0 0 -3.61-17 17.32 17.32 0 0 0 -16.49-5.33 2.09 2.09 0 0 0 -1.6 2.47 2.06 2.06 0 0 0 .91 1.29 2 2 0 0 0 1.51.28 13.07 13.07 0 0 1 2.77-.25z"/><path d="m116.75 151.71a3.79 3.79 0 0 1 -4.55 1.66 2.64 2.64 0 0 1 -1.16-4 3.77 3.77 0 0 1 4.44-1.67 2.66 2.66 0 0 1 1.27 4m-8.41 10.75c-2.55 4.07-8 5.85-12.12 4s-5.25-6.57-2.7-10.54a10 10 0 0 1 11.88-4c4.12 1.78 5.44 6.46 2.94 10.56m9.57-28.76c-12.54-3.27-26.7 3-32.14 14-5.56 11.27-.18 23.78 12.47 27.87 13.13 4.23 28.59-2.27 34-14.41 5.31-11.9-1.32-24.13-14.3-27.49"/><path d="m0 0h256v256h-256z" fill="none"/></svg>