<svg viewBox="0 0 256 256" xmlns="http://www.w3.org/2000/svg"><rect fill="#bdbdbd" height="31.83" rx="1.08" width="31.83" x="67.95" y="68.32"/><path d="m96.35 103.33h-25a6.63 6.63 0 0 1 -6.62-6.61v-25a6.63 6.63 0 0 1 6.62-6.62h25a6.63 6.63 0 0 1 6.65 6.66v25a6.63 6.63 0 0 1 -6.65 6.57zm-25-31.83a.26.26 0 0 0 -.25.26v25a.25.25 0 0 0 .25.25h25a.25.25 0 0 0 .25-.25v-25a.26.26 0 0 0 -.25-.26z"/><rect fill="#26c6da" height="39.79" rx="1.08" width="39.79" x="63.98" y="108.11"/><path d="m100.33 151.07h-32.92a6.62 6.62 0 0 1 -6.62-6.61v-32.92a6.63 6.63 0 0 1 6.62-6.62h32.92a6.62 6.62 0 0 1 6.61 6.62v32.92a6.61 6.61 0 0 1 -6.61 6.61zm-32.92-39.78a.25.25 0 0 0 -.25.25v32.92a.25.25 0 0 0 .25.25h32.92a.25.25 0 0 0 .25-.25v-32.92a.25.25 0 0 0 -.25-.25z"/><rect fill="#ba68c8" height="39.79" rx="1.08" width="39.79" x="63.98" y="151.87"/><path d="m100.33 194.84h-32.92a6.63 6.63 0 0 1 -6.62-6.62v-32.92a6.63 6.63 0 0 1 6.62-6.61h32.92a6.62 6.62 0 0 1 6.61 6.61v32.92a6.62 6.62 0 0 1 -6.61 6.62zm-32.92-39.79a.25.25 0 0 0 -.25.25v32.92a.25.25 0 0 0 .25.25h32.92a.25.25 0 0 0 .25-.25v-32.92a.25.25 0 0 0 -.25-.25z"/><rect fill="#ef5350" height="39.79" rx="1.08" width="39.79" x="107.94" y="64.34"/><path d="m144.29 107.31h-32.92a6.62 6.62 0 0 1 -6.61-6.61v-32.92a6.62 6.62 0 0 1 6.61-6.62h32.92a6.63 6.63 0 0 1 6.62 6.62v32.92a6.63 6.63 0 0 1 -6.62 6.61zm-32.92-39.78a.25.25 0 0 0 -.25.25v32.92a.25.25 0 0 0 .25.24h32.92a.25.25 0 0 0 .25-.24v-32.92a.25.25 0 0 0 -.25-.25z"/><rect fill="#bdbdbd" height="31.83" rx="1.08" width="31.83" x="111.92" y="112.09"/><path d="m140.31 147.1h-25a6.63 6.63 0 0 1 -6.62-6.62v-25a6.63 6.63 0 0 1 6.62-6.62h25a6.63 6.63 0 0 1 6.62 6.62v25a6.63 6.63 0 0 1 -6.62 6.62zm-25-31.83a.25.25 0 0 0 -.25.25v25a.25.25 0 0 0 .25.25h25a.25.25 0 0 0 .25-.25v-25a.25.25 0 0 0 -.25-.25z"/><rect fill="#bdbdbd" height="31.83" rx="1.08" width="31.83" x="111.92" y="155.85"/><path d="m140.31 190.86h-25a6.63 6.63 0 0 1 -6.62-6.62v-25a6.62 6.62 0 0 1 6.62-6.61h25a6.62 6.62 0 0 1 6.62 6.61v25a6.63 6.63 0 0 1 -6.62 6.62zm-25-31.83a.25.25 0 0 0 -.25.25v25a.25.25 0 0 0 .25.25h25a.25.25 0 0 0 .25-.25v-25a.25.25 0 0 0 -.25-.25z"/><rect fill="#ffa726" height="39.79" rx="1.08" width="39.79" x="152.24" y="64.34"/><path d="m188.59 107.31h-32.92a6.62 6.62 0 0 1 -6.61-6.61v-32.92a6.63 6.63 0 0 1 6.61-6.62h32.92a6.63 6.63 0 0 1 6.62 6.62v32.92a6.63 6.63 0 0 1 -6.62 6.61zm-32.92-39.78a.25.25 0 0 0 -.25.25v32.92a.25.25 0 0 0 .25.24h32.92a.25.25 0 0 0 .25-.24v-32.92a.25.25 0 0 0 -.25-.25z"/><rect fill="#c0ca33" height="39.79" rx="1.08" width="39.79" x="152.24" y="108.11"/><path d="m188.59 151.07h-32.92a6.62 6.62 0 0 1 -6.61-6.61v-32.92a6.63 6.63 0 0 1 6.61-6.62h32.92a6.63 6.63 0 0 1 6.62 6.62v32.92a6.62 6.62 0 0 1 -6.62 6.61zm-32.92-39.78a.25.25 0 0 0 -.25.25v32.92a.25.25 0 0 0 .25.25h32.92a.25.25 0 0 0 .25-.25v-32.92a.25.25 0 0 0 -.25-.25z"/><rect fill="#bdbdbd" height="31.83" rx="1.08" width="31.83" x="156.22" y="155.85"/><path d="m184.61 190.86h-25a6.62 6.62 0 0 1 -6.61-6.62v-25a6.61 6.61 0 0 1 6.61-6.61h25a6.62 6.62 0 0 1 6.62 6.61v25a6.63 6.63 0 0 1 -6.62 6.62zm-25-31.83a.25.25 0 0 0 -.25.25v25a.25.25 0 0 0 .25.25h25a.25.25 0 0 0 .25-.25v-25a.25.25 0 0 0 -.25-.25z"/><circle cx="128" cy="128" fill="#e0e0e0" r="43.76"/><path d="m128 174.94h-.21a46.94 46.94 0 0 1 .21-93.88h.21a46.94 46.94 0 0 1 -.19 93.88zm0-87.52a40.58 40.58 0 0 0 -.17 81.16h.17a40.63 40.63 0 0 0 40.58-40.4 40.58 40.58 0 0 0 -40.4-40.76z"/><path d="m155.05 162.53v-.83a27.06 27.06 0 0 0 -26.93-27.18 27 27 0 0 0 -27.12 26.92v.84a43.8 43.8 0 0 0 54.11.25z" fill="#fafafa"/><path d="m128.18 174.94h-.24a46.34 46.34 0 0 1 -29-10.17l-1.21-1v-2.38a30.27 30.27 0 0 1 30.27-30.06h.14a30.28 30.28 0 0 1 30.1 30.38v2.38l-1.24.91a46.48 46.48 0 0 1 -28.82 9.94zm-24-14.22a40.09 40.09 0 0 0 23.82 7.86h.21a40.07 40.07 0 0 0 23.68-7.64 23.89 23.89 0 0 0 -23.75-23.24h-.14a23.86 23.86 0 0 0 -23.85 23z"/><circle cx="128.16" cy="128" fill="#fafafa" r="17.46"/><path d="m128.16 148.64h-.1a20.64 20.64 0 1 1 .19-41.28 20.64 20.64 0 0 1 20.55 20.74 20.66 20.66 0 0 1 -20.64 20.54zm0-34.92a14.28 14.28 0 0 0 -.06 28.56h.07a14.28 14.28 0 0 0 .06-28.56z"/><path d="m0 0h256v256h-256z" fill="none"/></svg>