<svg viewBox="0 0 256 256" xmlns="http://www.w3.org/2000/svg"><rect fill="#00897b" height="155.04" rx="11.57" width="107.91" x="74.05" y="50.48"/><path d="m169.49 208.7h-83a15.67 15.67 0 0 1 -15.65-15.65v-130.05a15.67 15.67 0 0 1 15.67-15.7h83a15.67 15.67 0 0 1 15.63 15.7v130.1a15.67 15.67 0 0 1 -15.65 15.6zm-83-155a9.29 9.29 0 0 0 -9.26 9.3v130.1a9.29 9.29 0 0 0 9.28 9.28h83a9.29 9.29 0 0 0 9.28-9.28v-130.1a9.29 9.29 0 0 0 -9.28-9.28z"/><path d="m104.13 132.59a36.21 36.21 0 0 0 47.74 0v-3.36a23.87 23.87 0 0 0 -23.87-23.87 23.87 23.87 0 0 0 -23.87 23.87z" fill="#fafafa"/><path d="m128 111.72a17.54 17.54 0 0 1 17.51 17.51v.31a29.86 29.86 0 0 1 -35 0v-.31a17.53 17.53 0 0 1 17.49-17.51m0-6.36a23.87 23.87 0 0 0 -23.87 23.87v3.36a36.21 36.21 0 0 0 47.74 0v-3.36a23.87 23.87 0 0 0 -23.87-23.87z"/><circle cx="128" cy="100.41" fill="#fafafa" r="17.82"/><path d="m128 89a11.45 11.45 0 1 1 -11.45 11.45 11.46 11.46 0 0 1 11.45-11.45m0-6.37a17.82 17.82 0 1 0 17.82 17.82 17.82 17.82 0 0 0 -17.82-17.85z"/><path d="m113.62 68.51h28.76" fill="#d32f2f"/><path d="m113.62 65.32h28.75v6.37h-28.75z"/><path d="m145.81 169.57h-35.62v-6.37h27.79l-7.33-7.12 4.44-4.57 12.94 12.59z"/><path d="m120.91 190.95-12.94-12.59 2.22-5.47h35.62v6.37h-27.79l7.33 7.12z"/><path d="m0 0h256v256h-256z" fill="none"/></svg>