<svg viewBox="0 0 256 256" xmlns="http://www.w3.org/2000/svg"><rect fill="#fafafa" height="106" rx="14.25" width="164.35" x="45.83" y="75"/><path d="m197.46 184.18h-138.91a15.92 15.92 0 0 1 -15.91-15.9v-80.56a15.92 15.92 0 0 1 15.91-15.9h138.91a15.91 15.91 0 0 1 15.9 15.9v80.56a15.91 15.91 0 0 1 -15.9 15.9zm-138.91-106a9.55 9.55 0 0 0 -9.55 9.54v80.56a9.55 9.55 0 0 0 9.54 9.54h138.92a9.54 9.54 0 0 0 9.53-9.54v-80.56a9.54 9.54 0 0 0 -9.53-9.54z"/><rect fill="#ef5350" height="31.47" rx=".33" width="23.46" x="167.34" y="94.97"/><path d="m189.74 129.63h-21.35a4.24 4.24 0 0 1 -4.23-4.24v-29.39a4.24 4.24 0 0 1 4.23-4.24h21.35a4.24 4.24 0 0 1 4.26 4.24v29.36a4.24 4.24 0 0 1 -4.26 4.27zm-19.22-6.37h17.1v-25.11h-17.1z"/><path d="m62.41 135.3h50.36" fill="#ef5350"/><path d="m62.41 132.11h50.35v6.37h-50.35z"/><path d="m62.41 148.44h50.36" fill="#ef5350"/><path d="m62.41 145.25h50.35v6.37h-50.35z"/><path d="m62.41 161.3h72.1" fill="#ef5350"/><path d="m62.41 158.12h72.1v6.37h-72.1z"/><path d="m0 0h256v256h-256z" fill="none"/></svg>