<svg viewBox="0 0 256 256" xmlns="http://www.w3.org/2000/svg"><rect fill="#fafafa" height="146.41" rx="25.04" width="146.41" x="54.8" y="54.8"/><path d="m175.76 204.39h-95.52a28.66 28.66 0 0 1 -28.63-28.63v-95.52a28.67 28.67 0 0 1 28.63-28.63h95.52a28.67 28.67 0 0 1 28.63 28.63v95.52a28.66 28.66 0 0 1 -28.63 28.63zm-95.52-146.39a22.28 22.28 0 0 0 -22.24 22.24v95.52a22.28 22.28 0 0 0 22.24 22.24h95.52a22.28 22.28 0 0 0 22.24-22.24v-95.52a22.29 22.29 0 0 0 -22.24-22.24z"/><rect fill="#e53935" height="48.35" rx="9.31" width="48.35" x="73.8" y="73.37"/><path d="m111.42 124.9h-26.89a13.93 13.93 0 0 1 -13.91-13.9v-26.91a13.92 13.92 0 0 1 13.91-13.9h26.89a13.93 13.93 0 0 1 13.92 13.9v26.91a13.93 13.93 0 0 1 -13.92 13.9zm-26.89-48.35a7.55 7.55 0 0 0 -7.53 7.54v26.91a7.55 7.55 0 0 0 7.54 7.54h26.89a7.55 7.55 0 0 0 7.57-7.54v-26.91a7.55 7.55 0 0 0 -7.55-7.54z"/><rect fill="#e53935" height="48.35" rx="10.3" width="48.35" x="133.85" y="73.37"/><path d="m171.47 124.9h-26.89a13.93 13.93 0 0 1 -13.92-13.9v-26.91a13.92 13.92 0 0 1 13.92-13.9h26.89a13.92 13.92 0 0 1 13.91 13.9v26.91a13.93 13.93 0 0 1 -13.91 13.9zm-26.89-48.35a7.55 7.55 0 0 0 -7.58 7.54v26.91a7.55 7.55 0 0 0 7.55 7.54h26.89a7.55 7.55 0 0 0 7.56-7.54v-26.91a7.55 7.55 0 0 0 -7.54-7.54z"/><rect fill="#e53935" height="48.35" rx="10.4" width="48.35" x="73.8" y="134.28"/><path d="m111.42 185.82h-26.89a13.93 13.93 0 0 1 -13.91-13.92v-26.9a13.93 13.93 0 0 1 13.91-13.9h26.89a13.93 13.93 0 0 1 13.92 13.9v26.9a13.94 13.94 0 0 1 -13.92 13.92zm-26.89-48.35a7.55 7.55 0 0 0 -7.53 7.53v26.9a7.55 7.55 0 0 0 7.54 7.55h26.89a7.55 7.55 0 0 0 7.57-7.55v-26.9a7.55 7.55 0 0 0 -7.55-7.54z"/><rect fill="#e53935" height="48.35" rx="10.85" width="48.35" x="133.85" y="134.28"/><path d="m171.47 185.82h-26.89a13.93 13.93 0 0 1 -13.92-13.92v-26.9a13.93 13.93 0 0 1 13.92-13.91h26.89a13.93 13.93 0 0 1 13.91 13.91v26.9a13.93 13.93 0 0 1 -13.91 13.92zm-26.89-48.35a7.55 7.55 0 0 0 -7.58 7.53v26.9a7.55 7.55 0 0 0 7.55 7.55h26.89a7.55 7.55 0 0 0 7.56-7.55v-26.9a7.55 7.55 0 0 0 -7.54-7.54z"/><circle cx="183.05" cy="187.28" fill="#26a69a" r="35.01"/><path d="m183.05 225.47a38.2 38.2 0 1 1 38.19-38.2 38.23 38.23 0 0 1 -38.19 38.2zm0-70a31.83 31.83 0 1 0 31.83 31.82 31.87 31.87 0 0 0 -31.83-31.84z"/><g fill="#fff"><path d="m165.48 187.28h35.14"/><path d="m165.48 184.09h35.15v6.37h-35.15z"/><path d="m183.05 204.85v-35.15"/><path d="m179.87 169.7h6.37v35.14h-6.37z"/></g><path d="m0 0h256v256h-256z" fill="none"/></svg>