<svg enable-background="new 0 0 256 256" viewBox="0 0 256 256" xmlns="http://www.w3.org/2000/svg"><path d="m0 0h256v256h-256z" fill="none"/><path d="m177.8 82.9v101.4c0 8.3-6.7 15-15 15h-79.5c-8.3 0-15-6.7-15-15v-118.2c0-8.3 6.7-15 15-15h61.7z" fill="#fff"/><path d="m162.8 202.3h-79.5c-9.9 0-18-8.1-18-18v-118.2c0-9.9 8.1-18 18-18h62.9l34.5 33.6v102.7c.1 9.8-8 17.9-17.9 17.9zm-79.5-148.2c-6.6 0-12 5.4-12 12v118.2c0 6.6 5.4 12 12 12h79.5c6.6 0 12-5.4 12-12v-100.1l-31-30.1z"/><path d="m177.8 82.9h-18.4c-7.9 0-14.4-6.4-14.4-14.4v-17.4z" fill="#bdbdbd"/><path d="m177.8 85.9h-18.4c-9.6 0-17.4-7.8-17.4-17.4v-17.4l5.1-2.2 32.8 31.8zm-29.7-27.7v10.3c0 6.3 5.1 11.4 11.4 11.4h11z"/><circle cx="155.8" cy="174.6" fill="#ef9a9a" r="30.3"/><path d="m155.8 207.9c-18.4 0-33.3-14.9-33.3-33.3s14.9-33.3 33.3-33.3 33.3 14.9 33.3 33.3-14.9 33.3-33.3 33.3zm0-60.6c-15 0-27.3 12.2-27.3 27.3 0 15 12.2 27.3 27.3 27.3 15 0 27.3-12.2 27.3-27.3 0-15-12.2-27.3-27.3-27.3z"/><path d="m147.7 135.8 8.3 38.9 31.7-23.9c-9.6-12.8-25.4-18.2-40-15z" fill="#e53935"/><path d="m155.9 177.6c-.4 0-.7-.1-1.1-.2-1-.4-1.7-1.2-1.9-2.2l-8.2-38.8c-.2-.8 0-1.6.4-2.2.4-.7 1.1-1.2 1.9-1.4 16.2-3.4 33.1 2.9 43 16.1 1 1.3.7 3.2-.6 4.2l-31.7 23.9c-.5.4-1.1.6-1.8.6zm-4.7-39.4 6.6 31.2 25.5-19.2c-8-9-20.1-13.5-32.1-12z"/><path d="m94.3 100.7-8.9-11.2 4.7-3.7 5.1 6.4 15.6-13.2 3.9 4.6z"/><path d="m94.3 127.1-8.9-11.2 4.7-3.7 5.1 6.4 15.6-13.2 3.9 4.6z"/><path d="m112.3 160.4h-24.1v-24.1h24.1zm-18.1-6h12.1v-12.1h-12.1z"/></svg>