<svg viewBox="0 0 256 256" xmlns="http://www.w3.org/2000/svg"><rect fill="#757575" height="91.99" rx="8.88" width="133.68" x="61.16" y="102.47"/><path d="m185.4 197.63h-114.8a12.63 12.63 0 0 1 -12.6-12.63v-73.1a12.64 12.64 0 0 1 12.6-12.62h114.8a12.64 12.64 0 0 1 12.6 12.63v73.09a12.63 12.63 0 0 1 -12.6 12.63zm-114.8-92a6.27 6.27 0 0 0 -6.26 6.26v73.11a6.27 6.27 0 0 0 6.26 6.26h114.8a6.27 6.27 0 0 0 6.26-6.26v-73.1a6.27 6.27 0 0 0 -6.26-6.26z"/><path d="m85.69 48.25h84.61a8.62 8.62 0 0 1 8.62 8.62v45.6a0 0 0 0 1 0 0h-101.84a0 0 0 0 1 0 0v-45.6a8.62 8.62 0 0 1 8.61-8.62z" fill="#fafafa"/><path d="m182.11 105.65h-108.22v-48.23a12.37 12.37 0 0 1 12.36-12.35h83.5a12.37 12.37 0 0 1 12.36 12.35zm-101.85-6.37h95.48v-41.86a6 6 0 0 0 -6-6h-83.49a6 6 0 0 0 -6 6z"/><rect fill="#212121" height="60.94" rx="3.09" width="101.85" x="77.08" y="117.92"/><path d="m175.54 182h-95.08a6.58 6.58 0 0 1 -6.57-6.57v-54.13a6.58 6.58 0 0 1 6.57-6.57h95.08a6.58 6.58 0 0 1 6.57 6.57v54.17a6.58 6.58 0 0 1 -6.57 6.53zm-95.08-60.9-.2 54.37 95.28.2a.2.2 0 0 0 .2-.2v-54.17z"/><path d="m110.85 66.06h53.05" fill="#212121"/><path d="m110.85 62.88h53.06v6.37h-53.06z"/><path d="m92.1 78.79h71.8" fill="#212121"/><path d="m92.1 75.61h71.81v6.37h-71.81z"/><path d="m92.1 91.52h71.8" fill="#212121"/><path d="m92.1 88.34h71.81v6.37h-71.81z"/><path d="m92.1 129.72h71.8" fill="#212121"/><path d="m92.1 126.53h71.81v6.37h-71.81z" fill="#43a047"/><path d="m92.1 142.45h71.8" fill="#212121"/><path d="m92.1 139.27h71.81v6.37h-71.81z" fill="#43a047"/><path d="m92.1 155.18h71.8" fill="#212121"/><path d="m92.1 152h71.81v6.37h-71.81z" fill="#43a047"/><path d="m92.1 167.91h47.39" fill="#212121"/><path d="m92.1 164.73h47.4v6.37h-47.4z" fill="#43a047"/><path d="m97.67 194.45h60.65v13.3h-60.65z" fill="#212121"/><path d="m161.51 210.93h-67v-19.66h67zm-60.65-6.36h54.28v-6.94h-54.28z"/><path d="m0 0h256v256h-256z" fill="none"/></svg>