<svg viewBox="0 0 256 256" xmlns="http://www.w3.org/2000/svg"><rect fill="#fafafa" height="141.9" rx="11.36" width="111.4" x="72.3" y="57.05"/><path d="m172.24 202.13h-88.48a14.65 14.65 0 0 1 -14.64-14.64v-119a14.66 14.66 0 0 1 14.64-14.62h88.48a14.66 14.66 0 0 1 14.64 14.64v119a14.65 14.65 0 0 1 -14.64 14.62zm-88.48-141.9a8.3 8.3 0 0 0 -8.28 8.28v119a8.3 8.3 0 0 0 8.28 8.28h88.48a8.3 8.3 0 0 0 8.28-8.28v-119a8.3 8.3 0 0 0 -8.28-8.28z"/><path d="m88.84 75.04h33.26v6.37h-33.26z"/><path d="m131.61 78.22h19.26" fill="#00acc1"/><path d="m128.43 75.04h25.62v6.37h-25.62z" fill="#43a047"/><path d="m88.84 88.98h17.86v6.37h-17.86z" fill="#039be5"/><path d="m113.17 88.98h54.19v6.37h-54.19z"/><path d="m88.74 102.93h78.52v6.37h-78.52z"/><path d="m88.74 116.88h78.52v6.37h-78.52z"/><path d="m88.74 130.82h78.52v6.37h-78.52z"/><path d="m88.74 144.77h78.52v6.37h-78.52z"/><path d="m88.74 158.72h42.44v6.37h-42.44z"/><path d="m145.39 189.18-9.61-11.34 4.85-4.12 5.42 6.39 14.54-12.83 4.21 4.77z"/><path d="m0 0h256v256h-256z" fill="none"/></svg>