<svg viewBox="0 0 256 256" xmlns="http://www.w3.org/2000/svg"><path d="m72.3 144.18c0-13.58 24.94-24.58 55.7-24.58s55.7 11 55.7 24.58v25.82c0 13.12-24.94 23.75-55.7 23.75s-55.7-10.62-55.7-23.75z" fill="#fafafa"/><path d="m128 196.94c-33 0-58.88-11.83-58.88-26.93v-25.83c0-15.57 25.86-27.77 58.88-27.77s58.88 12.2 58.88 27.77v25.82c0 15.11-25.88 26.94-58.88 26.94zm0-74.16c-30.95 0-52.52 11.27-52.52 21.4v25.82c0 9.73 21.57 20.57 52.52 20.57s52.52-10.84 52.52-20.57v-25.82c0-10.13-21.52-21.4-52.52-21.4z"/><path d="m167.79 115.13v23.58c0 9.37-17.82 17-39.79 17s-39.79-7.59-39.79-17v-58.91c0-9.7 17.82-17.56 39.79-17.56s39.79 7.86 39.79 17.56z" fill="#e53935"/><path d="m128 158.86c-24.5 0-43-8.66-43-20.15v-58.91c0-11.8 18.5-20.74 43-20.74s43 8.94 43 20.74v58.91c0 11.49-18.5 20.15-43 20.15zm0-93.44c-21.57 0-36.6 7.58-36.6 14.38v58.91c0 6.51 15.65 13.78 36.6 13.78s36.6-7.27 36.6-13.78v-58.91c0-6.8-15.03-14.38-36.6-14.38z"/><ellipse cx="128.16" cy="108.96" fill="#f57c00" rx="10.3" ry="33.47"/><path d="m128.17 145.61c-9.27 0-13.49-19-13.49-36.65s4.22-36.66 13.49-36.66 13.48 19 13.48 36.66-4.22 36.65-13.48 36.65zm0-66.94c-1.66 0-7.12 9.44-7.12 30.29s5.46 30.29 7.12 30.29 7.11-9.45 7.11-30.29-5.46-30.29-7.11-30.29z"/><ellipse cx="128" cy="79.8" fill="#ef5350" rx="39.79" ry="17.56"/><path d="m128 100.54c-24.5 0-43-8.92-43-20.74s18.47-20.74 43-20.74 43 8.94 43 20.74-18.5 20.74-43 20.74zm0-35.12c-21.57 0-36.6 7.58-36.6 14.38s15 14.37 36.6 14.37 36.6-7.57 36.6-14.37-15.03-14.38-36.6-14.38z"/><path d="m0 0h256v256h-256z" fill="none"/></svg>