<svg viewBox="0 0 256 256" xmlns="http://www.w3.org/2000/svg"><path d="m0 0h256v256h-256z" fill="none"/><rect fill="#fafafa" height="149.59" rx="11.81" width="112.68" x="71.66" y="56.23"/><path d="m171.23 209.08h-86.67a16.2 16.2 0 0 1 -16.18-16.18v-123.58a16.2 16.2 0 0 1 16.18-16.19h86.67a16.21 16.21 0 0 1 16.19 16.19v123.58a16.21 16.21 0 0 1 -16.19 16.18zm-86.67-149.59a9.84 9.84 0 0 0 -9.82 9.83v123.58a9.84 9.84 0 0 0 9.82 9.82h86.67a9.83 9.83 0 0 0 9.82-9.82v-123.58a9.83 9.83 0 0 0 -9.82-9.83z" transform="translate(.1 -.08)"/><path d="m97.96 47.84h60.08v21.46h-60.08z" fill="#ef5350"/><path d="m161.12 72.56h-66.45v-27.82h66.45zm-60.12-6.36h53.71v-15.09h-53.71z" transform="translate(.1 -.08)"/><path d="m163.76 130.28h-71.27v-43.81h6.36v37.44h64.91z"/><path d="m108.47 114.61-5-3.93 10.95-13.94 14.72 6.33 24.53-21.16 4.16 4.82-27.54 23.76-13.89-5.97z"/><path d="m92.24 140.5h57.22v6.37h-57.22z"/><path d="m92.24 153.81h40.62v6.37h-40.62z"/><circle cx="183.12" cy="191.01" fill="#66bb6a" r="35.01"/><path d="m183 229.28a38.2 38.2 0 1 1 38.19-38.19 38.23 38.23 0 0 1 -38.19 38.19zm0-70a31.83 31.83 0 1 0 31.83 31.83 31.87 31.87 0 0 0 -31.83-31.85z" transform="translate(.1 -.08)"/><path d="m178.93 205.93-12.67-12.67 4.5-4.5 8.17 8.17 18.59-18.59 4.51 4.5z" fill="#fff"/></svg>