<svg viewBox="0 0 256 256" xmlns="http://www.w3.org/2000/svg"><path d="m55 61.39h146a14.5 14.5 0 0 1 14.5 14.5v93.61a9.65 9.65 0 0 1 -9.65 9.65h-155.73a9.65 9.65 0 0 1 -9.65-9.65v-93.61a14.5 14.5 0 0 1 14.53-14.5z" fill="#00695c"/><path d="m219 182.34h-181.42v-105.5a18.65 18.65 0 0 1 18.63-18.63h144.16a18.65 18.65 0 0 1 18.63 18.63zm-175-6.34h168.63v-99.16a12.28 12.28 0 0 0 -12.26-12.27h-144.16a12.28 12.28 0 0 0 -12.21 12.27z" transform="translate(-.29)"/><path d="m34.45 179.16h187.11v15.45h-187.11z" fill="#fafafa"/><path d="m225 197.79h-193.45v-21.79h193.45zm-187.08-6.36h180.74v-9.09h-180.74z" transform="translate(-.29)"/><path d="m163.23 163.71h35a1.79 1.79 0 0 1 1.79 1.79v13.66a0 0 0 0 1 0 0h-38.57a0 0 0 0 1 0 0v-13.66a1.79 1.79 0 0 1 1.78-1.79z" fill="#ffb300"/><path d="m203.54 182.34h-45v-12.94a8.87 8.87 0 0 1 8.86-8.87h27.26a8.87 8.87 0 0 1 8.86 8.87zm-38.62-6.34h32.26v-6.6a2.51 2.51 0 0 0 -2.5-2.51h-27.26a2.51 2.51 0 0 0 -2.5 2.51z" transform="translate(-.29)"/><path d="m84.36 149.1-4.91-4a145.35 145.35 0 0 1 60.4-43.45 4.7 4.7 0 0 1 3.79 0 4.48 4.48 0 0 1 2.36 4.35c0 4.55-1.84 8.57-3.58 12.46-1.53 3.4-3 6.64-3 9.78l43.85-21.52 2.8 5.72-44.07 21.67c-4.31 2.12-6.61.24-7.4-.66a5.67 5.67 0 0 1 -1.28-3.06c-.77-5.35 1.33-10 3.36-14.54a38.1 38.1 0 0 0 2.69-7.19 139 139 0 0 0 -55.01 40.44z" fill="#fff" transform="translate(-.29)"/><path d="m0 0h256v256h-256z" fill="none"/></svg>