<svg viewBox="0 0 256 256" xmlns="http://www.w3.org/2000/svg"><path d="m172.56 169.07h6.37v38.77h-6.37z"/><path d="m80.26 169.07v-101.79a15.94 15.94 0 0 1 15.93-15.94h63.62a15.94 15.94 0 0 1 15.93 15.94v101.79" fill="#fafafa"/><path d="m178.92 169.07h-6.36v-101.79a12.76 12.76 0 0 0 -12.75-12.75h-63.62a12.76 12.76 0 0 0 -12.75 12.75v101.79h-6.36v-101.79a19.14 19.14 0 0 1 19.11-19.12h63.62a19.14 19.14 0 0 1 19.11 19.12z"/><path d="m77.08 169.07h6.37v38.77h-6.37z"/><rect fill="#f4511e" height="76.39" rx="4.52" width="28.75" x="65.88" y="108.64"/><path d="m80.26 188.21a17.58 17.58 0 0 1 -17.56-17.56v-47.65a17.56 17.56 0 1 1 35.12 0v47.64a17.58 17.58 0 0 1 -17.56 17.57zm0-76.39a11.21 11.21 0 0 0 -11.2 11.18v47.64a11.2 11.2 0 0 0 22.39 0v-47.64a11.2 11.2 0 0 0 -11.19-11.18z"/><rect fill="#f4511e" height="76.39" rx="4.52" width="28.75" x="161.37" y="108.64"/><path d="m175.74 188.21a17.58 17.58 0 0 1 -17.56-17.56v-47.65a17.56 17.56 0 1 1 35.12 0v47.64a17.58 17.58 0 0 1 -17.56 17.57zm0-76.39a11.2 11.2 0 0 0 -11.19 11.18v47.64a11.2 11.2 0 0 0 22.39 0v-47.64a11.21 11.21 0 0 0 -11.2-11.18z"/><path d="m118.31 108.53h24.06a0 0 0 0 1 0 0v124.23a0 0 0 0 1 0 0h-24.06a4.69 4.69 0 0 1 -4.69-4.69v-114.85a4.69 4.69 0 0 1 4.69-4.69z" fill="#f4511e" transform="matrix(0 -1 1 0 -42.65 298.65)"/><path d="m175.19 188.21h-94.38a18.13 18.13 0 0 1 -18.11-18.12v-17h130.6v17a18.13 18.13 0 0 1 -18.11 18.12zm-106.13-28.76v10.64a11.76 11.76 0 0 0 11.75 11.75h94.38a11.76 11.76 0 0 0 11.75-11.75v-10.64z"/><path d="m0 0h256v256h-256z" fill="none"/></svg>