<svg viewBox="0 0 256 256" xmlns="http://www.w3.org/2000/svg"><rect fill="#212121" height="91.99" rx="7.89" width="133.68" x="61.16" y="102.47"/><path d="m185.4 197.64h-114.8a12.64 12.64 0 0 1 -12.6-12.64v-73.1a12.64 12.64 0 0 1 12.6-12.62h114.8a12.64 12.64 0 0 1 12.6 12.62v73.1a12.64 12.64 0 0 1 -12.6 12.64zm-114.8-92a6.25 6.25 0 0 0 -6.25 6.25v73.11a6.26 6.26 0 0 0 6.25 6.26h114.8a6.27 6.27 0 0 0 6.26-6.26v-73.1a6.26 6.26 0 0 0 -6.26-6.25z"/><path d="m85.06 48.25h85.88a8 8 0 0 1 8 8v46.23a0 0 0 0 1 0 0h-101.86a0 0 0 0 1 0 0v-46.25a8 8 0 0 1 7.98-7.98z" fill="#fafafa"/><path d="m182.11 105.65h-108.22v-48.23a12.37 12.37 0 0 1 12.36-12.35h83.5a12.37 12.37 0 0 1 12.36 12.35zm-101.85-6.37h95.48v-41.86a6 6 0 0 0 -6-6h-83.49a6 6 0 0 0 -6 6z"/><path d="m110.85 66.06h53.05" fill="#212121"/><path d="m110.85 62.88h53.06v6.37h-53.06z"/><path d="m92.1 78.79h71.8" fill="#212121"/><path d="m92.1 75.61h71.81v6.37h-71.81z"/><path d="m92.1 91.52h71.8" fill="#212121"/><path d="m92.1 88.34h71.81v6.37h-71.81z"/><path d="m92.1 129.72h71.8" fill="#212121"/><path d="m92.1 126.53h71.81v6.37h-71.81z" fill="#43a047"/><path d="m92.1 142.45h71.8" fill="#212121"/><path d="m92.1 139.27h71.81v6.37h-71.81z" fill="#43a047"/><path d="m92.1 155.18h71.8" fill="#212121"/><path d="m92.1 152h71.81v6.37h-71.81z" fill="#43a047"/><path d="m92.1 167.91h47.39" fill="#212121"/><path d="m92.1 164.73h47.4v6.37h-47.4z" fill="#43a047"/><path d="m97.67 194.45h60.65v13.3h-60.65z" fill="#bdbdbd"/><path d="m161.51 210.93h-67v-19.66h67zm-60.65-6.36h54.28v-6.93h-54.28z"/><path d="m92.1 116.99h71.8" fill="#212121"/><path d="m92.1 113.8h71.81v6.37h-71.81z" fill="#43a047"/><path d="m61.16 182.27h133.68a0 0 0 0 1 0 0v2.79a9.4 9.4 0 0 1 -9.4 9.4h-114.88a9.4 9.4 0 0 1 -9.4-9.4v-2.79a0 0 0 0 1 0 0z" fill="#bdbdbd"/><path d="m185.4 197.64h-114.8a12.64 12.64 0 0 1 -12.6-12.64v-5.92h140v5.92a12.64 12.64 0 0 1 -12.6 12.64zm-121-12.19a6.27 6.27 0 0 0 6.24 5.82h114.76a6.27 6.27 0 0 0 6.24-5.82z"/><path d="m0 0h256v256h-256z" fill="none"/></svg>