<svg viewBox="0 0 256 256" xmlns="http://www.w3.org/2000/svg"><rect fill="#fafafa" height="117.76" rx="4.85" width="175.05" x="40.47" y="69.12"/><path d="m200.08 190.06h-144.16a18.65 18.65 0 0 1 -18.63-18.63v-86.86a18.65 18.65 0 0 1 18.63-18.63h144.16a18.65 18.65 0 0 1 18.63 18.63v86.86a18.65 18.65 0 0 1 -18.63 18.63zm-144.16-117.76a12.28 12.28 0 0 0 -12.26 12.27v86.86a12.28 12.28 0 0 0 12.26 12.27h144.16a12.28 12.28 0 0 0 12.26-12.27v-86.86a12.28 12.28 0 0 0 -12.26-12.27z"/><path d="m40.47 154.36h175.06a0 0 0 0 1 0 0v27a5.54 5.54 0 0 1 -5.54 5.54h-163.99a5.54 5.54 0 0 1 -5.54-5.54v-27a0 0 0 0 1 0 0z"/><circle cx="197.23" cy="168.58" fill="#ffa726" r="35.01"/><path d="m197.23 206.77a38.19 38.19 0 1 1 38.19-38.19 38.23 38.23 0 0 1 -38.19 38.19zm0-70a31.83 31.83 0 1 0 31.82 31.83 31.87 31.87 0 0 0 -31.82-31.85z"/><g fill="#fff"><path d="m197.23 174.87-14.01-19.03 5.13-3.78 8.88 12.07 8.88-12.07 5.13 3.78z"/><path d="m182.9 164.26h28.65v6.37h-28.65z"/><path d="m182.9 172.4h28.65v6.37h-28.65z"/><path d="m194.04 169.5h6.37v14.63h-6.37z"/></g><path d="m0 0h256v256h-256z" fill="none"/></svg>