<svg viewBox="0 0 256 256" xmlns="http://www.w3.org/2000/svg"><path d="m61.16 61.16h133.68v133.68h-133.68z" fill="#b71c1c"/><path d="m198 198h-140v-140h140zm-133.66-6.34h127.31v-127.32h-127.31z"/><path d="m61.16 194.84a133.68 133.68 0 0 0 133.68-133.68h-133.68z" fill="#d32f2f"/><path d="m61.16 198h-3.16v-140h140v3.18c0 75.45-61.38 136.82-136.84 136.82zm3.18-133.66v127.28a130.66 130.66 0 0 0 127.28-127.28z"/><path d="m61.16 159.83a98.68 98.68 0 0 0 98.67-98.67h-98.67z" fill="#ef5350"/><path d="m61.16 163h-3.16v-105h105v3.18a102 102 0 0 1 -101.84 101.82zm3.18-98.67v92.25a95.6 95.6 0 0 0 92.25-92.25z"/><path d="m128 116a27.05 27.05 0 0 1 27.05 27.05v20.95a0 0 0 0 1 0 0h-54.1a0 0 0 0 1 0 0v-20.9a27.05 27.05 0 0 1 27.05-27.1z" fill="#fafafa"/><path d="m158.24 167.15h-60.48v-24.08a30.24 30.24 0 0 1 60.48 0zm-54.11-6.36h47.74v-17.72a23.87 23.87 0 1 0 -47.74 0z"/><circle cx="128" cy="109.49" fill="#fafafa" r="17.46"/><path d="m128 130.14a20.65 20.65 0 1 1 20.64-20.65 20.68 20.68 0 0 1 -20.64 20.65zm0-34.93a14.28 14.28 0 1 0 14.28 14.28 14.3 14.3 0 0 0 -14.28-14.28z"/><path d="m0 0h256v256h-256z" fill="none"/></svg>