<svg viewBox="0 0 256 256" xmlns="http://www.w3.org/2000/svg"><rect fill="#fafafa" height="133.68" rx="10.93" width="133.68" x="61.16" y="61.16"/><path d="m183 198h-110a15 15 0 0 1 -15-15v-110a15 15 0 0 1 15-15h110a15 15 0 0 1 15 15v110a15 15 0 0 1 -15 15zm-110-133.66a8.67 8.67 0 0 0 -8.66 8.66v110a8.67 8.67 0 0 0 8.66 8.66h110a8.66 8.66 0 0 0 8.65-8.65v-110.01a8.66 8.66 0 0 0 -8.65-8.66z"/><path d="m77.08 77.08h101.85v101.85h-101.85z" fill="#29b6f6"/><path d="m182.11 182.11h-108.22v-108.22h108.22zm-101.85-6.37h95.48v-95.48h-95.48z"/><path d="m161.69 118.48v60.45h-29.61v-60.45" fill="#f5f5f5"/><path d="m164.87 182.11h-35.98v-63.63h6.37v57.26h23.25v-57.26h6.36z"/><path d="m178.93 156.17v22.76h-33.12v-22.76" fill="#fafafa"/><path d="m182.11 182.11h-39.48v-25.94h6.36v19.57h26.75v-19.57h6.37z"/><path d="m110.19 128v50.93h-33.11v-50.93" fill="#e0e0e0"/><path d="m113.37 182.11h-39.48v-54.11h6.37v47.74h26.75v-47.74h6.36z"/><path d="m132.08 143.78v35.15h-31.62v-35.15" fill="#eee"/><path d="m135.26 182.11h-37.98v-38.33h6.37v31.96h25.24v-31.96h6.37z"/><path d="m172.06 118.48c-16.52-4.62-25.18-21.48-25.18-21.48s-8.65 16.84-25.17 21.46" fill="#f44336"/><path d="m171.2 121.54c-12.22-3.41-20.34-12.79-24.32-18.49-4 5.7-12.1 15.08-24.32 18.49l-1.71-6.13c15-4.19 23.12-19.69 23.2-19.84l2.82-5.49 2.84 5.48c.08.16 8.27 15.68 23.21 19.85z"/><path d="m140.36 143.78c-16.53-4.61-25.18-21.45-25.18-21.45s-8.65 16.84-25.18 21.45" fill="#f44336"/><path d="m139.5 146.85c-12.22-3.41-20.35-12.8-24.32-18.5-4 5.7-12.1 15.09-24.32 18.5l-1.71-6.13c14.93-4.17 23.12-19.7 23.2-19.85l2.83-5.46 2.83 5.46c.08.15 8.27 15.68 23.2 19.85z"/><path d="m187.54 156.17c-16.52-4.62-25.17-21.46-25.17-21.46s-8.66 16.84-25.18 21.46" fill="#f44336"/><path d="m186.69 159.23c-12.22-3.41-20.35-12.79-24.32-18.49-4 5.7-12.1 15.08-24.32 18.49l-1.71-6.13c15-4.19 23.12-19.69 23.2-19.84l2.82-5.49 2.84 5.48c.08.16 8.26 15.68 23.2 19.85z"/><path d="m118.81 128c-16.52-4.61-25.18-21.46-25.18-21.46s-8.63 16.85-25.17 21.46" fill="#f44336"/><path d="m118 131.06c-12.22-3.41-20.34-12.79-24.32-18.49-4 5.7-12.1 15.08-24.32 18.49l-1.71-6.12c14.94-4.18 23.12-19.7 23.2-19.85l2.83-5.46 2.83 5.46c.08.15 8.27 15.67 23.2 19.85z"/><path d="m0 0h256v256h-256z" fill="none"/></svg>