<svg viewBox="0 0 256 256" xmlns="http://www.w3.org/2000/svg"><path d="m118.34 128h19.32" fill="#bdbdbd"/><path d="m118.34 124.82h19.31v6.37h-19.31z"/><path d="m118.34 128h19.32" fill="#bdbdbd"/><path d="m118.34 124.82h19.31v6.37h-19.31z"/><rect fill="#bdbdbd" height="138.38" rx="2.68" transform="matrix(.87 .5 -.5 .87 81.65 -48.27)" width="97.56" x="82.12" y="59.05"/><path d="m135.41 212.62a11.66 11.66 0 0 1 -5.83-1.58l-69.73-40.26a11.67 11.67 0 0 1 -4.28-16l60.67-105.07a11.69 11.69 0 0 1 16-4.28l69.76 40.26a11.71 11.71 0 0 1 4.29 16l-60.73 105.07a11.59 11.59 0 0 1 -7.1 5.45 11.79 11.79 0 0 1 -3.05.41zm-9-162.4a5.06 5.06 0 0 0 -1.39.19 5.29 5.29 0 0 0 -3.24 2.48l-60.7 105.11a5.32 5.32 0 0 0 2 7.29l69.73 40.26a5.35 5.35 0 0 0 7.29-1.95l60.62-105.11a5.34 5.34 0 0 0 -1.95-7.29l-69.77-40.26a5.39 5.39 0 0 0 -2.62-.72z"/><rect fill="#eee" height="138.38" rx="2.68" transform="matrix(.96592583 .25881905 -.25881905 .96592583 36.06 -25.67)" width="97.56" x="66.75" y="54.93"/><path d="m138.73 204.85a11.71 11.71 0 0 1 -3-.41l-77.82-20.84a11.7 11.7 0 0 1 -8.28-14.33l31.37-117.21a11.7 11.7 0 0 1 14.33-8.27l77.78 20.84a11.71 11.71 0 0 1 8.31 14.37l-31.42 117.17a11.72 11.72 0 0 1 -11.29 8.68zm-46.4-155.09a5.38 5.38 0 0 0 -2.66.71 5.29 5.29 0 0 0 -2.48 3.24l-31.41 117.21a5.34 5.34 0 0 0 3.77 6.53l77.79 20.84a5.33 5.33 0 0 0 6.53-3.77l31.4-117.21a5.32 5.32 0 0 0 -3.77-6.53l-77.78-20.84a5.47 5.47 0 0 0 -1.39-.18z"/><rect fill="#fff" height="138.38" rx="2.68" width="97.56" x="51.38" y="50.81"/><path d="m140.42 192.37h-80.53a11.72 11.72 0 0 1 -11.7-11.7v-121.34a11.72 11.72 0 0 1 11.7-11.71h80.53a11.72 11.72 0 0 1 11.7 11.71v121.34a11.72 11.72 0 0 1 -11.7 11.7zm-80.53-138.37a5.34 5.34 0 0 0 -5.33 5.34v121.33a5.33 5.33 0 0 0 5.33 5.33h80.53a5.33 5.33 0 0 0 5.33-5.33v-121.34a5.34 5.34 0 0 0 -5.33-5.33z"/><path d="m66.68 92.89h38.1v38.1h-38.1z" fill="#bdbdbd"/><path d="m108 134.17h-44.5v-44.46h44.5zm-38.09-6.36h31.69v-31.74h-31.73z"/><path d="m116.83 92.89h19.31" fill="#bdbdbd"/><path d="m116.83 89.71h19.31v6.37h-19.31z"/><path d="m116.83 105.62h19.31" fill="#bdbdbd"/><path d="m116.83 102.44h19.31v6.37h-19.31z"/><path d="m66.68 63.9h66.1v16.31h-66.1z" fill="#bdbdbd"/><path d="m136 83.39h-72.5v-22.68h72.5zm-66.13-6.39h59.73v-9.92h-59.73z"/><path d="m0 0h256v256h-256z" fill="none"/></svg>