<svg viewBox="0 0 256 256" xmlns="http://www.w3.org/2000/svg"><path d="m53.76 55.87h148.48a13.29 13.29 0 0 1 13.29 13.29v96a8.44 8.44 0 0 1 -8.44 8.44h-158.18a8.44 8.44 0 0 1 -8.44-8.44v-96a13.29 13.29 0 0 1 13.29-13.29z" fill="#fafafa"/><path d="m218.71 176.81h-181.42v-105.49a18.66 18.66 0 0 1 18.63-18.64h144.16a18.66 18.66 0 0 1 18.63 18.64zm-175-6.36h168.64v-99.13a12.28 12.28 0 0 0 -12.27-12.27h-144.16a12.28 12.28 0 0 0 -12.26 12.27z"/><path d="m40.47 173.63v26.5" fill="#004d40"/><path d="m37.29 173.63h6.37v26.5h-6.37z"/><path d="m215.53 173.63v26.5" fill="#004d40"/><path d="m212.35 173.63h6.37v26.5h-6.37z"/><path d="m59 75.25h53.29a0 0 0 0 1 0 0v81.11a0 0 0 0 1 0 0h-53.8a0 0 0 0 1 0 0v-80.61a.49.49 0 0 1 .51-.5z" fill="#66bb6a"/><path d="m115.46 159.54h-60.15v-82.72a4.75 4.75 0 0 1 4.75-4.75h55.4zm-53.79-6.36h47.42v-74.75h-47.42z"/><path d="m124.52 75.25h72.48a.49.49 0 0 1 .49.49v39.39a0 0 0 0 1 0 0h-73a0 0 0 0 1 0 0v-39.88a0 0 0 0 1 .03 0z" fill="#ffeb3b"/><path d="m200.7 118.32h-79.36v-46.25h74.6a4.76 4.76 0 0 1 4.76 4.76zm-73-6.36h66.62v-33.53h-66.61z"/><path d="m124.52 127.32h72.99v29.04h-72.99z" fill="#29b6f6"/><path d="m200.7 159.54h-79.36v-35.41h79.36zm-73-6.36h66.62v-22.68h-66.61z"/><path d="m0 0h256v256h-256z" fill="none"/></svg>