<svg viewBox="0 0 254.97 254.97" xmlns="http://www.w3.org/2000/svg"><rect fill="#fafafa" height="117.29" rx="14.16" transform="matrix(.99999194 .00401425 -.00401425 .99999194 .49 -.52)" width="174.35" x="40.34" y="60.86"/><path d="m199.05 181.61-143.57-.61a18.58 18.58 0 0 1 -18.48-18.6l.35-86.52a18.58 18.58 0 0 1 18.65-18.48l143.55.6a18.57 18.57 0 0 1 18.45 18.62l-.35 86.51a18.58 18.58 0 0 1 -18.6 18.48zm-143.05-117.87a12.23 12.23 0 0 0 -12.31 12.17l-.35 86.51a12.23 12.23 0 0 0 12.17 12.27l143.57.58a12.22 12.22 0 0 0 12.26-12.17l.35-86.51a12.23 12.23 0 0 0 -12.16-12.27z"/><path d="m52.35 60.86h150.72a11.81 11.81 0 0 1 11.81 11.81v3.46a7.16 7.16 0 0 1 -7.16 7.16h-160.02a7.16 7.16 0 0 1 -7.16-7.16v-3.46a11.81 11.81 0 0 1 11.81-11.81z" fill="#d32f2f" transform="matrix(.99999194 .00401425 -.00401425 .99999194 .29 -.52)"/><path d="m218 86.83-180.69-.73v-10.85a17.94 17.94 0 0 1 18-17.85l144.88.6a17.94 17.94 0 0 1 17.81 18zm-174.32-7 168 .68v-4.51a11.59 11.59 0 0 0 -11.54-11.62l-144.82-.64a11.59 11.59 0 0 0 -11.63 11.53z"/><path d="m40.42 83.29h174.35v36.21h-174.35z" fill="#e57373" transform="matrix(.99999194 .00401425 -.00401425 .99999194 .41 -.52)"/><path d="m217.85 123-180.69-.73.17-42.55 180.67.77zm-174.32-7 168 .69.12-29.88-168-.68z"/><path d="m157.26 119.63-.23 56.96" fill="#e57373"/><path d="m128.66 144.94h56.96v6.34h-56.96z" transform="matrix(.00401425 -.99999194 .99999194 .00401425 8.4 304.65)"/><path d="m55.04 135.32 89.76.36" fill="#e57373"/><path d="m96.75 90.62h6.34v89.76h-6.34z" transform="matrix(.00401425 -.99999194 .99999194 .00401425 -35.99 234.87)"/><path d="m54.99 148 89.76.36" fill="#e57373"/><path d="m96.7 103.3h6.34v89.76h-6.34z" transform="matrix(.00401425 -.99999194 .99999194 .00401425 -48.72 247.45)"/><path d="m54.94 160.68 58.06.24" fill="#e57373"/><path d="m80.8 131.77h6.34v58.06h-6.34z" transform="matrix(.00401425 -.99999194 .99999194 .00401425 -77.17 244.11)"/><path d="m82.58 178.15h89.33v15.96h-89.33z" fill="#fafafa" transform="matrix(.99999194 .00401425 -.00401425 .99999194 .76 -.52)"/><path d="m175 197.47-95.67-.39.09-22.3 95.67.39zm-89.31-6.7 83 .33v-9.61l-83-.34z"/><path d="m0 0h254.97v254.97h-254.97z" fill="none"/></svg>