<svg viewBox="0 0 256 256" xmlns="http://www.w3.org/2000/svg"><path d="m69.01 78.19h117.98v91.03h-117.98z" fill="#fff"/><path d="m190.17 172.41h-124.34v-97.41h124.34zm-117.98-6.41h111.62v-84.62h-111.62z"/><path d="m69.01 78.49h117.98v26.08h-117.98z" fill="#e53935"/><path d="m190.17 107.75h-124.34v-32.44h124.34zm-118-6.36h111.64v-19.72h-111.62z"/><path d="m91.22 65.64h17.79v25.7h-17.79z" fill="#bdbdbd"/><path d="m112.19 94.52h-24.19v-32.06h24.16zm-17.79-6.36h11.42v-19.34h-11.42z"/><path d="m146.99 65.64h17.79v25.7h-17.79z" fill="#bdbdbd"/><path d="m168 94.52h-24.19v-32.06h24.19zm-17.79-6.36h11.39v-19.34h-11.42z"/><circle cx="172.67" cy="155.27" fill="#2196f3" r="35.01"/><path d="m172.67 193.46a38.2 38.2 0 1 1 38.19-38.19 38.24 38.24 0 0 1 -38.19 38.19zm0-70a31.83 31.83 0 1 0 31.82 31.83 31.87 31.87 0 0 0 -31.82-31.85z"/><path d="m183.3 165.63-13.82-8.59v-22.86h6.37v19.32l10.81 6.73z" fill="#fff"/><path d="m84.83 121.13h41.95v6.37h-41.95z"/><path d="m84.83 134.18h41.95v6.37h-41.95z"/><path d="m84.83 147.22h24.17v6.37h-24.17z"/><path d="m0 0h256v256h-256z" fill="none"/></svg>