<svg viewBox="0 0 256 256" xmlns="http://www.w3.org/2000/svg"><path d="m69.12 103.14h117.76v88.58h-117.76z" fill="#fafafa"/><path d="m190.06 194.9h-124.12v-94.9h124.12zm-117.76-6.36h111.4v-82.22h-111.4z"/><path d="m107.84 103.14h40.31v88.58h-40.31z" fill="#fff"/><path d="m151.34 194.9h-46.68v-94.9h46.68zm-40.34-6.36h34v-82.22h-34z"/><path d="m69.12 76.84h117.76v26.3h-117.76z" fill="#ef5350"/><path d="m190.06 106.32h-124.12v-32.66h124.12zm-117.76-6.32h111.4v-20h-111.4z"/><path d="m186.88 164.53h-117.76a3.18 3.18 0 0 1 -3.18-3.18v-27.85a3.18 3.18 0 0 1 3.18-3.18h117.76a3.18 3.18 0 0 1 3.18 3.18v27.85a3.18 3.18 0 0 1 -3.18 3.18zm-114.58-6.36h111.4v-21.49h-111.4z"/><path d="m91.52 64.28h17.38v25.11h-17.38z" fill="#bdbdbd"/><path d="m112.09 92.58h-23.75v-31.48h23.75zm-17.39-6.37h11v-18.75h-11z"/><path d="m147.1 64.28h17.38v25.11h-17.38z" fill="#bdbdbd"/><path d="m167.66 92.58h-23.75v-31.48h23.75zm-17.38-6.37h11v-18.75h-11z"/><path d="m0 0h256v256h-256z" fill="none"/></svg>