<svg viewBox="0 0 256 256" xmlns="http://www.w3.org/2000/svg"><path d="m67.47 172.93a11.08 11.08 0 0 1 -11.08-11.08v-46.28a10.13 10.13 0 0 1 10.12-10.13h101.15a10.13 10.13 0 0 1 10.12 10.13v46.54z" fill="#bdbdbd"/><path d="m67.62 176.11h-.15a14.28 14.28 0 0 1 -14.27-14.26v-46.28a13.32 13.32 0 0 1 13.31-13.31h101.15a13.32 13.32 0 0 1 13.34 13.31v49.43zm-1.11-67.48a6.94 6.94 0 0 0 -6.94 6.94v46.28a7.92 7.92 0 0 0 7.75 7.9l107.28-10.52v-43.66a6.94 6.94 0 0 0 -6.94-6.94z"/><path d="m78.22 172.93h110.31a11.08 11.08 0 0 0 11.08-11.08v-68.66a10.12 10.12 0 0 0 -10.12-10.12h-101.15a10.12 10.12 0 0 0 -10.12 10.12v68.66a11.08 11.08 0 0 1 -11.08 11.08z" fill="#fafafa"/><path d="m188.53 176.11h-121.4v-6.36a7.91 7.91 0 0 0 7.9-7.9v-68.66a13.32 13.32 0 0 1 13.31-13.3h101.15a13.32 13.32 0 0 1 13.31 13.3v68.66a14.28 14.28 0 0 1 -14.27 14.26zm-109.53-6.36h109.53a7.91 7.91 0 0 0 7.9-7.9v-68.66a7 7 0 0 0 -6.94-6.94h-101.15a7 7 0 0 0 -6.94 6.94v68.66a14.18 14.18 0 0 1 -2.4 7.9z"/><path d="m91.05 96.66h95.15v17.41h-95.15z" fill="#bdbdbd"/><path d="m189.38 117.25h-101.51v-23.77h101.51zm-95.15-6.37h88.77v-11h-88.77z"/><path d="m88.32 127.01h43.13" fill="#bdbdbd"/><path d="m88.31 123.82h43.14v6.37h-43.14z"/><path d="m88.32 138.13h43.13" fill="#bdbdbd"/><path d="m88.31 134.95h43.14v6.37h-43.14z"/><path d="m88.32 149.25h43.13" fill="#bdbdbd"/><path d="m88.31 146.06h43.14v6.37h-43.14z"/><path d="m88.32 148.94h43.13" fill="#bdbdbd"/><path d="m88.31 145.76h43.14v6.37h-43.14z"/><path d="m88.32 160.06h28.76" fill="#bdbdbd"/><path d="m88.31 156.88h28.77v6.37h-28.77z"/><path d="m140.99 127.01h45.2v33.05h-45.2z" fill="#bdbdbd"/><path d="m189.38 163.24h-51.57v-39.42h51.57zm-45.21-6.36h38.83v-26.69h-38.83z"/><path d="m0 0h256v256h-256z" fill="none"/></svg>