<svg viewBox="0 0 256 256" xmlns="http://www.w3.org/2000/svg"><path d="m112.69 122.41h10.41v7.1h-10.41z" fill="#757575" transform="matrix(.03786459 -.99928288 .99928288 .03786459 -12.44 239.01)"/><path d="m124.31 134.6-13.46-.51.63-16.76 13.46.51zm-6.86-6.6h.74l.15-4h-.74z"/><path d="m96.73 110.25h10.41v7.1h-10.41z" fill="#757575" transform="matrix(.95345417 -.30153796 .30153796 .95345417 -29.57 36.03)"/><path d="m96 122.76-4.06-12.85 16-5 4.06 12.79zm3.93-8.69.22.7 3.86-1.22-.22-.71z"/><path d="m102.53 102.84h32.76v10.47h-32.76z" fill="#757575" transform="matrix(.7953677 .60612723 -.60612723 .7953677 89.84 -49.96)"/><path d="m129.37 126.63-31.12-23.72 10.21-13.39 31.12 23.72zm-22.2-24.92 21 16 2.49-3.27-21-16z"/><path d="m111.39 69.15h44.87v38.72h-44.87z" fill="#f0f4c3" transform="matrix(.7953677 .60612723 -.60612723 .7953677 81.03 -63)"/><path d="m140.54 122-40.75-31 27.32-35.86 40.75 31.05zm-31.83-32.29 30.62 23.34 19.61-25.73-30.62-23.32z"/><path d="m127 120.47a14.79 14.79 0 0 1 -22.21-16.93z" fill="#757575"/><path d="m118.78 126.07a17.76 17.76 0 0 1 -10.78-3.65 18.09 18.09 0 0 1 -6.22-19.79l1.32-4.41 29.52 22.51-3.9 2.44a18.75 18.75 0 0 1 -9.94 2.9zm-11.37-16.55a11.42 11.42 0 0 0 13.16 10z"/><path d="m102.78 118.87h10.41v7.1h-10.41z" fill="#757575" transform="matrix(.60612723 -.7953677 .7953677 .60612723 -54.84 134.11)"/><path d="m108.26 133.17-10.72-8.17 10.17-13.34 10.72 8.16zm-1.8-9.37.59.45 2.46-3.21-.59-.45z"/><path d="m141.97 52.48h21.12v22.99h-21.12z" fill="#616161" transform="matrix(.7953677 .60612723 -.60612723 .7953677 69.99 -79.36)"/><path d="m154.56 84-21.86-16.68 17.79-23.32 21.86 16.66zm-12.94-17.89 11.73 8.94 10.08-13.22-11.73-8.94z"/><path d="m158.35 93.34a102.76 102.76 0 0 1 18.37 57.66v56.57h-16.21v-4.65h-65v4.65h-16.23a83.67 83.67 0 0 1 9-20.8h61.42l-.07-35.77a103 103 0 0 0 -7.11-36.89z" fill="#f0f4c3"/><path d="m179.9 210.75h-22.57v-4.65h-58.64v4.65l-20.2-.11-3.11-.82.84-3.11a86.7 86.7 0 0 1 9.35-21.6l.93-1.54h60l-.06-32.57a99.5 99.5 0 0 0 -6.88-35.73l-.66-1.66 19.57-25.68 2.49 3.6a105.78 105.78 0 0 1 18.94 59.47zm-16.2-6.36h9.84v-53.39a99.63 99.63 0 0 0 -15.37-52.17l-12 15.8a105.93 105.93 0 0 1 6.64 36.37l.09 39h-62.79a80.32 80.32 0 0 0 -6.52 14.45h8.74v-4.66h71.37z"/><path d="m104.15 174.19h26.3v12.56h-26.3z" fill="#616161"/><path d="m133.63 189.94h-32.63v-18.94h32.66zm-26.29-6.37h19.93v-6.2h-19.93z"/><path d="m79.34 151h97.38v12.49h-97.38z" fill="#f0f4c3"/><path d="m179.9 166.67h-103.75v-18.86h103.75zm-97.38-6.36h91v-6.13h-91z"/><circle cx="136.59" cy="89.99" fill="#616161" r="8.57"/><path d="m136.59 101.74a11.75 11.75 0 1 1 11.75-11.74 11.76 11.76 0 0 1 -11.75 11.74zm0-17.13a5.39 5.39 0 1 0 5.41 5.39 5.39 5.39 0 0 0 -5.41-5.39z"/><circle cx="152.53" cy="119.32" fill="#616161" r="8.57"/><path d="m152.53 131.07a11.75 11.75 0 1 1 11.74-11.75 11.76 11.76 0 0 1 -11.74 11.75zm0-17.14a5.39 5.39 0 1 0 5.38 5.39 5.4 5.4 0 0 0 -5.38-5.39z"/><circle cx="163.59" cy="186.76" fill="#616161" r="8.57"/><path d="m163.59 198.5a11.75 11.75 0 1 1 11.75-11.74 11.76 11.76 0 0 1 -11.75 11.74zm0-17.13a5.39 5.39 0 1 0 5.38 5.39 5.39 5.39 0 0 0 -5.38-5.39z"/><path d="m0 0h256v256h-256z" fill="none"/></svg>