<svg viewBox="0 0 256 256" xmlns="http://www.w3.org/2000/svg"><path d="m183.54 138.66c0-9.7-17.81-17.56-39.78-17.56s-39.76 7.9-39.76 17.56v21.4c0 9.37 17.81 17 39.79 17s39.78-7.59 39.78-17v-21.4z" fill="#f57f17"/><path d="m143.76 180.21c-24.5 0-43-8.67-43-20.15v-21.4c0-11.83 18.47-20.74 43-20.74s43 8.91 43 20.74v21.4c-.04 11.48-18.51 20.15-43 20.15zm0-55.93c-21.57 0-36.61 7.58-36.61 14.38v21.4c0 6.5 15.66 13.78 36.61 13.78s36.6-7.28 36.6-13.78v-21.4c0-6.8-15.03-14.38-36.6-14.38z"/><ellipse cx="143.76" cy="139.84" fill="#fbc02d" rx="39.79" ry="17.56"/><path d="m143.76 160.58c-24.5 0-43-8.92-43-20.74s18.47-20.74 43-20.74 43 8.92 43 20.74-18.51 20.74-43 20.74zm0-35.12c-21.57 0-36.61 7.58-36.61 14.38s15 14.38 36.61 14.38 36.6-7.58 36.6-14.38-15.03-14.38-36.6-14.38z"/><path d="m183.54 119.92c0-9.7-17.81-17.56-39.78-17.56s-39.76 7.86-39.76 17.56v21.4c0 9.37 17.81 17 39.79 17s39.78-7.59 39.78-17v-21.4z" fill="#f57f17"/><path d="m143.76 161.47c-24.5 0-43-8.66-43-20.15v-21.4c0-11.82 18.47-20.74 43-20.74s43 8.92 43 20.74v21.4c-.04 11.49-18.51 20.15-43 20.15zm0-55.93c-21.57 0-36.61 7.58-36.61 14.38v21.4c0 6.51 15.66 13.78 36.61 13.78s36.6-7.27 36.6-13.78v-21.4c0-6.8-15.03-14.38-36.6-14.38z"/><ellipse cx="143.76" cy="121.1" fill="#fbc02d" rx="39.79" ry="17.56"/><path d="m143.76 141.84c-24.5 0-43-8.92-43-20.74s18.47-20.74 43-20.74 43 8.92 43 20.74-18.51 20.74-43 20.74zm0-35.12c-21.57 0-36.61 7.58-36.61 14.38s15 14.38 36.61 14.38 36.6-7.58 36.6-14.38-15.03-14.38-36.6-14.38z"/><path d="m183.54 100.29c0-9.69-17.81-17.55-39.78-17.55s-39.76 7.86-39.76 17.55v21.41c0 9.36 17.81 17 39.79 17s39.78-7.6 39.78-17v-21.41z" fill="#f57f17"/><path d="m143.76 141.84c-24.5 0-43-8.66-43-20.14v-21.41c0-11.82 18.47-20.74 43-20.74s43 8.92 43 20.74v21.41c-.04 11.48-18.51 20.14-43 20.14zm0-55.92c-21.57 0-36.61 7.57-36.61 14.37v21.41c0 6.5 15.66 13.78 36.61 13.78s36.6-7.28 36.6-13.78v-21.41c0-6.8-15.03-14.37-36.6-14.37z"/><ellipse cx="143.76" cy="101.47" fill="#fbc02d" rx="39.79" ry="17.56"/><path d="m143.76 122.22c-24.5 0-43-8.92-43-20.74s18.47-20.75 43-20.75 43 8.92 43 20.75-18.51 20.74-43 20.74zm0-35.12c-21.57 0-36.61 7.57-36.61 14.38s15 14.37 36.61 14.37 36.6-7.57 36.6-14.37-15.03-14.38-36.6-14.38z"/><path d="m183.54 80.67c0-9.7-17.81-17.56-39.78-17.56s-39.76 7.89-39.76 17.56v21.4c0 9.37 17.81 17 39.79 17s39.78-7.59 39.78-17v-21.4z" fill="#f57f17"/><path d="m143.76 122.22c-24.5 0-43-8.67-43-20.15v-21.4c0-11.82 18.47-20.74 43-20.74s43 8.92 43 20.74v21.4c-.04 11.48-18.51 20.15-43 20.15zm0-55.93c-21.57 0-36.61 7.58-36.61 14.38v21.4c0 6.5 15.66 13.78 36.61 13.78s36.6-7.28 36.6-13.78v-21.4c0-6.8-15.03-14.38-36.6-14.38z"/><ellipse cx="143.76" cy="81.85" fill="#fbc02d" rx="39.79" ry="17.56"/><path d="m143.76 102.59c-24.5 0-43-8.92-43-20.74s18.47-20.74 43-20.74 43 8.92 43 20.74-18.51 20.74-43 20.74zm0-35.12c-21.57 0-36.61 7.58-36.61 14.38s15 14.38 36.61 14.38 36.6-7.58 36.6-14.38-15.03-14.38-36.6-14.38z"/><path d="m183.54 61.93c0-9.7-17.81-17.56-39.78-17.56s-39.76 7.86-39.76 17.56v21.4c0 9.37 17.81 17 39.79 17s39.78-7.59 39.78-17v-21.4z" fill="#f57f17"/><path d="m143.76 103.48c-24.5 0-43-8.66-43-20.15v-21.4c0-11.82 18.47-20.74 43-20.74s43 8.92 43 20.74v21.4c-.04 11.49-18.51 20.15-43 20.15zm0-55.93c-21.57 0-36.61 7.58-36.61 14.38v21.4c0 6.51 15.66 13.78 36.61 13.78s36.6-7.27 36.6-13.78v-21.4c0-6.8-15.03-14.38-36.6-14.38z"/><ellipse cx="143.76" cy="63.11" fill="#fbc02d" rx="39.79" ry="17.56"/><path d="m143.76 83.85c-24.5 0-43-8.92-43-20.74s18.47-20.74 43-20.74 43 8.92 43 20.74-18.51 20.74-43 20.74zm0-35.12c-21.57 0-36.61 7.58-36.61 14.38s15 14.38 36.61 14.38 36.6-7.58 36.6-14.38-15.03-14.38-36.6-14.38z"/><path d="m131.08 160.49c0-9.69-17.81-17.55-39.78-17.55s-39.79 7.86-39.79 17.55v21.41c0 9.36 17.81 17 39.79 17s39.78-7.6 39.78-17z" fill="#f57f17"/><path d="m91.3 202c-24.5 0-43-8.66-43-20.14v-21.37c0-11.82 18.47-20.74 43-20.74s43 8.92 43 20.74v21.41c-.04 11.48-18.51 20.1-43 20.1zm0-55.92c-21.57 0-36.61 7.57-36.61 14.37v21.45c0 6.5 15.66 13.78 36.61 13.78s36.6-7.28 36.6-13.78v-21.41c0-6.8-15.03-14.37-36.6-14.37z"/><ellipse cx="91.3" cy="161.67" fill="#fbc02d" rx="39.79" ry="17.56"/><path d="m91.3 182.42c-24.5 0-43-8.92-43-20.75s18.47-20.74 43-20.74 43 8.92 43 20.74-18.51 20.75-43 20.75zm0-35.12c-21.57 0-36.61 7.57-36.61 14.37s15 14.38 36.61 14.38 36.6-7.57 36.6-14.38-15.03-14.37-36.6-14.37z"/><path d="m131.08 141.76c0-9.7-17.81-17.56-39.78-17.56s-39.79 7.86-39.79 17.56v21.4c0 9.37 17.81 17 39.79 17s39.78-7.59 39.78-17z" fill="#f57f17"/><path d="m91.3 183.3c-24.5 0-43-8.66-43-20.14v-21.4c0-11.83 18.47-20.74 43-20.74s43 8.91 43 20.74v21.4c-.04 11.48-18.51 20.14-43 20.14zm0-55.92c-21.57 0-36.61 7.58-36.61 14.38v21.4c0 6.5 15.66 13.78 36.61 13.78s36.6-7.28 36.6-13.78v-21.4c0-6.76-15.03-14.38-36.6-14.38z"/><ellipse cx="91.3" cy="142.94" fill="#fbc02d" rx="39.79" ry="17.56"/><path d="m91.3 163.68c-24.5 0-43-8.92-43-20.74s18.47-20.75 43-20.75 43 8.92 43 20.75-18.51 20.74-43 20.74zm0-35.12c-21.57 0-36.61 7.57-36.61 14.38s15 14.37 36.61 14.37 36.6-7.57 36.6-14.37-15.03-14.38-36.6-14.38z"/><path d="m131.08 122.13c0-9.7-17.81-17.56-39.78-17.56s-39.79 7.86-39.79 17.56v21.4c0 9.37 17.81 17 39.79 17s39.78-7.59 39.78-17z" fill="#f57f17"/><path d="m91.3 163.68c-24.5 0-43-8.66-43-20.15v-21.4c0-11.82 18.47-20.74 43-20.74s43 8.92 43 20.74v21.4c-.04 11.47-18.51 20.15-43 20.15zm0-55.93c-21.57 0-36.61 7.58-36.61 14.38v21.4c0 6.51 15.66 13.78 36.61 13.78s36.6-7.27 36.6-13.78v-21.4c0-6.8-15.03-14.38-36.6-14.38z"/><ellipse cx="91.3" cy="123.31" fill="#fbc02d" rx="39.79" ry="17.56"/><path d="m91.3 144.05c-24.5 0-43-8.92-43-20.74s18.47-20.74 43-20.74 43 8.92 43 20.74-18.51 20.74-43 20.74zm0-35.12c-21.57 0-36.61 7.58-36.61 14.38s15 14.38 36.61 14.38 36.6-7.58 36.6-14.38-15.03-14.38-36.6-14.38z"/><path d="m204.49 173.26c0-9.69-17.81-17.55-39.79-17.55s-39.78 7.86-39.78 17.55v21.41c0 9.36 17.81 17 39.78 17s39.79-7.6 39.79-17z" fill="#f57f17"/><path d="m164.7 214.81c-24.49 0-43-8.66-43-20.14v-21.4c0-11.83 18.48-20.75 43-20.75s43 8.92 43 20.75v21.4c-.03 11.48-18.5 20.14-43 20.14zm0-55.92c-21.57 0-36.6 7.57-36.6 14.38v21.4c0 6.5 15.65 13.77 36.6 13.77s36.6-7.27 36.6-13.77v-21.4c0-6.81-15.03-14.38-36.6-14.38z"/><ellipse cx="164.7" cy="174.44" fill="#fbc02d" rx="39.79" ry="17.56"/><path d="m164.7 195.18c-24.49 0-43-8.91-43-20.74s18.48-20.74 43-20.74 43 8.92 43 20.74-18.5 20.74-43 20.74zm0-35.11c-21.57 0-36.6 7.57-36.6 14.37s15 14.38 36.6 14.38 36.6-7.58 36.6-14.38-15.03-14.37-36.6-14.37z"/><path d="m204.49 154.53c0-9.7-17.81-17.56-39.79-17.56s-39.78 7.86-39.78 17.56v21.4c0 9.37 17.81 17 39.78 17s39.79-7.59 39.79-17z" fill="#f57f17"/><path d="m164.7 196.07c-24.49 0-43-8.66-43-20.14v-21.4c0-11.83 18.48-20.75 43-20.75s43 8.92 43 20.75v21.4c-.03 11.48-18.5 20.14-43 20.14zm0-55.92c-21.57 0-36.6 7.58-36.6 14.38v21.4c0 6.5 15.65 13.78 36.6 13.78s36.6-7.28 36.6-13.78v-21.4c0-6.8-15.03-14.38-36.6-14.38z"/><ellipse cx="164.7" cy="155.71" fill="#fbc02d" rx="39.79" ry="17.56"/><path d="m164.7 176.45c-24.49 0-43-8.92-43-20.74s18.51-20.71 43-20.71 43 8.91 43 20.74-18.5 20.71-43 20.71zm0-35.12c-21.57 0-36.6 7.58-36.6 14.38s15 14.37 36.6 14.37 36.6-7.57 36.6-14.37-15.03-14.38-36.6-14.38z"/><path d="m0 0h256v256h-256z" fill="none"/></svg>