<svg viewBox="0 0 256 256" xmlns="http://www.w3.org/2000/svg"><path d="m109.44 83.21h75.82v112.72h-75.82z" fill="#bdbdbd"/><path d="m188.44 199.12h-82.18v-119.12h82.18zm-75.81-6.37h69.45v-106.35h-69.45z"/><path d="m93.35 69.43h75.82v112.72h-75.82z" fill="#eee"/><path d="m172.35 185.33h-82.18v-119.09h82.18zm-75.82-6.33h69.47v-106.39h-69.47z"/><path d="m75.11 59.7h75.82v125.88h-75.82z" fill="#fafafa"/><path d="m154.11 188.76h-82.18v-132.25h82.18zm-75.81-6.36h69.44v-119.52h-69.44z"/><path d="m115.07 93.61-8.07-12.54a6.14 6.14 0 0 0 -5.18-2.78h-40.32a6 6 0 0 0 -6.1 5.85v106.32a6 6 0 0 0 6.1 5.84h133a6 6 0 0 0 6.1-5.84v-88.23a6 6 0 0 0 -6.1-5.85h-74.24a6.15 6.15 0 0 1 -5.19-2.77z" fill="#e53935"/><path d="m194.5 199.49h-133a9.17 9.17 0 0 1 -9.28-9v-106.35a9.17 9.17 0 0 1 9.28-9h40.3a9.28 9.28 0 0 1 7.86 4.23l8.09 12.55a3 3 0 0 0 2.51 1.31h74.24a9.17 9.17 0 0 1 9.28 9v88.23a9.17 9.17 0 0 1 -9.28 9.03zm-133-118a2.79 2.79 0 0 0 -2.91 2.66v106.31a2.79 2.79 0 0 0 2.91 2.66h133a2.79 2.79 0 0 0 2.91-2.66v-88.23a2.79 2.79 0 0 0 -2.91-2.66h-74.24a9.27 9.27 0 0 1 -7.86-4.23l-8.09-12.55a3 3 0 0 0 -2.51-1.31z"/><path d="m92.28 146.31a17.17 17.17 0 0 1 17.17 17.17v13.73a0 0 0 0 1 0 0h-34.34a0 0 0 0 1 0 0v-13.74a17.17 17.17 0 0 1 17.17-17.16z" fill="#e57373"/><path d="m112.63 180.39h-40.7v-17.31a20 20 0 0 1 19.95-20h.79a20 20 0 0 1 20 20zm-34.33-6.39h28v-10.92a13.6 13.6 0 0 0 -13.59-13.59h-.79a13.6 13.6 0 0 0 -13.62 13.59z"/><path d="m131.26 135.8h44.63" fill="#e57373"/><path d="m131.26 132.62h44.63v6.37h-44.63z"/><path d="m131.26 151.71h44.63" fill="#e57373"/><path d="m131.26 148.53h44.63v6.37h-44.63z"/><path d="m131.26 167.63h44.63" fill="#e57373"/><path d="m131.26 164.44h44.63v6.37h-44.63z"/><rect fill="#e57373" height="22.83" rx="11.41" width="22.83" x="80.86" y="128.16"/><path d="m92.28 154.17a14.6 14.6 0 1 1 14.6-14.6 14.62 14.62 0 0 1 -14.6 14.6zm0-22.83a8.24 8.24 0 1 0 8.23 8.23 8.24 8.24 0 0 0 -8.23-8.23z"/><path d="m0 0h256v256h-256z" fill="none"/></svg>