<svg viewBox="0 0 256 256" xmlns="http://www.w3.org/2000/svg"><path d="m80.07 82.84-19.48 19.68a.64.64 0 0 0 .45 1.1h133.96a.64.64 0 0 0 .45-1.1l-19.52-19.68a.64.64 0 0 0 -.46-.19h-94.94a.64.64 0 0 0 -.46.19z" fill="#c62828"/><path d="m195 106.8h-134a3.83 3.83 0 0 1 -2.72-6.51l19.5-19.7a3.83 3.83 0 0 1 2.71-1.13h94.94a3.83 3.83 0 0 1 2.71 1.13l19.5 19.7a3.83 3.83 0 0 1 -2.64 6.51zm-127.87-6.37h121.74l-14.46-14.6h-92.82z"/><rect fill="#42a5f5" height="30.24" rx="1.07" width="47.74" x="140.82" y="91.62"/><path d="m185.17 125.05h-41a6.58 6.58 0 0 1 -6.57-6.58v-23.47a6.58 6.58 0 0 1 6.57-6.58h41a6.59 6.59 0 0 1 6.58 6.58v23.45a6.59 6.59 0 0 1 -6.58 6.6zm-41-30.24-.17 23.66 41.17.21a.22.22 0 0 0 .21-.21v-23.47z"/><path d="m148 85.13-6.8 6.87a.22.22 0 0 0 .16.38h46.64a.23.23 0 0 0 .16-.38l-6.79-6.86a.26.26 0 0 0 -.16-.07h-33.06a.24.24 0 0 0 -.15.06z" fill="#42a5f5"/><path d="m188 95.55h-48.76l-1-2.08a3.4 3.4 0 0 1 .7-3.71l7.66-7.76 1.55-.07h34.41l1.09 1 8.29 8.38-.78 2.21a3.38 3.38 0 0 1 -3.16 2.03zm-39.58-6.36h32.49l-.94-.94h-30.59z"/><rect fill="#ffa726" height="50.4" rx="1.07" width="79.57" x="65.36" y="78.7"/><path d="m141.54 132.27h-72.78a6.58 6.58 0 0 1 -6.58-6.57v-43.61a6.58 6.58 0 0 1 6.58-6.57h72.78a6.58 6.58 0 0 1 6.58 6.57v43.61a6.58 6.58 0 0 1 -6.58 6.57zm-72.78-50.39-.21 43.82 73 .21a.21.21 0 0 0 .21-.21v-43.61z"/><path d="m77.31 67.87-11.31 11.44a.37.37 0 0 0 .27.63h77.73a.37.37 0 0 0 .26-.63l-11.26-11.44a.39.39 0 0 0 -.27-.11h-55.16a.36.36 0 0 0 -.26.11z" fill="#ffa726"/><path d="m144 83.13h-77.74a3.56 3.56 0 0 1 -2.53-6.06l12.27-12.38 1.54-.11h56.46l1.19 1 11.38 11.5a3.56 3.56 0 0 1 -2.57 6.05zm-71-6.37h64.32l-5.77-5.76h-52.81z"/><rect fill="#f44336" height="86.76" rx="1.07" width="136.99" x="59.5" y="101.47"/><path d="m193.1 191.42h-130.2a6.59 6.59 0 0 1 -6.58-6.58v-80a6.59 6.59 0 0 1 6.58-6.58h130.2a6.59 6.59 0 0 1 6.58 6.58v80a6.59 6.59 0 0 1 -6.58 6.58zm-130.2-86.76-.21 80.18 130.41.22a.21.21 0 0 0 .21-.22v-80z"/><path d="m126.54 137.8a15.91 15.91 0 0 1 15.91 15.91v12.29a0 0 0 0 1 0 0h-31.83a0 0 0 0 1 0 0v-12.3a15.91 15.91 0 0 1 15.92-15.9z" fill="#fafafa"/><path d="m145.63 169.19h-38.19v-15.65a18.94 18.94 0 0 1 18.92-18.92h.36a18.94 18.94 0 0 1 18.91 18.92zm-31.83-6.36h25.47v-9.29a12.57 12.57 0 0 0 -12.55-12.54h-.36a12.58 12.58 0 0 0 -12.56 12.56z"/><circle cx="126.54" cy="133.97" fill="#fafafa" r="10.27"/><path d="m126.54 147.42a13.46 13.46 0 1 1 13.46-13.42 13.47 13.47 0 0 1 -13.46 13.42zm0-20.54a7.09 7.09 0 1 0 7.09 7.09 7.1 7.1 0 0 0 -7.09-7.09z"/><path d="m0 0h256v256h-256z" fill="none"/></svg>