<svg viewBox="0 0 256 256" xmlns="http://www.w3.org/2000/svg"><path d="m142.48 130.78h27.52a3.3 3.3 0 0 0 3.17-2.37l19-64.93a3.3 3.3 0 0 0 -3.17-4.23h-25.59z" fill="#d32f2f"/><path d="m170 134h-31.77l22.77-77.93h28a6.48 6.48 0 0 1 6.22 8.3l-19 64.93a6.51 6.51 0 0 1 -6.22 4.7zm-23.31-6.36h23.31l19.11-65-23.36-.13z"/><path d="m116.82 130.78h25.63l20.93-71.53h-27.56a3.31 3.31 0 0 0 -3.17 2.37l-19 64.94a3.29 3.29 0 0 0 3.17 4.22z" fill="#fafafa"/><path d="m144.84 134h-28a6.47 6.47 0 0 1 -6.22-8.3l19-64.93a6.52 6.52 0 0 1 6.22-4.66h31.81zm-9-71.52-19.11 65 .11.15h23.25l19.06-65.16z"/><path d="m113.52 130.78h-27.52a3.3 3.3 0 0 1 -3.17-2.37l-19-64.93a3.3 3.3 0 0 1 3.17-4.23h25.59z" fill="#fafafa"/><path d="m117.77 134h-31.77a6.51 6.51 0 0 1 -6.22-4.66l-19-64.93a6.48 6.48 0 0 1 6.22-8.34h28zm-50.77-71.56 18.89 65.07 23.42.07-19.1-65.14z"/><path d="m139.18 130.78h-25.63l-20.93-71.53h27.56a3.3 3.3 0 0 1 3.17 2.37l19 64.94a3.29 3.29 0 0 1 -3.17 4.22z" fill="#d32f2f"/><path d="m139.18 134h-28l-22.81-77.93h31.81a6.52 6.52 0 0 1 6.22 4.66l19 64.93a6.48 6.48 0 0 1 -6.22 8.3zm-23.25-6.36h23.25a.09.09 0 0 0 .09 0l-19-65-23.42-.07z"/><circle cx="128.6" cy="145.36" fill="#ffb300" r="51.38"/><path d="m128.6 199.93a54.57 54.57 0 1 1 54.57-54.56 54.63 54.63 0 0 1 -54.57 54.56zm0-102.77a48.2 48.2 0 1 0 48.2 48.21 48.26 48.26 0 0 0 -48.2-48.21z"/><path d="m122.95 182.7v-58.15h14.77v58.15" fill="#ffb300"/><path d="m140.91 182.7h-6.37v-54.97h-8.4v54.97h-6.37v-58.15l3.18-3.18h14.77l3.19 3.18z"/><path d="m124.99 145.36h-14.77l12.73-20.81h14.77z" fill="#ffb300"/><path d="m125 148.55h-14.78l-2.71-4.84 12.73-20.82 2.71-1.52h14.77l2.72 4.84-12.73 20.79zm-9.09-6.37h7.31l8.78-14.45h-7.3z"/><path d="m128.6 185.92a40.56 40.56 0 1 1 40.56-40.55 40.6 40.6 0 0 1 -40.56 40.55zm0-74.75a34.2 34.2 0 1 0 34.19 34.2 34.24 34.24 0 0 0 -34.19-34.2z"/><path d="m0 0h256v256h-256z" fill="none"/></svg>