<svg viewBox="0 0 256 256" xmlns="http://www.w3.org/2000/svg"><path d="m63.34 113.19h29.62v29.62h-29.62z" fill="#f44336"/><path d="m96.15 146h-36v-36h36zm-29.62-6.36h23.25v-23.27h-23.25z"/><path d="m92.96 128h71.05" fill="#e0e0e0"/><path d="m92.96 124.82h71.05v6.37h-71.05z"/><path d="m176.74 120.95a15.91 15.91 0 0 1 15.91 15.91v12.3a0 0 0 0 1 0 0h-31.82a0 0 0 0 1 0 0v-12.3a15.91 15.91 0 0 1 15.91-15.91z" fill="#0d47a1"/><path d="m195.84 152.34h-38.19v-15.48a19.1 19.1 0 0 1 38.19 0zm-31.84-6.34h25.46v-9.12a12.73 12.73 0 1 0 -25.46 0z"/><circle cx="176.74" cy="117.11" fill="#fafafa" r="10.27"/><path d="m176.74 130.57a13.46 13.46 0 1 1 13.46-13.46 13.48 13.48 0 0 1 -13.46 13.46zm0-20.54a7.09 7.09 0 1 0 7.09 7.08 7.1 7.1 0 0 0 -7.09-7.11z"/><path d="m164.01 182.46h-36.16l-23.63-53.17 5.81-2.58 21.96 49.38h32.02z"/><path d="m176.74 172.22a15.91 15.91 0 0 1 15.91 15.91v12.3a0 0 0 0 1 0 0h-31.82a0 0 0 0 1 0 0v-12.3a15.91 15.91 0 0 1 15.91-15.91z" fill="#0d47a1"/><path d="m195.84 203.61h-38.19v-15.47a19.1 19.1 0 1 1 38.19 0zm-31.84-6.36h25.46v-9.11a12.73 12.73 0 1 0 -25.46 0z"/><circle cx="176.74" cy="168.39" fill="#fafafa" r="10.27"/><path d="m176.74 181.84a13.46 13.46 0 1 1 13.46-13.45 13.47 13.47 0 0 1 -13.46 13.45zm0-20.54a7.09 7.09 0 1 0 7.09 7.09 7.1 7.1 0 0 0 -7.09-7.09z"/><path d="m110.03 129.29-5.81-2.58 23.63-53.17h36.16v6.37h-32.02z"/><path d="m176.74 69.67a15.91 15.91 0 0 1 15.91 15.91v12.3a0 0 0 0 1 0 0h-31.82a0 0 0 0 1 0 0v-12.29a15.91 15.91 0 0 1 15.91-15.91z" fill="#0d47a1"/><path d="m195.84 101.07h-38.19v-15.48a19.1 19.1 0 1 1 38.19 0zm-31.84-6.37h25.46v-9.11a12.73 12.73 0 1 0 -25.46 0z"/><circle cx="176.74" cy="65.84" fill="#fafafa" r="10.27"/><path d="m176.74 79.29a13.46 13.46 0 1 1 13.46-13.45 13.47 13.47 0 0 1 -13.46 13.45zm0-20.54a7.09 7.09 0 1 0 7.09 7.09 7.1 7.1 0 0 0 -7.09-7.09z"/><path d="m0 0h256v256h-256z" fill="none"/></svg>