<svg viewBox="0 0 256 256" xmlns="http://www.w3.org/2000/svg"><rect fill="#424242" height="49.11" rx="11.88" width="141.9" x="57.05" y="54.71"/><path d="m186.13 107h-116.25a16 16 0 0 1 -16-16v-23.47a16 16 0 0 1 16-16h116.25a16 16 0 0 1 16 16v23.47a16 16 0 0 1 -16 16zm-116.25-49.11a9.66 9.66 0 0 0 -9.65 9.64v23.47a9.66 9.66 0 0 0 9.65 9.65h116.25a9.66 9.66 0 0 0 9.64-9.65v-23.47a9.66 9.66 0 0 0 -9.64-9.64z"/><rect fill="#424242" height="49.11" rx="11.38" width="141.9" x="57.05" y="103.36"/><path d="m186.13 155.65h-116.25a16 16 0 0 1 -16-16v-23.47a16 16 0 0 1 16-16h116.25a16 16 0 0 1 16 16v23.46a16 16 0 0 1 -16 16.01zm-116.25-49.11a9.66 9.66 0 0 0 -9.65 9.64v23.46a9.66 9.66 0 0 0 9.65 9.65h116.25a9.66 9.66 0 0 0 9.64-9.65v-23.46a9.66 9.66 0 0 0 -9.64-9.64z"/><rect fill="#424242" height="49.11" rx="10.67" width="141.9" x="57.05" y="152.18"/><path d="m186.13 204.47h-116.25a16 16 0 0 1 -16-16v-23.47a16 16 0 0 1 16-16h116.25a16 16 0 0 1 16 16v23.47a16 16 0 0 1 -16 16zm-116.25-49.11a9.66 9.66 0 0 0 -9.65 9.64v23.47a9.66 9.66 0 0 0 9.65 9.64h116.25a9.66 9.66 0 0 0 9.64-9.64v-23.47a9.66 9.66 0 0 0 -9.64-9.64z"/><circle cx="81.17" cy="79.27" fill="#66bb6a" r="7.35"/><path d="m81.17 89.8a10.54 10.54 0 1 1 10.53-10.54 10.55 10.55 0 0 1 -10.53 10.54zm0-14.7a4.17 4.17 0 1 0 4.17 4.16 4.17 4.17 0 0 0 -4.17-4.16z"/><circle cx="81.17" cy="127.91" fill="#66bb6a" r="7.35"/><path d="m81.17 138.44a10.53 10.53 0 1 1 10.53-10.53 10.54 10.54 0 0 1 -10.53 10.53zm0-14.69a4.17 4.17 0 1 0 4.17 4.16 4.17 4.17 0 0 0 -4.17-4.16z"/><circle cx="81.17" cy="176.56" fill="#66bb6a" r="7.35"/><path d="m81.17 187.09a10.53 10.53 0 1 1 10.53-10.53 10.54 10.54 0 0 1 -10.53 10.53zm0-14.69a4.17 4.17 0 1 0 4.17 4.16 4.17 4.17 0 0 0 -4.17-4.16z"/><rect fill="#212121" height="14.7" rx="7.35" width="77.82" x="102.97" y="71.92"/><path d="m173.44 89.8h-63.12a10.54 10.54 0 1 1 0-21.07h63.12a10.54 10.54 0 0 1 0 21.07zm-63.12-14.7a4.17 4.17 0 1 0 0 8.33h63.12a4.17 4.17 0 0 0 0-8.33z"/><rect fill="#212121" height="14.7" rx="7.35" width="77.82" x="102.97" y="120.56"/><path d="m173.44 138.44h-63.12a10.53 10.53 0 1 1 0-21.06h63.12a10.53 10.53 0 0 1 0 21.06zm-63.12-14.69a4.17 4.17 0 1 0 0 8.33h63.12a4.17 4.17 0 0 0 0-8.33z"/><rect fill="#212121" height="14.7" rx="7.35" width="77.82" x="102.97" y="169.39"/><path d="m173.44 187.27h-63.12a10.54 10.54 0 1 1 0-21.07h63.12a10.54 10.54 0 0 1 0 21.07zm-63.12-14.7a4.17 4.17 0 1 0 0 8.33h63.12a4.17 4.17 0 0 0 0-8.33z"/><path d="m141.88 122.21a27.05 27.05 0 0 1 27.05 27.05v20.9a0 0 0 0 1 0 0h-54.11a0 0 0 0 1 0 0v-20.9a27.05 27.05 0 0 1 27.05-27.05z" fill="#fafafa"/><path d="m172.11 173.35h-60.47v-24.09a30.24 30.24 0 1 1 60.47 0zm-54.11-6.35h47.75v-17.74a23.88 23.88 0 0 0 -47.75 0z"/><circle cx="141.88" cy="115.69" fill="#fafafa" r="17.46"/><path d="m141.88 136.33a20.65 20.65 0 1 1 20.64-20.64 20.67 20.67 0 0 1 -20.64 20.64zm0-34.92a14.28 14.28 0 1 0 14.27 14.28 14.29 14.29 0 0 0 -14.27-14.28z"/><path d="m163.94 130.71a27.05 27.05 0 0 1 27.06 27.05v20.9a0 0 0 0 1 0 0h-54.11a0 0 0 0 1 0 0v-20.9a27.05 27.05 0 0 1 27.05-27.05z" fill="#fafafa"/><path d="m194.18 181.85h-60.48v-24.08a30.24 30.24 0 0 1 60.48 0zm-54.11-6.36h47.74v-17.72a23.87 23.87 0 1 0 -47.74 0z"/><circle cx="163.94" cy="124.19" fill="#fafafa" r="17.46"/><path d="m163.94 144.84a20.65 20.65 0 1 1 20.65-20.65 20.67 20.67 0 0 1 -20.65 20.65zm0-34.93a14.28 14.28 0 1 0 14.28 14.28 14.3 14.3 0 0 0 -14.28-14.28z"/><path d="m0 0h256v256h-256z" fill="none"/></svg>