<svg viewBox="0 0 256 256" xmlns="http://www.w3.org/2000/svg"><path d="m34.57 71.31v16.04h186.93v-16.04l-92.71-32.34z" fill="#fafafa"/><path d="m224.68 90.54h-193.29v-21.54l97.41-33.39 95.88 33.44zm-186.92-6.37h180.55v-10.6l-89.52-31.23-91 31.24z"/><path d="m114.39 110.27h27.29v71.29h-27.29z" fill="#00897b"/><path d="m144.86 184.75h-33.65v-77.66h33.65zm-27.29-6.37h20.92v-64.93h-20.92z"/><path d="m62.54 110.27h27.29v71.29h-27.29z" fill="#00897b"/><path d="m93 184.75h-33.64v-77.66h33.64zm-27.28-6.37h20.93v-64.93h-20.92z"/><path d="m166.24 110.27h27.29v71.29h-27.29z" fill="#00897b"/><path d="m196.71 184.75h-33.66v-77.66h33.66zm-27.29-6.37h20.92v-64.93h-20.92z"/><path d="m34.51 204.48h186.92v12.73h-186.92z" fill="#fafafa"/><path d="m224.61 220.39h-193.29v-19.09h193.29zm-186.92-6.39h180.55v-6.37h-180.55z"/><path d="m50.2 191.75h155.54v12.73h-155.54z" fill="#fafafa"/><path d="m208.92 207.66h-161.92v-19.09h161.92zm-155.54-6.36h149.17v-6.37h-149.17z"/><path d="m49.85 87.35h155.55v12.73h-155.55z" fill="#fafafa"/><path d="m208.58 103.27h-161.91v-19.1h161.91zm-155.58-6.37h149.21v-6.36h-149.21z"/><path d="m0 0h256v256h-256z" fill="none"/></svg>