<svg viewBox="0 0 256 256" xmlns="http://www.w3.org/2000/svg"><rect fill="#fafafa" height="57.29" rx="12.93" width="57.29" x="59.09" y="66.02"/><path d="m103.52 72.39a6.5 6.5 0 0 1 6.5 6.49v31.57a6.51 6.51 0 0 1 -6.5 6.5h-31.52a6.51 6.51 0 0 1 -6.5-6.5v-31.57a6.5 6.5 0 0 1 6.5-6.49h31.56m0-6.37h-31.56a12.87 12.87 0 0 0 -12.91 12.86v31.57a12.87 12.87 0 0 0 12.91 12.86h31.56a12.86 12.86 0 0 0 12.86-12.86v-31.57a12.86 12.86 0 0 0 -12.9-12.88z"/><rect fill="#ff0" height="57.29" rx="13.47" transform="matrix(.70710678 -.70710678 .70710678 .70710678 -19.57 142.08)" width="57.29" x="133.08" y="66.02"/><path d="m161.72 65.85a6.49 6.49 0 0 1 4.6 1.9l22.32 22.32a6.51 6.51 0 0 1 0 9.19l-22.32 22.32a6.51 6.51 0 0 1 -9.19 0l-22.32-22.32a6.51 6.51 0 0 1 0-9.19l22.32-22.32a6.49 6.49 0 0 1 4.59-1.9m0-6.37a12.82 12.82 0 0 0 -9.09 3.77l-22.32 22.32a12.87 12.87 0 0 0 0 18.19l22.32 22.32a12.86 12.86 0 0 0 18.19 0l22.32-22.32a12.87 12.87 0 0 0 0-18.19l-22.32-22.32a12.83 12.83 0 0 0 -9.1-3.77z"/><rect fill="#fafafa" height="57.29" rx="13.47" width="57.29" x="59.09" y="139.23"/><path d="m103.52 145.59a6.51 6.51 0 0 1 6.5 6.5v31.56a6.51 6.51 0 0 1 -6.5 6.5h-31.52a6.5 6.5 0 0 1 -6.5-6.5v-31.56a6.51 6.51 0 0 1 6.5-6.5h31.56m0-6.36h-31.56a12.86 12.86 0 0 0 -12.87 12.86v31.56a12.87 12.87 0 0 0 12.87 12.87h31.56a12.87 12.87 0 0 0 12.86-12.87v-31.56a12.86 12.86 0 0 0 -12.86-12.86z"/><rect fill="#fafafa" height="57.29" rx="13.05" width="57.29" x="133.08" y="139.23"/><path d="m177.51 145.59a6.5 6.5 0 0 1 6.49 6.5v31.56a6.5 6.5 0 0 1 -6.49 6.5h-31.57a6.51 6.51 0 0 1 -6.5-6.5v-31.56a6.51 6.51 0 0 1 6.5-6.5zm0-6.36h-31.57a12.86 12.86 0 0 0 -12.86 12.86v31.56a12.87 12.87 0 0 0 12.86 12.87h31.57a12.87 12.87 0 0 0 12.86-12.87v-31.56a12.86 12.86 0 0 0 -12.86-12.86z"/><path d="m0 0h256v256h-256z" fill="none"/></svg>