<svg viewBox="0 0 256 256" xmlns="http://www.w3.org/2000/svg"><path d="m91.34 137.62h-6.36v-27.98h39.84v-20.76h6.36v27.13h-39.84z"/><path d="m171.03 137.62h-6.37v-21.61h-36.66v-6.37h43.03z"/><path d="m112.45 67.76h31.09v31.09h-31.09z" fill="#f44336"/><path d="m146.73 102h-37.46v-37.42h37.46zm-31.09-6.37h24.72v-24.63h-24.72z"/><path d="m64.74 184.9h-6.36v-27.97h26.6v-20.77h6.36v27.13h-26.6z"/><path d="m117.94 184.9h-6.37v-21.61h-20.23v16.57h-6.36v-22.93h32.96z"/><path d="m53.61 172.32h15.91v15.91h-15.91z" fill="#f44336"/><path d="m72.7 191.42h-22.28v-22.28h22.28zm-15.91-6.37h9.55v-9.55h-9.55z"/><path d="m80.2 172.32h15.91v15.91h-15.91z" fill="#f44336"/><path d="m99.3 191.42h-22.3v-22.28h22.3zm-15.92-6.37h9.55v-9.55h-9.55z"/><path d="m106.8 172.32h15.91v15.91h-15.91z" fill="#f44336"/><path d="m125.89 191.42h-22.28v-22.28h22.28zm-15.89-6.37h9.55v-9.55h-9.55z"/><path d="m144.43 184.9h-6.37v-27.97h26.6v-20.77h6.37v27.13h-26.6z"/><path d="m197.62 184.9h-6.37v-21.61h-20.22v16.57h-6.37v-22.93h32.96z"/><path d="m133.29 172.32h15.91v15.91h-15.91z" fill="#f44336"/><path d="m152.39 191.42h-22.28v-22.28h22.28zm-15.92-6.37h9.53v-9.55h-9.55z"/><path d="m159.89 172.32h15.91v15.91h-15.91z" fill="#f44336"/><path d="m179 191.42h-22.3v-22.28h22.3zm-15.91-6.37h9.55v-9.55h-9.55z"/><path d="m186.48 172.32h15.91v15.91h-15.91z" fill="#f44336"/><path d="m205.58 191.42h-22.28v-22.28h22.28zm-15.92-6.37h9.55v-9.55h-9.55z"/><path d="m77.02 124.9h22.28v22.28h-22.28z" fill="#f44336"/><path d="m102.48 150.36h-28.64v-28.64h28.64zm-22.28-6.36h15.92v-15.92h-15.92z"/><path d="m156.7 124.9h22.28v22.28h-22.28z" fill="#f44336"/><path d="m182.17 150.36h-28.65v-28.64h28.65zm-22.28-6.36h15.91v-15.92h-15.91z"/><path d="m0 0h256v256h-256z" fill="none"/></svg>