<svg viewBox="0 0 256 256" xmlns="http://www.w3.org/2000/svg"><rect fill="#212121" height="159.14" rx="18.42" width="159.14" x="48.43" y="48.43"/><path d="m188.35 210.75h-120.7a22.43 22.43 0 0 1 -22.4-22.4v-120.7a22.43 22.43 0 0 1 22.4-22.4h120.7a22.43 22.43 0 0 1 22.4 22.4v120.7a22.43 22.43 0 0 1 -22.4 22.4zm-120.7-159.14a16.06 16.06 0 0 0 -16 16v120.7a16.06 16.06 0 0 0 16 16h120.7a16.06 16.06 0 0 0 16-16v-120.66a16.06 16.06 0 0 0 -16-16z"/><rect fill="#616161" height="117.76" rx="3.08" width="117.76" x="69.12" y="69.12"/><path d="m183.49 190.07h-111a6.59 6.59 0 0 1 -6.58-6.58v-111a6.58 6.58 0 0 1 6.58-6.57h111a6.58 6.58 0 0 1 6.57 6.57v111a6.58 6.58 0 0 1 -6.57 6.58zm-110.98-117.77-.21 111.19 111.19.21a.22.22 0 0 0 .21-.21v-111z"/><path d="m86.21 123.49h83.58v9.01h-83.58z" fill="#212121"/><path d="m173 135.69h-90v-15.38h90zm-83.6-6.37h77.21v-2.64h-77.21z"/><path d="m86.21 152.14h83.58v9.01h-83.58z" fill="#212121"/><path d="m173 164.34h-90v-15.34h90zm-83.6-6.34h77.21v-2.65h-77.21z"/><path d="m86.21 94.85h83.58v9.01h-83.58z" fill="#212121"/><path d="m173 107.05h-90v-15.38h90zm-83.6-6.37h77.21v-2.68h-77.21z"/><circle cx="96.83" cy="99.16" fill="#fb8c00" r="14.05"/><path d="m96.83 116.4a17.24 17.24 0 1 1 17.24-17.23 17.25 17.25 0 0 1 -17.24 17.23zm0-28.11a10.88 10.88 0 1 0 10.87 10.88 10.89 10.89 0 0 0 -10.87-10.88z"/><circle cx="157.52" cy="127.81" fill="#fb8c00" r="14.05"/><path d="m157.52 145.05a17.24 17.24 0 1 1 17.24-17.24 17.26 17.26 0 0 1 -17.24 17.24zm0-28.11a10.87 10.87 0 1 0 10.87 10.87 10.89 10.89 0 0 0 -10.87-10.87z"/><circle cx="124.32" cy="156.65" fill="#fb8c00" r="14.05"/><path d="m124.32 173.88a17.24 17.24 0 1 1 17.23-17.23 17.25 17.25 0 0 1 -17.23 17.23zm0-28.11a10.88 10.88 0 1 0 10.87 10.88 10.89 10.89 0 0 0 -10.87-10.88z"/><path d="m0 0h256v256h-256z" fill="none"/></svg>