<svg height="20" viewBox="0 0 20 20" width="20" xmlns="http://www.w3.org/2000/svg"><g transform="translate(95.29 -346.146)"><path d="m-85.29 346.146a10 10 0 0 1 10 10 10 10 0 0 1 -10 10 10 10 0 0 1 -10-10 10 10 0 0 1 10-10z" fill="#e57373"/><path d="m-83.79 351.146a3.5 3.5 0 0 0 -3.5 3.5 3.463 3.463 0 0 0 .433 1.653l-.433.433-.793-.793a1 1 0 0 0 -1.414 0 1 1 0 0 0 0 1.414l.793.793-1.296 1.293a1 1 0 0 0 0 1.414.992.992 0 0 0 .707.293 1 1 0 0 0 .707-.293l1.293-1.292.793.792a.992.992 0 0 0 .707.293 1 1 0 0 0 .707-.293 1 1 0 0 0 0-1.414l-.793-.793.434-.433a3.462 3.462 0 0 0 1.652.433 3.5 3.5 0 0 0 3.5-3.5 3.505 3.505 0 0 0 -3.497-3.5zm0 5a1.5 1.5 0 0 1 -1.5-1.5 1.5 1.5 0 0 1 1.5-1.5 1.5 1.5 0 0 1 1.5 1.5 1.5 1.5 0 0 1 -1.5 1.5z" fill="#fff"/></g></svg>