<svg height="20" viewBox="0 0 20 20" width="20" xmlns="http://www.w3.org/2000/svg"><g transform="translate(80.948 -318.586)"><path d="m-70.948 318.586a10 10 0 0 1 10 10 10 10 0 0 1 -10 10 10 10 0 0 1 -10-10 10 10 0 0 1 10-10z" fill="#1e88e5"/><path d="m-66.946 323.586h-3a1 1 0 0 0 -1 1 1 1 0 0 0 1 1h.582l-1.436 1.434a3.452 3.452 0 0 0 -1.652-.434 3.5 3.5 0 0 0 -3.5 3.5 3.5 3.5 0 0 0 3.5 3.5 3.5 3.5 0 0 0 3.5-3.5 3.457 3.457 0 0 0 -.434-1.652l1.44-1.434v.59a1 1 0 0 0 1 1 1 1 0 0 0 1-1v-3a1 1 0 0 0 -1-1zm-5.5 8a1.5 1.5 0 0 1 -1.5-1.5 1.5 1.5 0 0 1 1.5-1.5 1.5 1.5 0 0 1 1.5 1.5 1.5 1.5 0 0 1 -1.5 1.5z" fill="#fff"/></g></svg>