<svg enable-background="new 0 0 256 256" viewBox="0 0 256 256" xmlns="http://www.w3.org/2000/svg"><path d="m165.6 190.1c6.9 10.1 18.5 16.7 31.6 16.7 21.1 0 38.2-17.1 38.2-38.2 0-13.1-6.6-24.7-16.7-31.6v-52.4c0-10.3-8.3-18.6-18.6-18.6h-144.2c-10.3 0-18.6 8.3-18.6 18.6v86.9c0 10.3 8.3 18.6 18.6 18.6z"/><path d="m212.3 133.5c-4.6-2-9.7-3.1-15.1-3.1-16.1 0-29.8 9.9-35.5 24h-118v-69.8c0-6.8 5.5-12.3 12.3-12.3h144.2c6.8 0 12.3 5.5 12.3 12.3-.2 0-.2 48.9-.2 48.9z" fill="#fff"/><path d="m197.2 136.8c-17.6 0-31.8 14.2-31.8 31.8s14.2 31.8 31.8 31.8 31.8-14.2 31.8-31.8-14.2-31.8-31.8-31.8z" fill="#ffa726"/><path d="m194 170.6v1.8h-11.1v6.4h11.1v5.4h6.4v-5.4h11.1v-6.4h-11.1v-1.8h11.1v-6.4h-6.5l6.2-8.4-5.1-3.8-8.9 12.1-8.9-12.1-5.1 3.8 6.2 8.4h-6.5v6.4z" fill="#fff"/><path d="m0 0h256v256h-256z" fill="none"/></svg>