<svg viewBox="0 0 256 256" xmlns="http://www.w3.org/2000/svg"><rect fill="#1976d2" height="166.63" rx="83.31" width="166.63" x="44.69" y="44.69"/><path d="m128 214.5a86.5 86.5 0 1 1 86.5-86.5 86.6 86.6 0 0 1 -86.5 86.5zm0-166.63a80.13 80.13 0 1 0 80.13 80.13 80.23 80.23 0 0 0 -80.13-80.13z"/><path d="m92.33 117.15a16.21 16.21 0 0 1 16.21 16.21v21.69a0 0 0 0 1 0 0h-32.42a0 0 0 0 1 0 0v-21.69a16.21 16.21 0 0 1 16.21-16.21z" fill="#bdbdbd"/><path d="m111.73 158.24h-38.79v-24.88a19.4 19.4 0 0 1 38.79 0zm-32.42-6.37h26.05v-18.51a13 13 0 1 0 -26 0z"/><circle cx="92.33" cy="113.7" fill="#bdbdbd" r="12.75"/><path d="m92.33 129.63a15.94 15.94 0 1 1 15.94-15.94 16 16 0 0 1 -15.94 15.94zm0-25.5a9.57 9.57 0 1 0 9.57 9.56 9.57 9.57 0 0 0 -9.57-9.56z"/><path d="m122.28 114.6a20 20 0 0 1 20 20v26.8a0 0 0 0 1 0 0h-40a0 0 0 0 1 0 0v-26.8a20 20 0 0 1 20-20z" fill="#eee"/><path d="m145.48 164.6h-46.41v-30.93a22.28 22.28 0 0 1 22.25-22.26h1.91a22.28 22.28 0 0 1 22.25 22.26zm-40-6.36h33.69v-24.57a15.91 15.91 0 0 0 -15.89-15.89h-1.91a15.91 15.91 0 0 0 -15.89 15.89z"/><circle cx="122.28" cy="110.33" fill="#eee" r="15.75"/><path d="m122.28 129.26a18.93 18.93 0 1 1 18.93-18.93 19 19 0 0 1 -18.93 18.93zm0-31.5a12.57 12.57 0 1 0 12.56 12.57 12.59 12.59 0 0 0 -12.56-12.57z"/><path d="m155.77 111.86a24.11 24.11 0 0 1 24.11 24.14v32.26a0 0 0 0 1 0 0h-48.22a0 0 0 0 1 0 0v-32.26a24.11 24.11 0 0 1 24.11-24.11z" fill="#fafafa"/><path d="m183.06 171.41h-54.58v-35.41a27.29 27.29 0 1 1 54.58 0zm-48.21-6.36h41.84v-29.05a20.92 20.92 0 1 0 -41.84 0z"/><circle cx="155.77" cy="106.73" fill="#fafafa" r="18.96"/><path d="m155.77 128.87a22.15 22.15 0 1 1 22.15-22.14 22.16 22.16 0 0 1 -22.15 22.14zm0-37.92a15.78 15.78 0 1 0 15.78 15.78 15.8 15.8 0 0 0 -15.78-15.73z"/><path d="m0 0h256v256h-256z" fill="none"/></svg>