<svg viewBox="0 0 256 256" xmlns="http://www.w3.org/2000/svg"><rect fill="#00796b" height="24.03" rx="12.02" width="24.03" x="115.98" y="56.95"/><path d="m128 84.17a15.2 15.2 0 1 1 15.2-15.17 15.22 15.22 0 0 1 -15.2 15.17zm0-24a8.84 8.84 0 1 0 8.83 8.83 8.84 8.84 0 0 0 -8.83-8.86z"/><path d="m72.3 163v-32.9h111.4v36.09a4.92 4.92 0 0 1 -2.58 4.36l-50.72 27.87a5 5 0 0 1 -4.81 0l-50.71-27.92a4.92 4.92 0 0 1 -2.58-4.36z" fill="#e53935"/><path d="m128 202.23a8.12 8.12 0 0 1 -3.94-1l-50.71-27.94a8.15 8.15 0 0 1 -4.23-7.16v-36.08a3.18 3.18 0 0 1 3.18-3.18h111.4a3.18 3.18 0 0 1 3.18 3.18v36.08a8.15 8.15 0 0 1 -4.23 7.16l-50.71 27.92a8.18 8.18 0 0 1 -3.94 1.02zm-52.52-69v32.9a1.76 1.76 0 0 0 .93 1.58l50.72 27.92a1.77 1.77 0 0 0 1.74 0l50.71-27.92a1.76 1.76 0 0 0 .94-1.58v-32.9z"/><path d="m181.12 134.42-50.72 27.91a5 5 0 0 1 -4.81 0l-50.71-27.91a5 5 0 0 1 0-8.74l50.71-27.92a5 5 0 0 1 4.81 0l50.72 27.92a5 5 0 0 1 0 8.74z" fill="#fafafa"/><path d="m128 166.14a8.12 8.12 0 0 1 -3.94-1l-50.71-27.94a8.17 8.17 0 0 1 0-14.31l50.71-27.89a8.1 8.1 0 0 1 7.87 0l50.72 27.91a8.17 8.17 0 0 1 0 14.31l-50.71 27.92a8.18 8.18 0 0 1 -3.94 1zm0-65.81a1.79 1.79 0 0 0 -.87.22l-50.71 27.92a1.8 1.8 0 0 0 0 3.16l50.71 27.92a1.79 1.79 0 0 0 1.74 0l50.71-27.92a1.81 1.81 0 0 0 0-3.16l-50.71-27.92a1.79 1.79 0 0 0 -.87-.22z"/><rect fill="#00796b" height="48.49" rx="12.02" width="24.03" x="115.98" y="90.91"/><path d="m128 142.58a15.21 15.21 0 0 1 -15.2-15.19v-24.46a15.2 15.2 0 1 1 30.4 0v24.46a15.21 15.21 0 0 1 -15.2 15.19zm0-48.49a8.85 8.85 0 0 0 -8.83 8.84v24.46a8.83 8.83 0 0 0 17.66 0v-24.46a8.85 8.85 0 0 0 -8.83-8.84z"/><path d="m0 0h256v256h-256z" fill="none"/></svg>