<svg viewBox="0 0 24 24" xmlns="http://www.w3.org/2000/svg"><path d="m13 7.08 6.7-1.08a1.12 1.12 0 0 1 1.3 1.1v6.41a1.11 1.11 0 0 1 -1.12 1.1h-6.76a1.11 1.11 0 0 1 -1.12-1.1v-5.35a1.1 1.1 0 0 1 1-1.08z" fill="#0288d1"/><path d="m4.09 8.5 4.67-.75a1.16 1.16 0 0 1 1.36 1.11v4.14a1.14 1.14 0 0 1 -1.12 1.15l-4.67.11a1.14 1.14 0 0 1 -1.19-1.12v-3.53a1.14 1.14 0 0 1 .95-1.11z" fill="#0288d1"/><path d="m7.15 17.55 7.53.45a1.19 1.19 0 0 0 1.32-1.12l-.08-6.09a1.18 1.18 0 0 0 -1.34-1.09l-7.45.56a1.16 1.16 0 0 0 -1.13 1.1v5.09a1.16 1.16 0 0 0 1.15 1.1z" fill="#4fc3f7"/><path d="m0 0h24v24h-24z" fill="none"/></svg>