<svg viewBox="0 0 256 256" xmlns="http://www.w3.org/2000/svg"><path d="m106.9 96.63a1.41 1.41 0 0 0 .7 1.23l19.29 11.5a1.46 1.46 0 0 0 1.46 0l19.29-11.5a1.41 1.41 0 0 0 .7-1.23v61.51a1.42 1.42 0 0 1 -.7 1.23l-19.29 11.49a1.42 1.42 0 0 1 -1.46 0l-19.29-11.49a1.42 1.42 0 0 1 -.7-1.23z" fill="#e53935"/><path d="m127.62 174.25a4.59 4.59 0 0 1 -2.37-.66l-19.25-11.49a4.57 4.57 0 0 1 -2.25-4v-61.47a3.18 3.18 0 0 1 6.16-1.11l17.74 10.56 17.74-10.56a3.18 3.18 0 0 1 6.16 1.11v61.5a4.56 4.56 0 0 1 -2.26 4l-19.29 11.46a4.55 4.55 0 0 1 -2.38.66zm-17.54-17.13 17.54 10.45 17.54-10.45v-54.12l-15.18 9a4.59 4.59 0 0 1 -4.73 0l-15.17-9z"/><path d="m147.64 97.33-19.29 11.49a1.42 1.42 0 0 1 -1.46 0l-19.29-11.49a1.43 1.43 0 0 1 0-2.46l19.29-11.5a1.42 1.42 0 0 1 1.46 0l19.29 11.5a1.43 1.43 0 0 1 0 2.46z" fill="#fafafa"/><path d="m127.61 112.2a4.62 4.62 0 0 1 -2.35-.64l-19.26-11.5a4.61 4.61 0 0 1 0-7.92l19.29-11.5a4.57 4.57 0 0 1 4.72 0l19.29 11.49a4.62 4.62 0 0 1 0 7.93l-19.3 11.5a4.66 4.66 0 0 1 -2.39.64zm-15.86-16.1 15.87 9.45 15.87-9.45-15.87-9.46z"/><path d="m127.62 57.08-20.72 12.85" fill="#fafafa"/><path d="m106.9 73.11a3.18 3.18 0 0 1 -1.68-5.89l20.72-12.84a3.18 3.18 0 1 1 3.35 5.41l-20.71 12.84a3.25 3.25 0 0 1 -1.68.48z"/><path d="m127.62 57.08 20.72 12.85" fill="#fafafa"/><path d="m148.34 73.11a3.11 3.11 0 0 1 -1.68-.48l-20.72-12.84a3.18 3.18 0 1 1 3.35-5.41l20.71 12.84a3.19 3.19 0 0 1 -1.68 5.89z"/><path d="m86.18 139.56a1.41 1.41 0 0 0 .7 1.23l19.29 11.49a1.42 1.42 0 0 0 1.46 0l19.29-11.49a1.41 1.41 0 0 0 .7-1.23v30.44a1.4 1.4 0 0 1 -.7 1.23l-19.29 11.5a1.42 1.42 0 0 1 -1.46 0l-19.29-11.5a1.4 1.4 0 0 1 -.7-1.23z" fill="#fb8c00"/><path d="m106.9 186.1a4.59 4.59 0 0 1 -2.37-.66l-19.28-11.44a4.57 4.57 0 0 1 -2.25-4v-30.44a3.18 3.18 0 0 1 6.16-1.12l17.74 10.56 17.74-10.58a3.18 3.18 0 0 1 6.16 1.12v30.46a4.57 4.57 0 0 1 -2.25 4l-19.29 11.49a4.55 4.55 0 0 1 -2.36.61zm-17.54-17.1 17.54 10.45 17.53-10.45v-23l-15.17 9a4.61 4.61 0 0 1 -4.73 0l-15.17-9z"/><path d="m126.92 140.79-19.29 11.49a1.42 1.42 0 0 1 -1.46 0l-19.29-11.49a1.43 1.43 0 0 1 0-2.46l19.29-11.5a1.46 1.46 0 0 1 1.46 0l19.29 11.5a1.43 1.43 0 0 1 0 2.46z" fill="#fafafa"/><path d="m106.9 155.67a4.59 4.59 0 0 1 -2.37-.66l-19.28-11.49a4.62 4.62 0 0 1 0-7.93l19.29-11.49a4.64 4.64 0 0 1 4.73 0l19.28 11.49a4.62 4.62 0 0 1 0 7.93l-19.29 11.48a4.64 4.64 0 0 1 -2.36.67zm-15.9-16.11 15.9 9.44 15.87-9.46-15.87-9.44z"/><path d="m127.62 125.75a1.42 1.42 0 0 0 .7 1.23l19.29 11.49a1.42 1.42 0 0 0 1.46 0l19.29-11.47a1.42 1.42 0 0 0 .7-1.23v44.23a1.4 1.4 0 0 1 -.7 1.23l-19.29 11.5a1.42 1.42 0 0 1 -1.46 0l-19.29-11.5a1.4 1.4 0 0 1 -.7-1.23z" fill="#26a69a"/><path d="m148.34 186.1a4.59 4.59 0 0 1 -2.37-.66l-19.28-11.44a4.58 4.58 0 0 1 -2.26-4v-44.26a3.19 3.19 0 0 1 6.17-1.11l17.74 10.57 17.74-10.57a3.18 3.18 0 0 1 6.16 1.11v44.26a4.56 4.56 0 0 1 -2.26 4l-19.28 11.44a4.55 4.55 0 0 1 -2.36.66zm-17.54-17.1 17.54 10.45 17.54-10.45v-36.84l-15.18 9a4.59 4.59 0 0 1 -4.73 0l-15.17-9z"/><path d="m168.36 127-19.29 11.49a1.42 1.42 0 0 1 -1.46 0l-19.29-11.49a1.43 1.43 0 0 1 0-2.46l19.29-11.54a1.42 1.42 0 0 1 1.46 0l19.29 11.5a1.43 1.43 0 0 1 0 2.5z" fill="#fafafa"/><path d="m148.34 141.86a4.59 4.59 0 0 1 -2.37-.66l-19.28-11.49a4.61 4.61 0 0 1 0-7.93l19.31-11.49a4.61 4.61 0 0 1 4.73 0l19.27 11.49a4.62 4.62 0 0 1 0 7.93l-19.3 11.49a4.55 4.55 0 0 1 -2.36.66zm-15.87-16.11 15.87 9.45 15.86-9.46-15.86-9.45z"/><path d="m127.62 83.17v-26.09" fill="#fafafa"/><path d="m127.62 86.35a3.18 3.18 0 0 1 -3.19-3.18v-26.09a3.19 3.19 0 0 1 6.37 0v26.09a3.18 3.18 0 0 1 -3.18 3.18z"/><path d="m64.35 183.96 20.87 14.83" fill="#fafafa"/><path d="m85.22 202a3.15 3.15 0 0 1 -1.84-.59l-20.87-14.85a3.18 3.18 0 1 1 3.68-5.19l20.87 14.82a3.18 3.18 0 0 1 -1.84 5.81z"/><path d="m64.35 183.96-.01-24.44" fill="#fafafa"/><path d="m64.35 187.14a3.18 3.18 0 0 1 -3.18-3.14v-24.48a3.19 3.19 0 0 1 6.37 0v24.48a3.18 3.18 0 0 1 -3.19 3.14z"/><path d="m86.94 170.92-22.59 13.04" fill="#fafafa"/><path d="m64.35 187.14a3.18 3.18 0 0 1 -1.59-5.94l22.59-13a3.19 3.19 0 0 1 3.19 5.52l-22.6 13a3.16 3.16 0 0 1 -1.59.42z"/><path d="m191.65 184.09-20.87 14.83" fill="#fafafa"/><path d="m170.78 202.1a3.18 3.18 0 0 1 -1.84-5.77l20.87-14.83a3.18 3.18 0 1 1 3.68 5.19l-20.87 14.83a3.18 3.18 0 0 1 -1.84.58z"/><path d="m191.65 184.09.01-24.44" fill="#fafafa"/><path d="m191.65 187.28a3.18 3.18 0 0 1 -3.18-3.19v-24.44a3.19 3.19 0 0 1 3.19-3.18 3.19 3.19 0 0 1 3.18 3.18v24.44a3.18 3.18 0 0 1 -3.19 3.19z"/><path d="m169.06 171.05 22.59 13.04" fill="#fafafa"/><path d="m191.65 187.28a3.17 3.17 0 0 1 -1.59-.43l-22.59-13a3.18 3.18 0 1 1 3.18-5.51l22.59 13a3.18 3.18 0 0 1 -1.59 5.94z"/><path d="m0 0h256v256h-256z" fill="none"/></svg>