<svg viewBox="0 0 256 256" xmlns="http://www.w3.org/2000/svg"><rect fill="#558b2f" height="114.94" rx="3.03" width="95.48" x="83.03" y="61.28"/><path d="m168.85 179.4h-76.17a12.85 12.85 0 0 1 -12.84-12.84v-95.63a12.85 12.85 0 0 1 12.84-12.84h76.17a12.85 12.85 0 0 1 12.84 12.84v95.63a12.85 12.85 0 0 1 -12.84 12.84zm-76.17-114.94a6.47 6.47 0 0 0 -6.47 6.47v95.63a6.47 6.47 0 0 0 6.47 6.44h76.17a6.48 6.48 0 0 0 6.48-6.47v-95.6a6.48 6.48 0 0 0 -6.48-6.47z"/><path d="m103.06 117.33h13.14a17.3 17.3 0 0 1 17.3 17.3v25a0 0 0 0 1 0 0h-47.74a0 0 0 0 1 0 0v-25a17.3 17.3 0 0 1 17.3-17.3z" fill="#fafafa" transform="matrix(.78325962 -.62169475 .62169475 .78325962 -62.34 98.18)"/><path d="m103.57 174.37-18.5-23.31a18.92 18.92 0 0 1 3.05-26.58l12.75-10.12a19 19 0 0 1 26.58 3.06l18.55 23.31zm9-57.73a12.45 12.45 0 0 0 -7.78 2.71l-12.71 10.12a12.55 12.55 0 0 0 -2 17.63l14.54 18.32 32.38-25.72-14.55-18.32a12.52 12.52 0 0 0 -9.84-4.74z"/><circle cx="92.9" cy="117.41" fill="#fafafa" r="15.41"/><path d="m92.92 136a18.57 18.57 0 1 1 11.54-4 18.54 18.54 0 0 1 -11.54 4zm0-30.81a12.09 12.09 0 0 0 -7.57 2.66 12.22 12.22 0 1 0 17.17 2 12.11 12.11 0 0 0 -8.18-4.54 11.28 11.28 0 0 0 -1.47-.13z"/><path d="m172.6 177.89-58.09 16.52a8.13 8.13 0 0 1 -10.35-7.82v-98a8.14 8.14 0 0 1 5.91-7.82l58.09-16.51a8.12 8.12 0 0 1 10.35 7.74v98a8.12 8.12 0 0 1 -5.91 7.89z" fill="#7cb342"/><path d="m112.26 197.91a11.31 11.31 0 0 1 -11.26-11.32v-98a11.36 11.36 0 0 1 8.22-10.88l58.09-16.51a11.3 11.3 0 0 1 14.38 10.8v98a11.36 11.36 0 0 1 -8.21 11l-58.1 16.51a11.14 11.14 0 0 1 -3.12.4zm58.14-130.82a5 5 0 0 0 -1.37.19l-58.09 16.51a5 5 0 0 0 -3.6 4.76v98a5 5 0 0 0 6.3 4.76l58.1-16.52a5 5 0 0 0 3.59-4.75v-98.04a5 5 0 0 0 -4.93-5z"/><path d="m140.63 106.17-16.71 4.58v13.73l16.71-4.57v9.04l18.81-20.84-18.81-10.98z" fill="#558b2f"/><path d="m143 131.09-5.56-2.09v-4.87l-12.67 3.47-4-3.07v-13.78l2.34-3.07 14.36-3.93v-6.62l4.79-2.75 18.81 11 .76 4.88zm-3.21-14.26 4 3.08v.77l10.64-11.8-10.64-6.21v3.5l-2.34 3.07-14.36 3.94v7.13z"/><path d="m0 0h256v256h-256z" fill="none"/></svg>