<svg viewBox="0 0 24 24" xmlns="http://www.w3.org/2000/svg"><path d="m14 21.5a1.58 1.58 0 0 1 -.52-.09l-8-2.93a1.49 1.49 0 0 1 -1-1.11 1.53 1.53 0 0 1 .52-1.37l13-12.1a1.5 1.5 0 0 1 2.44 1.57l-5 15a1.43 1.43 0 0 1 -.77.88 1.47 1.47 0 0 1 -.67.15z" fill="#ffa726"/><path d="m12.12 14.23-6 1.61a1 1 0 0 1 -1.26-.84l-.72-5.88a1 1 0 0 1 .99-1.12h6a1 1 0 0 1 1 .83l.71 4.28a1 1 0 0 1 -.72 1.12z" fill="#ffca28"/><path d="m0 0h24v24h-24z" fill="none"/><path d="m8.17 11.55-4-6a1 1 0 0 1 1.66-1.1l4 6v1.77z" fill="#ffa726"/></svg>