<svg viewBox="0 0 256 256" xmlns="http://www.w3.org/2000/svg"><rect fill="#fafafa" height="119.52" rx="10.88" transform="matrix(.97257327 .23259672 -.23259672 .97257327 34.05 -25.01)" width="93.83" x="76.19" y="72.17"/><path d="m145.25 201.49a16.13 16.13 0 0 1 -3.75-.44l-66.07-15.8a16.15 16.15 0 0 1 -11.94-19.43l21.77-91.07a16.17 16.17 0 0 1 19.44-11.94l66.08 15.8a16.15 16.15 0 0 1 11.93 19.44l-21.77 91.06a16.16 16.16 0 0 1 -15.69 12.38zm-2.25-6.63a9.8 9.8 0 0 0 11.77-7.23l21.77-91.06a9.78 9.78 0 0 0 -7.24-11.77l-66.08-15.8a9.77 9.77 0 0 0 -11.76 7.23l-21.78 91.07a9.77 9.77 0 0 0 7.22 11.76z"/><path d="m41.25 142.44 43.57 70.91 120.87-74.27z" fill="#fbc02d"/><path d="m86.48 216.06-4.38-1-43.57-70.95 2.65-4.85 164.45-3.36 1.73 5.89zm-39.61-70.55 39 63.46 108.13-66.47z"/><path d="m80.99 164.66 12.2 19.86 33.84-20.8z" fill="#fafafa"/><path d="m94.85 187.23-4.37-1-12.2-19.86 2.64-4.85 46.05-.94 1.73 5.9zm-8.24-19.5 7.62 12.41 21.15-13z"/><path d="m182.55 36.48h10.4a2.38 2.38 0 0 1 2.38 2.38v80.14a0 0 0 0 1 0 0h-15.16a0 0 0 0 1 0 0v-80.14a2.38 2.38 0 0 1 2.38-2.38z" fill="#757575" transform="matrix(.81674227 .57700265 -.57700265 .81674227 79.24 -94.08)"/><path d="m170.9 120.23-17.58-12.42 45.06-63.81a10.76 10.76 0 1 1 17.62 12.44zm-8.71-14 7.19 5.08 41.38-58.59a4.4 4.4 0 0 0 -7.18-5.08z"/><path d="m155.2 110.67 12.38 8.75-19.56 14.55z" fill="#757575"/><path d="m149.92 136.53-4.92-3.53 7.17-23.3 4.88-1.67 12.39 8.75.06 5.16zm7-20.73-3 9.81 8.24-6.12z"/><path d="m0 0h256v256h-256z" fill="none"/></svg>