<svg viewBox="0 0 256 256" xmlns="http://www.w3.org/2000/svg"><path d="m207.57 104a112.52 112.52 0 0 0 -159.14 0l79.57 79.61z" fill="#fafafa"/><path d="m128 188.11-84.07-84.11 2.25-2.25a115.69 115.69 0 0 1 163.64 0l2.25 2.25zm-75-84 75 75 75-75a109.35 109.35 0 0 0 -150.08 0z"/><path d="m183.7 125.78a78.76 78.76 0 0 0 -111.4 0l55.7 55.7z"/><path d="m128 186-60.2-60.2 2.25-2.25a82 82 0 0 1 115.9 0l2.25 2.25zm-51.15-60.18 51.15 51.18 51.15-51.16a75.69 75.69 0 0 0 -102.3-.02z"/><circle cx="169.75" cy="148.59" fill="#ffa726" r="35.01"/><path d="m169.75 186.79a38.2 38.2 0 1 1 38.2-38.2 38.23 38.23 0 0 1 -38.2 38.2zm0-70a31.83 31.83 0 1 0 31.83 31.82 31.87 31.87 0 0 0 -31.83-31.84z"/><g fill="#fff"><path d="m169.75 154.89-14.01-19.04 5.13-3.77 8.88 12.07 8.88-12.07 5.13 3.77z"/><path d="m155.43 144.27h28.65v6.37h-28.65z"/><path d="m155.43 152.41h28.65v6.37h-28.65z"/><path d="m166.57 149.52h6.37v14.63h-6.37z"/></g><path d="m0 0h256v256h-256z" fill="none"/></svg>