<svg viewBox="0 0 256 256" xmlns="http://www.w3.org/2000/svg"><path d="m200.51 201.53h-145a7.15 7.15 0 0 1 -7.16-7.53l5.65-104.15a7.15 7.15 0 0 1 7.14-6.77h133.77a7.15 7.15 0 0 1 7.14 6.77l5.6 104.15a7.15 7.15 0 0 1 -7.14 7.53z" fill="#fafafa"/><path d="m200.51 204.71h-145a10.34 10.34 0 0 1 -10.32-10.89l5.6-104.14a10.34 10.34 0 0 1 10.3-9.78h133.82a10.34 10.34 0 0 1 10.32 9.78l5.6 104.14a10.34 10.34 0 0 1 -10.32 10.89zm-139.42-118.44a4 4 0 0 0 -4 3.75l-5.6 104.14a4 4 0 0 0 4 4.18h145a4 4 0 0 0 4-4.18l-5.62-104.16a4 4 0 0 0 -4-3.75z"/><path d="m168 101.85h-80v-21.41a29.18 29.18 0 0 1 29.14-29.15h21.74a29.18 29.18 0 0 1 29.12 29.15zm-73.65-6.36h67.3v-15a22.81 22.81 0 0 0 -22.78-22.78h-21.74a22.81 22.81 0 0 0 -22.78 22.73z"/><path d="m188.84 182.46h-121.68a6 6 0 0 1 -6-6.32l-4.84-87.38a6 6 0 0 1 6-5.68h131.37a6 6 0 0 1 6 5.68l-4.85 87.38a6 6 0 0 1 -6 6.32z" fill="#e0e0e0"/><path d="m188.84 185.65h-121.68a9.2 9.2 0 0 1 -9.16-9.49l-4.85-87.4v-.17a9.18 9.18 0 0 1 9.17-8.69h131.37a9.18 9.18 0 0 1 9.17 8.69v.35l-4.86 87.22a9.2 9.2 0 0 1 -9.18 9.49zm-129.33-96.86 4.85 87.35v.17a2.8 2.8 0 0 0 .77 2.09 2.76 2.76 0 0 0 2 .88h121.71a2.76 2.76 0 0 0 2-.88 2.8 2.8 0 0 0 .77-2.09v-.31l4.84-87.17a2.8 2.8 0 0 0 -2.8-2.52h-131.34a2.8 2.8 0 0 0 -2.8 2.48z"/><path d="m75.75 125.56h45.48a0 0 0 0 1 0 0v61.8a0 0 0 0 1 0 0h-45.48a1.92 1.92 0 0 1 -1.92-1.92v-58a1.92 1.92 0 0 1 1.92-1.88z" fill="#64b5f6" transform="matrix(.94915111 -.31482087 .31482087 .94915111 -44.3 38.67)"/><path d="m88.63 194.82a9.3 9.3 0 0 1 -8.81-6.37l-15.61-47.06a9.3 9.3 0 0 1 5.9-11.74l42.21-14 21.46 64.7-42.21 14a9.32 9.32 0 0 1 -2.94.47zm19.65-71.13-36.17 12a2.95 2.95 0 0 0 -1.86 3.7l15.61 47.06a2.92 2.92 0 0 0 1.47 1.69 2.8 2.8 0 0 0 2.23.16l36.17-12z"/><path d="m67.95 126.82h45.48a0 0 0 0 1 0 0v12.18a0 0 0 0 1 0 0h-45.48a1.92 1.92 0 0 1 -1.95-1.88v-8.38a1.92 1.92 0 0 1 1.95-1.92z" fill="#e0e0e0" transform="matrix(.94915111 -.31482087 .31482087 .94915111 -37.29 35.01)"/><path d="m73 147.76a9.32 9.32 0 0 1 -8.83-6.36 9.3 9.3 0 0 1 5.9-11.75l42.21-14 5.85 17.63-42.13 14.01a9.29 9.29 0 0 1 -3 .47zm35.24-24.07-36.17 12a2.93 2.93 0 1 0 1.93 5.56l36.17-12z"/><path d="m136.36 130.84h45.48a0 0 0 0 1 0 0v61.8a0 0 0 0 1 0 0h-45.48a1.92 1.92 0 0 1 -1.92-1.92v-58a1.92 1.92 0 0 1 1.92-1.88z" fill="#64b5f6" transform="matrix(.20141985 .979505 -.979505 .20141985 284.7 -25.75)"/><path d="m130.18 194.93-9-43.56a9.31 9.31 0 0 1 7.23-11l48.56-10a9.31 9.31 0 0 1 11 7.23l9 43.56zm48.7-58.34a3 3 0 0 0 -.59.06l-48.56 10a2.93 2.93 0 0 0 -2.28 3.45l7.68 37.33 54.29-11.17-7.67-37.33a2.94 2.94 0 0 0 -2.87-2.34z"/><path d="m160.65 150.63h45.48a0 0 0 0 1 0 0v12.22a0 0 0 0 1 0 0h-45.48a1.92 1.92 0 0 1 -1.92-1.92v-8.38a1.92 1.92 0 0 1 1.92-1.92z" fill="#e0e0e0" transform="matrix(.20141985 .979505 -.979505 .20141985 299.19 -53.52)"/><path d="m178.74 184.94-9-43.56a9.29 9.29 0 0 1 18.2-3.74l9 43.56zm.14-48.35a3 3 0 0 0 -.59.06 2.9 2.9 0 0 0 -1.85 1.25 3 3 0 0 0 -.43 2.2l7.68 37.33 5.73-1.18-7.67-37.33a2.94 2.94 0 0 0 -2.87-2.33z"/><path d="m106.22 122.89h45.48a0 0 0 0 1 0 0v61.8a0 0 0 0 1 0 0h-45.48a1.92 1.92 0 0 1 -1.92-1.92v-58a1.92 1.92 0 0 1 1.92-1.92z" fill="#64b5f6" transform="matrix(.82224339 .56913602 -.56913602 .82224339 110.29 -45.51)"/><path d="m130.7 197.11-36.56-25.32a9.29 9.29 0 0 1 -2.35-12.92l28.21-40.77a9.3 9.3 0 0 1 12.93-2.35l36.56 25.31zm-3-76.64a2.9 2.9 0 0 0 -2.41 1.26l-28.29 40.76a2.93 2.93 0 0 0 .74 4.07l31.33 21.69 31.55-45.58-31.31-21.67a2.81 2.81 0 0 0 -1.66-.53z"/><path d="m120.33 127.29h45.48a0 0 0 0 1 0 0v12.22a0 0 0 0 1 0 0h-45.48a1.92 1.92 0 0 1 -1.92-1.92v-8.38a1.92 1.92 0 0 1 1.92-1.92z" fill="#e0e0e0" transform="matrix(.82224339 .56913602 -.56913602 .82224339 101.2 -57.17)"/><path d="m158.92 156.34-36.56-25.34a9.29 9.29 0 0 1 10.58-15.28l36.56 25.31zm-31.27-35.87a2.9 2.9 0 0 0 -2.41 1.26 2.93 2.93 0 0 0 .74 4.07l31.33 21.69 3.33-4.82-31.33-21.67a2.81 2.81 0 0 0 -1.66-.53z"/><path d="m0 0h256v256h-256z" fill="none"/></svg>