<?xml version="1.0" encoding="UTF-8"?>
<svg enable-background="new 0 0 30 30" version="1.1" viewBox="0 0 30 30" xml:space="preserve" xmlns="http://www.w3.org/2000/svg">
<style type="text/css">
	.st0{fill:none;}
</style>
<rect class="st0" width="30" height="30"/>
<path d="m22.9 8-5.8-3.3c-1.3-0.8-2.9-0.8-4.2 0l-5.8 3.3c-1.3 0.8-2.1 2.2-2.1 3.7v6.7c0 1.5 0.8 2.9 2.1 3.6l5.8 3.3c1.3 0.7 2.9 0.7 4.2 0l5.8-3.3c1.3-0.8 2.1-2.1 2.1-3.6v-6.7c0-1.5-0.8-2.9-2.1-3.7zm-9-1.6c0.7-0.4 1.5-0.4 2.2 0l5.8 3.3s0.1 0 0.1 0.1l-7 4-7-4s0.1 0 0.1-0.1l5.8-3.3zm-5.8 13.9c-0.7-0.4-1.1-1.2-1.1-2v-6.8l7 4v8.1h-0.1l-5.8-3.3zm14.9-2c0 0.8-0.4 1.5-1.1 1.9l-5.8 3.3h-0.1v-8.1l7-4v0.1 6.8z"/>
</svg>
