<?xml version="1.0" encoding="UTF-8"?>
<svg enable-background="new 0 0 11.3 14.2" version="1.1" viewBox="0 0 11.3 14.2" xml:space="preserve" xmlns="http://www.w3.org/2000/svg">
<path d="m6.1 4.2-4.6 6.6 0.1 1.6 1.5-0.4 4.6-6.6-1.6-1.2m0.5-1.5 2.4 1.7c0.4 0.3 0.6 0.9 0.3 1.3 0 0 0 0.1-0.1 0.1l-4.9 7c-0.2 0.2-0.3 0.3-0.6 0.5l-3.4 0.9-0.3-3.5c0-0.2 0.1-0.5 0.2-0.7l4.9-7c0.3-0.5 0.9-0.6 1.5-0.3-0.1 0-0.1 0 0 0z"/>
<path d="m10.1 3.4-2.9-2c-0.3-0.2-0.4-0.6-0.2-1v-0.1c0.3-0.3 0.7-0.4 1.1-0.2l2.9 2c0.3 0.2 0.4 0.7 0.2 1v0.1c-0.2 0.3-0.6 0.4-0.9 0.3-0.1-0.1-0.1-0.1-0.2-0.1z"/>
</svg>
