<svg viewBox="0 0 70 70" xmlns="http://www.w3.org/2000/svg"><path d="m47.71 18.16 15.34 15.34-15.34 15.34v-5.31l-2.37-1.06a38.85 38.85 0 0 0 -15.7-3.37 37.43 37.43 0 0 0 -5.89.47 31.32 31.32 0 0 0 -15.06 7 33.76 33.76 0 0 1 9.49-13.5 36.72 36.72 0 0 1 23.36-8.3c.66 0 1.29 0 1.93.06l4.24.25v-7m-4-9.66v12.46c-.47 0-1.21-.07-2.17-.07a40.74 40.74 0 0 0 -25.91 9.19c-13.01 10.86-14.18 28.93-14.34 31.5 1.41-2.07 9-15.7 23.1-18a32.42 32.42 0 0 1 5.25-.42 35 35 0 0 1 14.07 3v12.42l25-25-25-25z" fill="#bdbdbd"/><path d="m0 0h70v70h-70z" fill="none"/></svg>