<svg viewBox="0 0 70 70" xmlns="http://www.w3.org/2000/svg"><path d="m19.17 11.5h.06a13.48 13.48 0 0 1 12.13 7.94l3.64 8 3.64-8a13.48 13.48 0 0 1 12.13-7.94h.06a13.66 13.66 0 0 1 12.17 7.87c2.76 5.92-.41 12.19-2.11 15.55-2.31 4.59-5.49 7.29-13.1 13.51a147.23 147.23 0 0 1 -12.79 9.32 147.23 147.23 0 0 1 -12.74-9.32c-7.61-6.22-10.79-8.92-13.1-13.51-1.7-3.36-4.87-9.63-2.11-15.55a13.67 13.67 0 0 1 12.12-7.87m31.66-4h-.09a17.47 17.47 0 0 0 -15.74 10.29 17.47 17.47 0 0 0 -15.74-10.29h-.09a17.63 17.63 0 0 0 -15.75 10.18c-3.57 7.69.29 15.34 2.17 19 2.73 5.41 6.57 8.61 14.14 14.8a150.75 150.75 0 0 0 15.27 11.02 150.75 150.75 0 0 0 15.27-11c7.57-6.19 11.41-9.39 14.14-14.8 1.88-3.71 5.74-11.36 2.17-19a17.63 17.63 0 0 0 -15.75-10.2z" fill="#bdbdbd"/><path d="m0 0h70v70h-70z" fill="none"/></svg>