<svg viewBox="0 0 45 45.03" xmlns="http://www.w3.org/2000/svg"><path d="m4 15.43 15.5 9a1.39 1.39 0 0 1 .7 1.2v18a1.37 1.37 0 0 1 -1.4 1.37 1.85 1.85 0 0 1 -.7-.2l-15.5-9a1.39 1.39 0 0 1 -.7-1.2v-18a1.37 1.37 0 0 1 1.4-1.4 1.85 1.85 0 0 1 .7.23z"/><path d="m41 15.43-15.5 9a1.39 1.39 0 0 0 -.7 1.2v18a1.37 1.37 0 0 0 1.4 1.37 1.85 1.85 0 0 0 .7-.2l15.5-9a1.39 1.39 0 0 0 .7-1.2v-18a1.37 1.37 0 0 0 -1.4-1.4 1.85 1.85 0 0 0 -.7.23z"/><path d="m6.2 11.63 15.5 9a1.2 1.2 0 0 0 1.4 0l15.6-9a1.33 1.33 0 0 0 .5-1.89 1.15 1.15 0 0 0 -.5-.5l-15.5-9.01a1.17 1.17 0 0 0 -1.4 0l-15.6 9a1.33 1.33 0 0 0 -.5 1.89 1.17 1.17 0 0 0 .5.51z"/><path d="m0 0h45v45h-45z" fill="none"/></svg>