<svg viewBox="0 0 64 64" xmlns="http://www.w3.org/2000/svg"><path d="m36.2 1.43 20.15 11.63a8.41 8.41 0 0 1 4.2 7.28v23.27a8.39 8.39 0 0 1 -4.2 7.27l-20.15 11.63a8.35 8.35 0 0 1 -8.4 0l-20.15-11.63a8.39 8.39 0 0 1 -4.2-7.27v-23.27a8.41 8.41 0 0 1 4.2-7.28l20.15-11.63a8.4 8.4 0 0 1 8.4 0zm-6.7 32v17.46a2.5 2.5 0 0 0 2.5 2.5 2.5 2.5 0 0 0 2.5-2.5v-17.48l15.13-8.73a2.5 2.5 0 0 0 .92-3.42 2.5 2.5 0 0 0 -3.41-.91l-15.14 8.73-15.14-8.73a2.5 2.5 0 0 0 -3.41.91 2.5 2.5 0 0 0 .92 3.42z"/><path d="m0 0h64v64h-64z" fill="none"/></svg>