<svg enable-background="new 0 0 200 200" viewBox="0 0 200 200" xmlns="http://www.w3.org/2000/svg"><path d="m75.2 87.9h-35c-6.6 0-12-5.4-12-12v-35c0-6.6 5.4-12 12-12h35c6.6 0 12 5.4 12 12v35c0 6.6-5.4 12-12 12z" fill="none"/><path d="m75.2 87.9h-35c-6.6 0-12-5.4-12-12v-35c0-6.6 5.4-12 12-12h35c6.6 0 12 5.4 12 12v35c0 6.6-5.4 12-12 12z" fill="#ff595a" stroke="#ff595a" stroke-miterlimit="10" stroke-width="15"/><path d="m75.2 170.6h-35c-6.6 0-12-5.4-12-12v-35c0-6.6 5.4-12 12-12h35c6.6 0 12 5.4 12 12v35c0 6.6-5.4 12-12 12z" fill="none"/><path d="m75.2 170.6h-35c-6.6 0-12-5.4-12-12v-35c0-6.6 5.4-12 12-12h35c6.6 0 12 5.4 12 12v35c0 6.6-5.4 12-12 12z" fill="#ff595a" stroke="#ff595a" stroke-miterlimit="10" stroke-width="15"/><path d="m159.9 171.1h-35c-6.6 0-12-5.4-12-12v-35c0-6.6 5.4-12 12-12h35c6.6 0 12 5.4 12 12v35c0 6.6-5.4 12-12 12z" fill="none"/><g stroke="#ff595a" stroke-miterlimit="10" stroke-width="15"><path d="m159.9 171.1h-35c-6.6 0-12-5.4-12-12v-35c0-6.6 5.4-12 12-12h35c6.6 0 12 5.4 12 12v35c0 6.6-5.4 12-12 12z" fill="#ff595a"/><circle cx="142.4" cy="58.4" fill="none" r="29.5" stroke-linecap="round" stroke-linejoin="round"/></g></svg>