<svg enable-background="new 0 0 200 200" viewBox="0 0 200 200" xmlns="http://www.w3.org/2000/svg"><path d="m168.5 88.7v80.9c0 3.8-3.1 7-7 7h-123c-3.8 0-7-3.1-7-7v-80.9c0-1.9.8-3.7 2.2-5.1l61.5-58.3c2.7-2.5 6.9-2.5 9.6 0l61.5 58.3c1.4 1.3 2.2 3.2 2.2 5.1z" style="fill:none;stroke:#000;stroke-width:15;stroke-linecap:round;stroke-linejoin:round;stroke-miterlimit:10"/><path d="m71.5 120c-4.1 0-7.5-3.4-7.5-7.5v-16c0-4.1 3.4-7.5 7.5-7.5 4.1 0 7.5 3.4 7.5 7.5v16c0 4.1-3.4 7.5-7.5 7.5z"/><path d="m126.5 120c-4.1 0-7.5-3.4-7.5-7.5v-16c0-4.1 3.4-7.5 7.5-7.5 4.1 0 7.5 3.4 7.5 7.5v16c0 4.1-3.4 7.5-7.5 7.5z"/></svg>