<svg enable-background="new 0 0 200 200" viewBox="0 0 200 200" xmlns="http://www.w3.org/2000/svg"><path d="m171.9 77.9-61.4-58.4c-2.8-2.6-6.4-4.1-10.3-4.1s-7.5 1.4-10.3 4.1l-61.6 58c-3 2.8-4.7 6.8-4.7 10.9l-.2 80.9c0 8.3 6.7 15 14.9 15l123.1.3c8.3 0 15-6.7 15-14.9l.2-80.9c0-4.1-1.7-8.1-4.7-10.9zm-92.8 34.5c0 4.1-3.4 7.5-7.5 7.5s-7.5-3.4-7.5-7.5v-16c0-4.1 3.4-7.5 7.5-7.5s7.5 3.4 7.5 7.5zm55 0c0 4.1-3.4 7.5-7.5 7.5s-7.5-3.4-7.5-7.5v-16c0-4.1 3.4-7.5 7.5-7.5s7.5 3.4 7.5 7.5z" fill="#ff595a"/></svg>