<svg viewBox="0 0 64 64" xmlns="http://www.w3.org/2000/svg"><path d="m7 29.08 6.25-18.18h37.5l6.25 18.18a6.47 6.47 0 0 1 -.7 2.92 6.58 6.58 0 0 1 -1.67 2.08v19h-45.13v-19a8 8 0 0 1 -2.5-5zm30 3.82a8.61 8.61 0 0 0 5 1.6 9 9 0 0 0 7-3.5 2.5 2.5 0 1 0 -4-3 3.75 3.75 0 0 1 -6 0 2.49 2.49 0 0 0 -2-1 2.49 2.49 0 0 0 -2 1 4 4 0 0 1 -3 1.5 4 4 0 0 1 -3-1.5 2.49 2.49 0 0 0 -2-1 2.49 2.49 0 0 0 -2 1 4 4 0 0 1 -3 1.5 4 4 0 0 1 -3-1.5 2.5 2.5 0 1 0 -4 3 9 9 0 0 0 7 3.5 9.33 9.33 0 0 0 5-1.59 8.62 8.62 0 0 0 5 1.59 8.59 8.59 0 0 0 5-1.6zm-13.25 10.21a2.49 2.49 0 0 0 -2.5-2.5 2.49 2.49 0 0 0 -2.5 2.5v10h5z"/><path d="m0 0h64v64h-64z" fill="none"/></svg>