<svg enable-background="new 0 0 200 200" viewBox="0 0 200 200" xmlns="http://www.w3.org/2000/svg"><path d="m155.4 132 1.4 39.1-39.7-20.7c-5.5 1-11.2 1.6-17.1 1.6-41.5 0-75.1-27.6-75.1-61.6s33.6-61.6 75.1-61.6c41.4 0 75.1 27.6 75.1 61.6 0 16.1-7.5 30.7-19.7 41.6z" fill="none"/><path d="m155.4 132 1.4 39.1-39.7-20.7c-5.5 1-11.2 1.6-17.1 1.6-41.5 0-75.1-27.6-75.1-61.6s33.6-61.6 75.1-61.6c41.4 0 75.1 27.6 75.1 61.6 0 16.1-7.5 30.7-19.7 41.6z" style="fill:none;stroke:#000;stroke-width:15;stroke-linecap:round;stroke-linejoin:round;stroke-miterlimit:10"/><path d="m64.1 103c-4.1 0-7.5-3.4-7.5-7.5v-16c0-4.1 3.4-7.5 7.5-7.5 4.1 0 7.5 3.4 7.5 7.5v16c0 4.1-3.4 7.5-7.5 7.5z"/><path d="m119.1 103c-4.1 0-7.5-3.4-7.5-7.5v-16c0-4.1 3.4-7.5 7.5-7.5 4.1 0 7.5 3.4 7.5 7.5v16c0 4.1-3.4 7.5-7.5 7.5z"/><path d="m155.4 132 1.4 39.1-39.7-20.7c-5.5 1-11.2 1.6-17.1 1.6-41.5 0-75.1-27.6-75.1-61.6s33.6-61.6 75.1-61.6c41.4 0 75.1 27.6 75.1 61.6 0 16.1-7.5 30.7-19.7 41.6z" fill="none"/></svg>