<svg enable-background="new 0 0 200 200" viewBox="0 0 200 200" xmlns="http://www.w3.org/2000/svg"><path d="m183.1 90.5c0-38.4-37.3-69.6-83-69.6-45.8 0-83.1 31.2-83.1 69.6s37.3 69.6 83.1 69.6c5.3 0 10.6-.4 15.8-1.3l37.3 19.4c1.2.6 2.4.9 3.7.9 1.5 0 3-.4 4.3-1.2 2.4-1.5 3.8-4.2 3.7-7.1l-1.3-35.5c12.5-12.5 19.5-28.3 19.5-44.8zm-111.5 5c0 4.1-3.4 7.5-7.5 7.5s-7.5-3.4-7.5-7.5v-16c0-4.1 3.4-7.5 7.5-7.5s7.5 3.4 7.5 7.5zm55 0c0 4.1-3.4 7.5-7.5 7.5s-7.5-3.4-7.5-7.5v-16c0-4.1 3.4-7.5 7.5-7.5s7.5 3.4 7.5 7.5z" fill="#ff595a"/></svg>