<svg viewBox="0 0 33.99 16.33" xmlns="http://www.w3.org/2000/svg"><path d="m3.89 5.13v-1.13a1.05 1.05 0 0 1 1.36-.93 1.07 1.07 0 0 1 .6.44 1.11 1.11 0 0 1 .21.42v.89l.87-.1a1.23 1.23 0 0 1 .68.12 5.49 5.49 0 0 1 .48.41.52.52 0 0 1 .14.19.61.61 0 0 1 0 .19c0 .16-.4.46-1 .72l-1 .15a1.51 1.51 0 0 0 -.23.15l-.25.16a1.17 1.17 0 0 1 -.53.27c-.28 0-.37-.29-.64-.24-.07 0-.08 0-.26.08a1.8 1.8 0 0 1 -.32.08h-.18c-.48.08-1 .18-1.49.31l-.39.1-.07.09c-.08.08-.54 0-.71 0-.37 0-.39.06-.56 0a.92.92 0 0 1 -.5-.34 1.26 1.26 0 0 1 -.1-.69 1.65 1.65 0 0 1 1.47-1.11z"/><path d="m2.28 8.35c.54-.48.66-.53.77-.56a1.84 1.84 0 0 1 .33 0 5.41 5.41 0 0 0 1-.19 13.17 13.17 0 0 1 1.52-.3.61.61 0 0 1 .4 0s.27.1.3.28a.35.35 0 0 1 0 .14 1.52 1.52 0 0 1 -.37.57 2.42 2.42 0 0 1 -.93.44 6 6 0 0 1 -.73.2 2.32 2.32 0 0 1 -1 .27l-.39.09a.9.9 0 0 1 -.43 0 .82.82 0 0 1 -.39-.29c-.2-.19-.3-.28-.3-.4s.05-.1.22-.25z"/><path d="m6.66 11a.73.73 0 0 0 -.6-.35.85.85 0 0 0 -.41.19 4.85 4.85 0 0 1 -.91.3c-.81.25-1.16.46-1.33.31a.27.27 0 0 1 -.1-.17.33.33 0 0 1 .12-.23 14.86 14.86 0 0 1 2.35-.82.68.68 0 0 0 .38-.12 1.07 1.07 0 0 0 .16-.11c.24-.29.45-.85.27-1a.19.19 0 0 0 -.1-.05 1 1 0 0 0 -.55 0l-.24.05c-.37.11-3.65 1-4.14 1.23a1.42 1.42 0 0 0 -.39.29v.05c-.15.25.19.93.62 1a1 1 0 0 0 .42-.06l.18-.06c.06 0 .1-.06.12 0a.22.22 0 0 1 0 .18v.05l-.1.15c-.23.27.26 1.92.26 1.92.25.82.36 1.33.73 1.58.07 0 .25.18.41.12a.47.47 0 0 0 .2-.27c.14-.32 0-.45.15-.56s.3 0 .7-.09.32-.26.64-.3.32 0 .41-.09a.56.56 0 0 0 .1-.28.78.78 0 0 0 0-.16 1.82 1.82 0 0 1 .14-.89l.09-.13a2.46 2.46 0 0 0 .55-1 .92.92 0 0 0 -.13-.68zm-1.93 2.29a.91.91 0 0 1 -1.27.12.54.54 0 0 1 -.1-.39.31.31 0 0 1 .09-.22c.07-.05.14 0 .34 0a1.36 1.36 0 0 0 .45 0c.15 0 .22-.12.38-.11a.2.2 0 0 1 .11 0c.14.08.12.41 0 .61z"/><path d="m12.43 2.91c-.17.17-.1.5-.07.67a2.24 2.24 0 0 0 .54 1 1.62 1.62 0 0 0 1 .66 1 1 0 0 0 1-.34 1 1 0 0 0 .1-.48 1.69 1.69 0 0 0 0-.5c-.19-.91-1.81-1.21-2-1.21h-.26a.89.89 0 0 0 -.31.2z"/><path d="m17.34 15.53a.54.54 0 0 0 -.15-.29c-.31-.49 0-.86-.32-1.61l-.16-.35c-.21-.45-.32-.68-.4-.67s-.1.07-.14.39-.25.55-.41.54a.21.21 0 0 1 -.17-.08l-1.08-1.64s-.12-.15-.08-.24c.11-.13 1.45-1.81 1.16-2.33a.64.64 0 0 0 -.1-.13c-.21-.27-.61-.53-.87-.41s-.14.14-.31.55-.24.57-.31.72l-.07.11c-.07.11-.13.19-.21.2s-.14-.08-.16-.11c-.27-.5-.59-1.14-.94-1.88a3.76 3.76 0 0 1 .61-.36c.71-.37 1.53-.66 1.7-1.15a.85.85 0 0 0 0-.32 1 1 0 0 0 -.3-.56c-.4-.39-1.65-.08-2.93.32 0-.07-.12-.24-.22-.47-.73-1.9-1.05-4.68-1.55-5.49-.05-.07-.18-.27-.34-.27s-.2.11-.34.26l-.2.27c-.39.67 1.61 5.34 1.87 5.94-.5.16-1 .32-1.36.43a1.13 1.13 0 0 0 -.75.51.89.89 0 0 0 -.07.46c.09.7 1 1.08 1 1.09l-.7.64-.12.14a1 1 0 0 1 -.13.16.25.25 0 0 1 -.19 0 8.37 8.37 0 0 0 0-2 .77.77 0 0 0 -.08-.27 1.59 1.59 0 0 0 -.32-.36c-.2-.2-.2-.2-.28-.2-.22 0-.41.3-.48.41a1.3 1.3 0 0 1 -.08.17 40.55 40.55 0 0 0 -.4 6 .4.4 0 0 0 .08.2.5.5 0 0 0 .31.18c.26 0 .47-.38.56-.56a2.18 2.18 0 0 0 .24-.69.61.61 0 0 1 .16.12c.36.38 0 1.08.35 1.37a.8.8 0 0 0 .4.11 1.26 1.26 0 0 0 .73-.2 3.11 3.11 0 0 0 .94-1 10.47 10.47 0 0 0 1.38-2.52s0-.1.07-.2a2.06 2.06 0 0 1 .24-.44c.19.4.43.9.72 1.47l-.2.24c-1.17 1.44-.94 1.51-1.57 2.27a1.64 1.64 0 0 0 -.39.79.36.36 0 0 0 .07.24.32.32 0 0 0 .25.07 2.27 2.27 0 0 0 1.07-.64 5.16 5.16 0 0 0 .8-.82c.18-.26.21-.37.56-.93.34.64.73 1.33 1.15 2.05.08.13 1 1.66 1.71 1.59a1 1 0 0 0 .44-.17.73.73 0 0 0 .31-.65zm-7.64-3.09c-.31.51-.39.71-.55.71s-.23-.22-.53-.4a1.11 1.11 0 0 0 -.43-.15c0-.13 0-.26.05-.4s0-.08 0-.1a.57.57 0 0 1 .14-.1 1.2 1.2 0 0 1 .33 0h.27s.13 0 .52-.3l.13-.1c.21-.12.54-.2.62-.1s-.14.29-.55.95z"/><path d="m23 .34c-.26.11-.38.4-.51.7a1.42 1.42 0 0 0 -.11 1 1.07 1.07 0 0 0 .2.36l-2.13.3c-1.17.15-2 .25-2.22.72a1.42 1.42 0 0 0 -.06.42 2 2 0 0 0 .11.73 1.55 1.55 0 0 0 .14.29 1 1 0 0 0 .27.26c.21.12.46 0 1.51-.32l.31-.1c.24-.09.44-.09.48 0s0 .12 0 .16a.72.72 0 0 1 -.17.22c-.2.17-.13.6-.1.7s.14.78.61.85a.87.87 0 0 0 .84-.6c.12-.38-.13-.72.08-1a.3.3 0 0 0 .08-.24.31.31 0 0 0 -.22-.18c-.17 0-.3.06-.36 0a.19.19 0 0 1 0-.08s0-.08.11-.13a3 3 0 0 1 .93-.33c.91-.07 1.13-.31 1.21-.19s-.23.49-.85 1.37c-.91 1.29-.91 1.6-1.42 1.83a5.64 5.64 0 0 1 -1.21.3c-.5.09-.82.1-.94.33a.7.7 0 0 0 0 .53.83.83 0 0 0 .4.48c.45.19 1.22-.24 1.44-.37s.27-.15.35-.08a.14.14 0 0 1 0 .11c0 .17-.19.29-.31.37a7.64 7.64 0 0 0 -.69.53c-.3.26-.17.31-.49.63s-.67.48-.82.8a1.17 1.17 0 0 0 -.09.24.71.71 0 0 0 -.05.38.7.7 0 0 0 .85.32c.25-.11.19-.34.54-.63.16-.13.17-.08.47-.28a4 4 0 0 0 .57-.45c.35-.34.38-.54.57-.55a.64.64 0 0 1 .39.2.29.29 0 0 1 .08.14c0 .12-.1.23-.14.27-.44.4-.82.86-1.27 1.23-.28.24-.43.35-.51.43-.61.57-.5.66-.94 1-.23.19-.47.33-.55.61a.45.45 0 0 0 0 .28.54.54 0 0 0 .3.24c.32.08.61-.26 1.39-1.06 1.22-1.27.8-.76 1.2-1.2 0 0 .86-1 1-.84a.29.29 0 0 1 .07.22.47.47 0 0 1 -.16.25 17.14 17.14 0 0 0 -1.24 1.32c-.66.69-.78 1-1.21 1.31a1.81 1.81 0 0 0 -.34.28c-.2.2-.38.38-.36.6a.39.39 0 0 0 .12.24.52.52 0 0 0 .4.11c.33 0 .44-.35.94-.84.27-.26.24-.17.48-.41.42-.42.86-1.05 1.2-1.13h.05c.18.06.1.7 0 1.07s-.15.64-.32.67-.09 0-.46-.22a.49.49 0 0 0 -.37-.06h-.08c-.15.12-.06.43-.05.45.05.18.14.2.28.41s.12.34.23.47a1.1 1.1 0 0 0 1.3 0 1.19 1.19 0 0 0 .4-.51 9.63 9.63 0 0 0 .56-4.09 3.05 3.05 0 0 0 -.07-.67c-.1-.43-.24-.52-.19-.73s.36-.27.42-.58a.59.59 0 0 0 .13-.38.28.28 0 0 0 -.13-.11c-.18-.07-.49.18-.77.62a2.89 2.89 0 0 0 -.41-.15c-.26-.09-.4-.12-.41-.19s.1-.16.13-.18c.58-.41 1.13-.85 1.7-1.25.09-.06.94-.65 1-1.14a.4.4 0 0 0 -.11-.32.48.48 0 0 0 -.31-.1 1.25 1.25 0 0 0 -.38 0 3.83 3.83 0 0 0 -.88.31l-.24.08c-.14 0-.22 0-.24 0s0-.14.44-.66a10.65 10.65 0 0 1 1-1.11.76.76 0 0 0 .23-.3.6.6 0 0 0 .09-.32c0-.14-.06-.21 0-.31a.28.28 0 0 1 .07-.09.75.75 0 0 1 .35-.13c.26 0 .27 0 .36-.06s.17-.14.26-.26c.29-.38.5-.31.67-.63a.59.59 0 0 0 .08-.52c-.11-.27-.61-.35-.95-.26-.17.05-.17.11-.42.19a2.52 2.52 0 0 1 -.61.11c-.18 0-.43.05-.75.11a1.24 1.24 0 0 0 0-.43c-.11-.87-1.13-1.62-1.77-1.38z"/><path d="m31.89 13.21-1.56-1 .8-1.06c.21-.28.53-.69.41-.85a1.48 1.48 0 0 0 -.31-.25s-.1-.06-.1-.12a.12.12 0 0 1 0-.09 9.09 9.09 0 0 1 2-.35h.06c.07-.06 0-.2 0-.38s0-.29 0-.43c0-.32 0-.35 0-.42-.15-.32-1.56 0-2.58.22-.44.1-1.33.31-2 .43a.53.53 0 0 1 0-.25.55.55 0 0 1 .39-.31 6.93 6.93 0 0 1 1.35-.46c1.59-.32 1.65-.63 1.65-.69a2.27 2.27 0 0 0 0-.58 1.1 1.1 0 0 0 -.3-.52c.19-.17.48-.43.85-.74.86-.74 1.17-.94 1.26-1.38a1 1 0 0 0 -.13-.8.81.81 0 0 0 -.4-.28 2.16 2.16 0 0 0 -1.36.1c-1.61.49-2 .69-2.32.64a.77.77 0 0 0 -.52 0c-.17.09-.21.21-.35.21s-.13 0-.34-.23c-.37-.31-.44-.34-.51-.33s-.16.06-.25.29a1.82 1.82 0 0 0 -.16.31 9.44 9.44 0 0 0 0 2.19 7.64 7.64 0 0 0 .34 2.47l.23.33h-.04c-.5.07-.57.06-.67.14a.32.32 0 0 0 -.1.1h-.14c-.1 0-.18.07-.22 0s.05-.18.08-.36a.88.88 0 0 0 -.13-.57c-.08-.15-.27-.51-.6-.54a.58.58 0 0 0 -.4.13c-.25.21-.14.56-.23 1.08a5.74 5.74 0 0 1 -.34.9c-.29 1.1.8 2.66 1.47 2.59a.6.6 0 0 0 .47-.41c.07-.24-.1-.49-.36-.86-.4-.56-.72-.75-.65-1s.16-.1.35-.35.09-.24.22-.34a.56.56 0 0 1 .17-.09l.2-.05v.16a.77.77 0 0 0 .05.45.48.48 0 0 0 .17.23c.5.39 1.82-.13 2.58-.3.08 0 .27-.05.34 0v.09c.06.27-.21.5-.51.87a5.24 5.24 0 0 0 -.44.61 8 8 0 0 0 -1.47-.71.35.35 0 0 0 -.28 0 .31.31 0 0 0 -.11.27c0 .43 1 1.19 1.07 1.27a5.61 5.61 0 0 1 -1.41 1.34c-.57.36-1.47.78-1.44 1.11a.2.2 0 0 0 .06.14c.1.1.27 0 .51.08.09 0 .08.06.16.08a.51.51 0 0 0 .4-.07 8.68 8.68 0 0 0 2.34-1.69h.05l.09-.05a1 1 0 0 1 .33.21 12.91 12.91 0 0 0 2.8 2c.85.41 1.13.29 1.24.22a.73.73 0 0 0 .29-.58c.06-.26-.4-.66-2.05-1.77zm-3-8.11a.16.16 0 0 1 .12 0c.17 0 .18.23.35.29a.55.55 0 0 0 .38 0c.12 0 .19-.09.26 0a.14.14 0 0 1 .09.11c.06.2-.3.3-.62.76-.16.24-.25.47-.46.49a.17.17 0 0 1 -.1 0c-.2-.07 0-.56-.09-1.18 0-.21-.02-.4.08-.47z"/></svg>