<?xml version="1.0" encoding="UTF-8"?>
<svg enable-background="new 0 0 25 25" version="1.1" viewBox="0 0 25 25" xml:space="preserve" xmlns="http://www.w3.org/2000/svg">
<g transform="translate(-138 -308)">
	<path d="m147.3 323.7c1.4 1.4 3.6 1.7 5.3 0.7l-6.1-6.1c-0.9 1.8-0.6 4 0.8 5.4z"/>
	<path d="m148.3 316.6 6.1 6.1c1.2-2.2 0.4-4.9-1.7-6.1-1.4-0.8-3-0.8-4.4 0z"/>
	<path d="m150.5 308c-6.9 0-12.5 5.6-12.5 12.5s5.6 12.5 12.5 12.5 12.5-5.6 12.5-12.5-5.6-12.5-12.5-12.5zm4.9 17.4c-2.7 2.7-7.2 2.7-9.9 0s-2.7-7.2 0-9.9 7.2-2.7 9.9 0c2.8 2.8 2.8 7.2 0 9.9 0.1 0 0 0 0 0z"/>
</g>
</svg>
