<svg enable-background="new 0 0 35 50" viewBox="0 0 35 50" xmlns="http://www.w3.org/2000/svg"><g transform="translate(101.67 -1253.58)"><path d="m-85.2 1278.7h-4.3v-7.7h-4.3v7.7h-3.5v-12.1c-2.4 0-4.3 1.9-4.3 4.3v12.1h7.8v6.8h4.3v-6.8h4.3z"/><path d="m-66.7 1289.8h-15.6v-4c0-1.6.6-3.2 1.5-4.5 1.2-1.5 2.8-2.6 4.6-3.3 1.5-.6 2.8-1.4 4-2.5.3-.3.6-.7.8-1.1.3-.6.3-1.2.1-1.8-.3-.6-.7-1.1-1.3-1.3-.6-.3-1.3-.5-2-.4-.6 0-1.2.1-1.8.3-.3.1-.7.3-.9.5-.2.1-.3.3-.5.5-.1.2-.2.3-.2.5l-4.3-.6c.1-.7.3-1.4.7-2s.9-1.2 1.4-1.7c.7-.5 1.4-1 2.2-1.3 1.1-.4 2.2-.6 3.3-.6 1.4 0 2.8.3 4 .9 1.5.8 2.6 2 3.3 3.5.6 1.6.6 3.4-.1 5-.4 1-1 1.9-1.8 2.6-1.5 1.4-3.3 2.5-5.2 3.3-1.1.4-2.1 1-2.9 1.9-.3.5-.5 1-.6 1.5h11.2z"/></g><path d="m0 0h35v50h-35z" fill="none"/></svg>