<svg viewBox="0 0 346.35 53.57" xmlns="http://www.w3.org/2000/svg"><path d="m26.79 0a26.79 26.79 0 1 0 26.78 26.79 26.78 26.78 0 0 0 -26.78-26.79zm0 43.57a16.79 16.79 0 1 1 16.78-16.78 16.8 16.8 0 0 1 -16.78 16.78z"/><path d="m144.93 10v-10h-26.68a10 10 0 0 0 -10 10v43.57h36.68v-10h-26.68v-11.78h23.47v-10h-23.47v-11.79z"/><path d="m84.29 0h-12.47a10 10 0 0 0 -10 10v43.57h10v-21.78h12.47a15.89 15.89 0 0 0 15.89-15.9 15.89 15.89 0 0 0 -15.89-15.89zm0 21.79h-12.47v-11.79h12.47a5.9 5.9 0 0 1 0 11.79z"/><path d="m184.64 0v26.8c0 1.5 0 3.1.13 4.77.08 1.35.2 2.63.34 3.85l-22.11-35.42a10 10 0 0 0 -10 10v43.57h10v-26.78c0-1.3 0-2.69-.06-4.17s-.23-3.09-.41-4.47l22.14 35.42h10v-53.57z"/><path d="m226.91 10v24.82a8.67 8.67 0 0 1 -7.49 8.69 8.48 8.48 0 0 1 -8.7-4.85l-9.08 4.23a18.53 18.53 0 0 0 24.59 9c.24-.11.45-.24.68-.36l.24-.14a17.34 17.34 0 0 0 2.85-1.95 17.91 17.91 0 0 0 2.57-2.44l.26-.32c.2-.25.41-.51.6-.77s.51-.74.74-1.12c.09-.14.17-.29.25-.44.21-.35.4-.72.58-1.08l.15-.3a18.55 18.55 0 0 0 1.15-3.18v-.09c.14-.55.26-1.1.35-1.67.09-.56.15-1.14.19-1.72a1.41 1.41 0 0 1 0-.2c0-.31 0-.63 0-1v-35.11a10 10 0 0 0 -9.93 10z"/><path d="m285.67 0-14.88 21.31-14.88-21.31a10 10 0 0 0 -10 10v43.57h10c0-13.19 0-23 0-26.78 0-.76 0-2.58-.15-5s-.38-4.13-.54-5.28l15.57 22.34 15.57-22.35q-.33 2.46-.51 5.22c-.12 1.78-.17 3.47-.18 5.07v26.78h10v-53.57z"/><path d="m346.35 32.73v-32.73h-10v32.42a11 11 0 0 1 -9.8 11.1 10.84 10.84 0 0 1 -11.88-10.79v-32.73a10 10 0 0 0 -10 10v22.22c0 11.29 8.76 20.91 20 21.34a20.87 20.87 0 0 0 21.65-20.83z"/></svg>