<svg viewBox="0 0 225 223.45" xmlns="http://www.w3.org/2000/svg"><g fill="#fff"><path d="m224.44 106h-223.95l-.49-4.61h30.84c2.24-3.17.92-6.19-.05-9.38h15.55c-1.9 3.28-2.33 6.38-.07 9.46h19.81c2.39-3.1 1.2-6.27 0-9.44h16.92c-1.07 7.06-1.07 7.06.41 9.43h58.17c2.25-3.06 1.84-6.16.07-9.46h17.35c-1.43 3.25-2.45 6.41-.11 9.45h19.79c2.2-3.08 1.86-6.12 0-9.35h15.82c-1.63 3.25-2.16 6.24-.41 9.27h30.91z"/><path d="m52.79 28.26a11.39 11.39 0 0 0 -1.55-5.85c5.48 3.1 10.68 3.93 16.1 2 .85 1 .12 2.15.4 3.1.75.49 1.46.28 2.44.16a130.37 130.37 0 0 0 1.46-18.55c13 6.45 26.84 7.75 40.82 7.75s27.74-1.27 40.81-7.74a142.58 142.58 0 0 0 1.47 18.36 2.78 2.78 0 0 0 2.41 0c.37-.95-.29-2 .32-3.11a18 18 0 0 0 16.08-2 11.86 11.86 0 0 0 -1.31 5.86 22.2 22.2 0 0 1 -10.24 2.76q-49.62.08-99.23 0a21.05 21.05 0 0 1 -9.98-2.74z"/><path d="m141.65 49.07h-58.35v-14.42h58.35z"/><path d="m68.72 32.92h12.07v56.85h-12.07z"/><path d="m144.17 89.81v-56.81h12.12v56.81z"/><path d="m192.39 89.59h-11v-38.22c3.62-.34 7.28-.27 11-1.21z"/><path d="m32.71 50.17a56 56 0 0 0 10.88 1.1v38.29h-10.88z"/><path d="m29.58 48.23c-.07 1.46-.12 2.57-.18 3.71-2.65-.74-5.55-5.19-5.81-9.12a12.07 12.07 0 0 0 9.54 1.53c.75.55.19 1.45.67 2.1.72.44 1.49.17 2.44.15.32-3.85.63-7.61 1-11.74a70 70 0 0 0 29.06 5v9.4c-12.19-.19-24.36.64-36.72-1.03z"/><path d="m70.52 4.83c-.36 5-.71 9.79-1.06 14.58h-.75c-.92-6.27 2.59-13-2.29-19.4 14.85 7.84 30.19 10.49 46 10.5s31.21-2.64 46.07-10.51c-4.83 6.36-1.35 13.09-2.56 19.4-1.16-4.76-.89-9.66-1.55-14.57-27.95 11.52-55.74 11.5-83.86 0z"/><path d="m179 53.14v11.74h-20.28v-11.74z"/><path d="m66.22 64.93h-20.16v-11.77h20.16z"/><path d="m36.19 30.37c-.37 3.82-.69 7.13-1 10.51-1.54-.35-1.19-1.19-1.07-1.88.61-4.66.48-9.1-3.3-12.8.73.34 1.5.64 2.21 1a62.82 62.82 0 0 0 31.67 7.95c1.33 0 1.33 0 1.58 1.51-10.39 0-20.46-1.23-30.09-6.29z"/><path d="m194.1 26.2c-1.55 2.19-3 4.13-3.36 6.72s.07 4.89-.27 7.4c-1.65-3-1-6.39-1.82-9.9-9.49 5-19.57 6.21-30 6.27-.37-1.79.79-1.53 1.63-1.53a66.73 66.73 0 0 0 20.33-3 82.53 82.53 0 0 0 11-4.78c.87-.38 1.67-.77 2.49-1.18z"/><path d="m131.54 52.57h9.89c.43 2.12.14 4.25.22 6.71l-3.5-1.81-.47-1.47c-1.92-1.55-4.25-2-6.14-3.43z"/><path d="m83.45 52.55h9.93c-1.83 1.51-4.18 1.87-6.16 3.52l-.43 1.39-3.34 1.74z"/><path d="m22.77 117.85a3.47 3.47 0 0 1 -.07-2.25h179.36a2.4 2.4 0 0 1 .14 2.25z"/><path d="m214.05 109.78a3.16 3.16 0 0 1 .07 2.21h-203.18a2.54 2.54 0 0 1 -.06-2.21z"/><path d="m141.68 139c2.56.46 4.82-1.93 7.47-.33-.8 2.52-2.21 4.13-4.79 4.66-.54 3.46-3.69 5.37-5.34 8.81l4.55-1.36c1.63.59 1.33 1.59.75 2.69-.92 1.71-2.66 2.55-4 3.76-1 .91-2.33 1.56-3.09 2.73a1.44 1.44 0 0 0 1.64 1c.85-.34 1.27-1.34 2.16-1.35.63.12 1.06.56.9.93-1.79 4 .25 8.17-.45 12.22a24 24 0 0 1 -1.62 6.43c-.92 1.91-2.29 2.89-4.59 2.13-.49-1.38-2.08-2.45-1.45-4.45l2.3.53c1.15-1.34 1.31-2.94 1.14-5.06-3.2 2.18-4.91 5.59-8 7.38-1.53-1.37-.71-2.31.18-3.13a87.35 87.35 0 0 0 6.56-7.59 3.66 3.66 0 0 0 1.24-2.9c-2.35 1.59-3.76 3.52-5.5 5.09s-2.39 4.35-5.26 4.37c-.94-1.37-.1-2 .56-2.71 2.46-2.58 4.93-5.14 7.4-7.71.5-.53 1.17-.95 1.25-1.81a1.3 1.3 0 0 0 -1.67-.86c-1.58 2.14-4.3 3.23-5.67 5.6a2.21 2.21 0 0 1 -2.36-1c.4-3.94 4.55-5.48 6.36-8.71-1.84-.23-3.57 2-5.26.1a2.07 2.07 0 0 1 -.12-2.85c7 .08 9.27-5.53 12.18-11.13-2.28.28-4.1.42-5.67 1.53 1.4 2.57 1 5.13-1.09 6.79-2.52-.49-3-1.83-1.78-5.61-2-.3-3.68 1.07-5.71 1.18-2.57-1.31-1.77-3.62-1.69-5.95 3.71-1.82 7.88-1.33 11.74-2.56.11-2.06-.3-4.24 1.37-5.84 3.17-.45 4.5.78 5.36 4.98z"/><path d="m82.23 150.07c-2.07 3.15-6.32 1.85-8.48 4.6-2.44-1.12-4.75-.17-7 .28s-4.42 1.58-6.89 1.49a2.85 2.85 0 0 1 -1.67-3.63c.45-2 2.07-2.83 3.89-3.14 2.32-.39 4.67-.58 7-.86.53-2.36 0-5 2.56-6.39 2.91-.1 3.59.66 4.47 5.06 1.25.55 2.61 0 4 .25a4.74 4.74 0 0 1 2.12 2.34z"/><path d="m64.13 159.91c1.76-3 10.59-5.61 13.34-3.86-1.29 3.85-5 4.06-8 4.94-3.64 1.07-3.87.79-5.34-1.08z"/><path d="m102 148-2.88.85a7.08 7.08 0 0 1 -4.12-6.92c1.51-1.79 3-.69 4.5.12 2.64 1.51 3.14 2.7 2.5 5.95z"/><path d="m82.37 171.24 2.76 1.9c1.64-1.25 2.32-3 3.05-4.77-2 .72-4.28.95-6 2.71l.23.16.07 1.95c-1 .92-1.07 2.62-2.66 2.73-1.61-1.91-.56-19.31 1.28-21.06 1.16-.1 1.84 1.09 2.7 1.75v1.95 4.67c1.27-.48 2-1.4 3-2.7l-3-2.68v.55-1.79l.17.1c.73-3.32 4-2.77 6.24-4.19-1-3.82-2.54-7.32-3.79-10.94a41.3 41.3 0 0 1 -1.51-4.65c-.33-1.52-.47-3.15 1.43-3.94 1.39.57 1.72 1.81 2.06 3 1.21 4.28 2.39 8.57 3.62 12.84a4.93 4.93 0 0 0 1.11 2.5c1.69.29 3.23-.66 4.89-.88a5.93 5.93 0 0 1 3.29 0 2.22 2.22 0 0 1 1.38 2.1 2.17 2.17 0 0 1 -1.28 2.14c-1.8 1-3.55 2.13-5.44 3.27 0 2.58 1.63 4.3 2.91 6.38 1.73-1.4 1.83-3.48 3.17-4.92a3.42 3.42 0 0 1 2.49 1.57c-.16 2.86-2 4.91-3.39 7.33.63 2.28 2.24 4 3.49 5.8 1.47 0 1.47-1.37 2.34-1.92 2.11 2.47 1.5 5.8 2.75 8.4a3.4 3.4 0 0 1 -1.82 2.3c-2.79-.55-4-2.83-5.25-4.83s-2.28-4-3.51-6.28c-2.4 2.91-4.12 6-7.36 7.43-1.41-1-.79-1.74-.22-2.57a62.23 62.23 0 0 0 5.5-8.53 5.75 5.75 0 0 0 -2-3.33c-3.8 3.88-3.67 11.38-11 12.4l-1-4.41c-.09.05-.39.28-.47.34z"/><path d="m154.35 149 1.71.27a7.05 7.05 0 0 1 -3.17 3.79 10 10 0 0 1 0-4.29l1.47.23v-5c-.42 0-1.61.15-2 .16-.74-.25-1.16-1.23-2.72-.8-1.29 5.43-.68 10.94.29 16.49a4.43 4.43 0 0 1 -2.24.78c-.54-1.42-.33-3.21-2-4a1.62 1.62 0 0 0 -2.09 1.43 44.27 44.27 0 0 0 -.87 6.14 7.36 7.36 0 0 0 3 6.54c1.19.07 2-.23 2.25-1.47-.32-1.93-2.23-3.08-2.67-5a4.65 4.65 0 0 1 2.13-2.37l1 2.27c2.86 1.3 5.39-1.56 8.38-.47-.8 1.71-1.43 3.19-2.72 4.15-1.87-.27-3.1-2.3-5.21-1.54-.31 2.26 2.25 2.92 2.52 4.92-1.94 2.82-5.1 4.42-7.57 6.57a1.51 1.51 0 0 0 1.83 1c3.52-.5 5.49-3.48 8-5.32 1.06.17 1.52.91 2.11 1.45a54.07 54.07 0 0 0 7.52 5.53c1.09.69 2.29 1 3.23-.11s.36-2.28-.44-3.21a18.55 18.55 0 0 0 -2.57-2.44c-2.08-1.64-4.22-3.19-6.37-4.8 1-2.51 3.84-4.2 2.38-7.33 1.88-.64 3.8-.52 5.51-1.45v-3.63c-4.23 0-8.1 1.66-12.88 1.86 3.12-2.69 6.77-2.5 9.32-4.19.63-1.44-.11-2.53-.39-4.19 1.43-1.31 3.14-2.73 4.65-4.34a3.29 3.29 0 0 0 .63-4.11c-1-1.55-2.43-1-3.8-.56a50.73 50.73 0 0 1 -8.12 2z"/><path d="m69.8 174.76c2 .05 2.53-.67 2.19-2.62-1.26-.34-2.39.55-3.6.41a1.4 1.4 0 0 0 .27 2.13c.27 0 .91.07 1.14.08l1 3.12-.56.21-.88 2.15c-2.68-.49-4.87-6.66-4.19-11.66-.68-.56-1.42.33-2 0-1.41-.47-1.43-1.67-1.76-2.63 1.36-1.77 14.09-5.62 16.13-4.88.18 1.78-.56 2.8-2.37 3.31-2 .56-3.91 1.36-5.83 2.11-.64.25-1.46.48-1.37 1.84 3-.32 5.57-1.54 8.18-2.5 1.18.28 1.65 1.1 2.1 2.19-.75 2.69-2.74 5.08-2.79 8.21l-4.65 1.68z"/><path d="m79.87 221.24 2.46 1.76c-3.36.57-6.18.26-9 .29-.27-1.51 1.67-1 1.73-2.06v-14.18c-.58-1.07-1.62.16-2.4-.79a16.92 16.92 0 0 0 3.85-3.79 6.17 6.17 0 0 1 3.41-.16z"/><path d="m125.78 223.16h-8.64c-.13-1.35 1.57-.94 1.79-2v-14.34c-.78-.74-1.62.38-2.49-.31 1.24-1.5 3.11-2.4 3.92-4a6 6 0 0 1 3.44-.13v18.77c.31 1 1.65.78 1.98 2.01z"/><path d="m100.17 203.18c1.6.6 2.63 2.5 2.61 5 0 3.2-1.56 5.46-3.73 5.5-2.4 0-3.69-1.94-3.68-6.3.11-1.72.32-4.09 3.4-4.35a4.06 4.06 0 0 1 1.4.18l-.08-1.12a12.9 12.9 0 0 0 -4.77.5 6.65 6.65 0 0 0 -4.73 5.82c-.31 2.62.34 5 2.63 6.5 2.46 1.61 4.89.76 7.23-.54.76-.42 1.31-1.32 2.35-1.15 1 3.53.15 7.59-1.81 8.86a3 3 0 0 1 -4.24-.54l-.34-2.63c-1.84-.54-3.61-1.28-4.65 1 .27 1.61 1.4 2.21 2.58 2.74a9.77 9.77 0 0 0 10.87-2.05 11.69 11.69 0 0 0 2.27-12.48 9.71 9.71 0 0 0 -7.39-6z"/><path d="m138.72 213.5a15.19 15.19 0 0 1 8.26 3.36c2 1.45 1.76 3.57-.21 4.65-2.6 1.41-8 .12-9.71-2.33-1.17-1.7-.76-3.4 0-5.08a3.91 3.91 0 0 0 -2.63 4.23 4.09 4.09 0 0 0 3 3.82 15.47 15.47 0 0 0 9.65.33c3.36-.95 5.32-3.15 5.31-5.81s-2.48-5.13-5.77-6c-2.1-.55-4.29-1-6.09-2.33a3 3 0 0 1 -1.34-3.07c.25-1.29 1.26-1.67 2.35-2 4.79-1.36 8.26 1.53 7.75 6.45v-.08c2.71-2 2.64-4.76-.18-6.43-2.4-1.43-5.07-1.28-7.68-1.1s-5.29 1.14-6.36 3.9c-1 2.55 0 4.78 2.09 6.5z"/><path d="m195.36 48.23c.07 1.46.12 2.57.18 3.71 2.65-.74 5.55-5.19 5.81-9.12a12.07 12.07 0 0 1 -9.54 1.53c-.75.55-.19 1.45-.67 2.1-.72.44-1.49.17-2.44.15-.32-3.85-.63-7.61-1-11.74a70 70 0 0 1 -29.06 5v9.4c12.19-.19 24.36.64 36.72-1.03z"/></g></svg>