<svg height="30" viewBox="0 0 30 30" width="30" xmlns="http://www.w3.org/2000/svg"><path d="m0 0h30v30h-30z" fill="none"/><path d="m-93.025 281.631a9.01 9.01 0 0 0 -9 9 9.01 9.01 0 0 0 9 9 9.01 9.01 0 0 0 9-9 9.01 9.01 0 0 0 -9-9zm-7 9a6.948 6.948 0 0 1 1.038-3.65l10.114 9.272a6.95 6.95 0 0 1 -4.152 1.378 7.008 7.008 0 0 1 -7-7zm12.576 4.213-10.257-9.4a6.962 6.962 0 0 1 4.681-1.81 7.008 7.008 0 0 1 7 7 6.955 6.955 0 0 1 -1.424 4.21z" fill="#9ba0a6" transform="translate(108.025 -275.631)"/></svg>