<svg height="30" viewBox="0 0 30 30" width="30" xmlns="http://www.w3.org/2000/svg"><g fill="#9ba0a6" transform="translate(-1077.19 -259.286)"><path d="m1092.192 266.546-7 2.333v4.206a7.985 7.985 0 0 0 3.564 6.658l3.436 2.287 3.438-2.291a7.987 7.987 0 0 0 3.562-6.658v-4.206l-7-2.332m0-2a2.011 2.011 0 0 1 .634.1l7 2.334a2 2 0 0 1 1.364 1.893v4.209a10 10 0 0 1 -4.453 8.322l-3.44 2.293a2 2 0 0 1 -2.214 0l-3.439-2.293a10 10 0 0 1 -4.454-8.322v-4.209a2 2 0 0 1 1.365-1.893l7-2.334a2 2 0 0 1 .637-.1z"/><path d="m1092.192 269.546a1 1 0 0 1 1 1v4a1 1 0 0 1 -1 1 1 1 0 0 1 -1-1v-4a1 1 0 0 1 1-1z"/><path d="m1092.192 276.546a1 1 0 0 1 1 1 1 1 0 0 1 -1 1 1 1 0 0 1 -1-1 1 1 0 0 1 1-1z"/></g><path d="m0 0h30v30h-30z" fill="none"/></svg>