<svg viewBox="0 0 16 16" xmlns="http://www.w3.org/2000/svg"><path d="m11.93 4.63s0 0 0 0a1.13 1.13 0 0 0 -.12-.18 1.1 1.1 0 0 0 -.09-.14 1 1 0 1 0 .28.77s0-.08 0-.08a1.16 1.16 0 0 0 -.07-.37z"/><path d="m12 0h-8a4 4 0 0 0 -4 4v8a4 4 0 0 0 4 4h8a4 4 0 0 0 4-4v-8a4 4 0 0 0 -4-4zm2 12a2 2 0 0 1 -2 2h-8a2 2 0 0 1 -2-2v-2.19l2.53-1.4a.36.36 0 0 1 .36 0l4.84 3.23 3.27-1.33a.39.39 0 0 1 .26 0l.78.33zm0-3.53a2.37 2.37 0 0 0 -1.81 0l-2.19.93-4-2.64a2.38 2.38 0 0 0 -2.44-.1l-1.56.87v-3.53a2 2 0 0 1 2-2h8a2 2 0 0 1 2 2z"/></svg>