<svg viewBox="0 0 16 16" xmlns="http://www.w3.org/2000/svg"><g fill="#212121"><path d="m10.88 7.5a1 1 0 1 0 0-2h-.14l.13-.86a1 1 0 0 0 -.87-1.13 1 1 0 0 0 -1.13.85l-.15 1.14h-1l.13-.86a1 1 0 0 0 -.85-1.13 1 1 0 0 0 -1.13.85l-.15 1.14h-.34a1 1 0 1 0 0 2h.06l-.14 1h-.17a1 1 0 0 0 -1 1 1 1 0 0 0 .88 1l-.12.88a1 1 0 0 0 .85 1.13h.14a1 1 0 0 0 1-.86l.12-1.15h1l-.12.86a1 1 0 0 0 .85 1.13h.14a1 1 0 0 0 1-.86l.13-1.13h.85a1 1 0 1 0 0-2h-.56l.14-1zm-2.58 1h-1l.14-1h1z"/><path d="m12 0h-8a4 4 0 0 0 -4 4v8a4 4 0 0 0 4 4h8a4 4 0 0 0 4-4v-8a4 4 0 0 0 -4-4zm2 12a2 2 0 0 1 -2 2h-8a2 2 0 0 1 -2-2v-8a2 2 0 0 1 2-2h8a2 2 0 0 1 2 2z"/></g></svg>