<svg viewBox="0 0 16 16" xmlns="http://www.w3.org/2000/svg"><path d="m12 16h-8a4 4 0 0 1 -4-4v-8a4 4 0 0 1 4-4h8a4 4 0 0 1 4 4v8a4 4 0 0 1 -4 4zm-8-14a2 2 0 0 0 -2 2v8a2 2 0 0 0 2 2h8a2 2 0 0 0 2-2v-8a2 2 0 0 0 -2-2z"/><path d="m5.5 8.5a1 1 0 0 1 -1-1v-1a1 1 0 0 1 2 0v1a1 1 0 0 1 -1 1z"/><path d="m10.5 8.5a1 1 0 0 1 -1-1v-1a1 1 0 0 1 2 0v1a1 1 0 0 1 -1 1z"/><path d="m7.86 11.94a3.43 3.43 0 0 1 -1.93-.62 1 1 0 0 1 1.14-1.64 1.52 1.52 0 0 0 .93.26 1.58 1.58 0 0 0 1-.27 1 1 0 0 1 1 1.66 3.62 3.62 0 0 1 -2 .61z"/></svg>