<svg viewBox="0 0 64 64" xmlns="http://www.w3.org/2000/svg"><path d="m9.37 52.41v-40.77a6.93 6.93 0 0 1 6.93-6.93h31.4a6.94 6.94 0 0 1 6.93 6.93v40.77a6.93 6.93 0 0 1 -6.93 6.93h-31.4a6.93 6.93 0 0 1 -6.93-6.93zm35.32-33.73a2.43 2.43 0 0 0 -2.43-2.44h-20.47a2.44 2.44 0 0 0 -2.44 2.44 2.44 2.44 0 0 0 2.44 2.44h20.47a2.43 2.43 0 0 0 2.43-2.44zm-9.79 9.88a2.44 2.44 0 0 0 -2.44-2.44h-10.67a2.44 2.44 0 0 0 -2.44 2.44 2.44 2.44 0 0 0 2.44 2.44h10.67a2.44 2.44 0 0 0 2.44-2.44z"/><path d="m0 0h64v64h-64z" fill="none"/></svg>