<svg viewBox="0 0 128 128" xmlns="http://www.w3.org/2000/svg"><path d="m0 .17h128v128h-128z" fill="none" transform="translate(0 -.17)"/><rect fill="none" height="95.97" rx="47.98" stroke="#000" stroke-miterlimit="10" stroke-width="10.65" width="95.97" x="16.02" y="16.02"/><path d="m53.05 91.87h-8l2-14.3h-12.3l1.3-7.6h12.2l2-13.5h-12.5l1.2-7.6h12.4l1.9-12.4h8l-1.9 12.4h13.65l1.9-12.4h8l-1.9 12.4h12.3l-1.2 7.6h-12.25l-2 13.5h12.5l-1.2 7.6h-12.5l-2 14.3h-8l2-14.3h-13.6zm5.2-35.4-2 13.5h13.6l2-13.5z" transform="translate(0 -.17)"/></svg>