<svg enable-background="new 0 0 200 200" viewBox="0 0 200 200" xmlns="http://www.w3.org/2000/svg"><clipPath><path d="m-43-197h156v156h-156z"/></clipPath><clipPath><path d="m160.6-122.5c0 4.1-3.3 7.5-7.5 7.5h-25.1l-27.2 35.2-27.2-35.2h-25.2c-4.1 0-7.5-3.3-7.5-7.5v-59.8c0-4.1 3.3-7.5 7.5-7.5h104.7c4.1 0 7.5 3.3 7.5 7.5zm0-82.3h-119.7c-8.3 0-15 6.7-15 14.9v74.8c0 8.3 6.7 14.9 15 14.9h26.2l33.6 44.9 33.6-44.9h26.2c8.3 0 15-6.7 15-14.9v-74.8c0-8.2-6.7-14.9-14.9-14.9z"/></clipPath><clipPath><path d="m388.6-154.2c-2.1 33.3-29.3 62.5-67.8 73.1-38.6-10.6-65.8-39.8-67.8-73.1-1.2-19.1 10.6-30.8 22.8-34 12-3.1 28.2.8 37.7 21.1 1.3 2.9 4.3 4.4 7.3 4.2 3 .2 5.9-1.3 7.3-4.2 9.5-20.2 25.7-24.2 37.7-21.1 12.2 3.2 24 14.9 22.8 34zm-19.2-48.2c-14.6-3.7-34.8-.5-48.7 18.8-13.9-19.2-34.1-22.5-48.7-18.8-18.1 4.6-35.6 21.6-33.9 49.2 2.5 40 34.7 74.9 80.1 86.8.6.2 1.3.2 1.9.2h.6.6c.6 0 1.3-.1 1.9-.2 45.4-11.9 77.6-46.8 80.1-86.8 1.7-27.6-15.8-44.6-33.9-49.2z"/></clipPath><g style="fill:none;stroke:#000;stroke-width:14;stroke-linecap:round;stroke-linejoin:round;stroke-miterlimit:10"><circle cx="100" cy="100" r="44.4"/><path d="m100.2 17.6v15.2"/><path d="m148.8 149.1 10.7 10.7"/><path d="m40.5 40.8 10.8 10.8"/><path d="m168.4 100h15.2"/><path d="m17.2 100h15.2"/><path d="m40.5 159.8 10.8-10.7"/><path d="m150 50.4 10.7-10.8"/><path d="m100.2 182.4v-15.2"/></g></svg>