<svg enable-background="new 0 0 200 200" viewBox="0 0 200 200" xmlns="http://www.w3.org/2000/svg"><clipPath><path d="m177-197h156v156h-156z"/></clipPath><clipPath><path d="m380.6-122.5c0 4.1-3.3 7.5-7.5 7.5h-25.1l-27.2 35.2-27.2-35.2h-25.1c-4.1 0-7.5-3.3-7.5-7.5v-59.8c0-4.1 3.3-7.5 7.5-7.5h104.7c4.1 0 7.5 3.3 7.5 7.5v59.8zm0-82.3h-119.7c-8.3 0-15 6.7-15 14.9v74.8c0 8.3 6.7 14.9 15 14.9h26.2l33.6 44.9 33.6-44.9h26.2c8.3 0 15-6.7 15-14.9v-74.8c0-8.2-6.7-14.9-14.9-14.9z"/></clipPath><g fill="none" stroke="#000" stroke-linecap="round" stroke-miterlimit="10" stroke-width="14"><path d="m141.1 41.8c19.6 13.2 32.4 35.6 32.4 60.9 0 40.6-32.9 73.5-73.5 73.5s-73.5-32.9-73.5-73.5c0-23.9 11.4-45.1 29-58.5"/><path d="m100 25v75"/></g></svg>