<svg viewBox="0 0 20 12" xmlns="http://www.w3.org/2000/svg"><g fill="#f44336"><path d="m6.76 7.8.79.3a2.09 2.09 0 0 0 .52-.81h-1c-.07.18-.21.36-.31.51z"/><path d="m17 0h-14a3 3 0 0 0 -3 3v6a3 3 0 0 0 3 3h14a3 3 0 0 0 3-3v-6a3 3 0 0 0 -3-3zm-12.73 6.05v3.68h-.87v-2.91a6.56 6.56 0 0 1 -.66 1.48 6.92 6.92 0 0 0 -.44-1 7.93 7.93 0 0 0 1.08-2.7h-.88v-.84h.9v-1.49h.86v1.49h.74v.88h-.74v.25c.22.27.81 1.14.94 1.36l-.54.65c-.09-.22-.24-.54-.39-.85zm5.45 1.24h-.72a3.15 3.15 0 0 1 -.6 1.17 13.68 13.68 0 0 1 1.28.54l-.61.68a15 15 0 0 0 -1.39-.68 7.25 7.25 0 0 1 -2.45.7 2.77 2.77 0 0 0 -.36-.7 7.06 7.06 0 0 0 1.82-.4l-1.19-.44a9.8 9.8 0 0 0 .55-.87h-1v-.78h1.41c.09-.2.18-.39.25-.58l.92.17-.17.4h2.26zm-.43-1.22a6.88 6.88 0 0 1 -1.41-1.07v1h-.88v-1a5.51 5.51 0 0 1 -1.5 1.16 3.36 3.36 0 0 0 -.59-.66 5.2 5.2 0 0 0 1.52-1h-1.25v-.78h.7a6.92 6.92 0 0 0 -.46-1l.72-.32a8.25 8.25 0 0 1 .55 1l-.51.26h.82v-1.39h.89v1.44h.75l-.48-.24a7.42 7.42 0 0 0 .57-1.08l.83.35c-.26.35-.5.71-.72 1h.88v.77h-1.3a6.27 6.27 0 0 0 1.48.91 4 4 0 0 0 -.61.65zm8.41 3.42h-7.15v-.93h3v-1.56h-2.25v-.9h2.28v-1.39h-2.7v-.92h3.2a9.49 9.49 0 0 0 -1.2-1l.79-.54a8.9 8.9 0 0 1 1.53 1.2l-.42.32h2.53v.92h-2.67v1.41h2.29v.9h-2.29v1.56h3.06z"/></g></svg>