<svg height="200" viewBox="0 0 1024 1024" width="200" xmlns="http://www.w3.org/2000/svg"><path d="m276.208 160-259.888 688h85.536l66.48-176h285.344l66.48 176h85.536l-259.936-688h-69.568zm-77.648 432 112.448-297.68 112.432 297.68zm472.768-236 27.84 74.992c55.232-20.288 164.4-52.256 206.88-11.92 15.28 14.56 21.952 25.152 21.952 76.928v276.512c-51.52 12.56-138.8 23.216-187.456-14.752-54.4-42.4-52.544-193.52 123.456-161.2v-81.2c-112-14.416-184.544 17.552-219.44 93.12-58.352 126.288 27.44 336.896 363.44 222.72v-349.344c0-124.4-96.864-215.072-336.688-125.856z" fill="#565d64"/></svg>