<svg enable-background="new 0 0 200 200" viewBox="0 0 200 200" xmlns="http://www.w3.org/2000/svg" xmlns:xlink="http://www.w3.org/1999/xlink"><clipPath><path d="m-263.7 38h156v156h-156z"/></clipPath><clipPath><path d="m-60.2 112.5c0 4.1-3.3 7.5-7.5 7.5h-25.1l-27.2 35.2-27.2-35.2h-25.1c-4.1 0-7.5-3.3-7.5-7.5v-59.8c0-4.1 3.3-7.5 7.5-7.5h104.7c4.1 0 7.5 3.3 7.5 7.5v59.8zm0-82.3h-119.7c-8.3 0-15 6.7-15 14.9v74.9c0 8.3 6.7 14.9 15 14.9h26.2l33.6 44.9 33.6-44.9h26.2c8.3 0 15-6.7 15-14.9v-74.8c.1-8.3-6.6-15-14.9-15z"/></clipPath><clipPath id="a"><path d="m167.8 80.8c-2.1 33.3-29.3 62.5-67.8 73.1-38.6-10.6-65.8-39.8-67.8-73.1-1.2-19.1 10.6-30.8 22.8-33.9 12-3.1 28.2.8 37.7 21.1 1.3 2.9 4.3 4.4 7.3 4.2 3 .2 5.9-1.3 7.3-4.2 9.5-20.2 25.7-24.2 37.7-21.1 12.2 3.1 24 14.8 22.8 33.9zm-19.1-48.2c-14.6-3.7-34.8-.5-48.7 18.8-13.9-19.3-34.1-22.6-48.7-18.8-18.1 4.6-35.6 21.6-33.9 49.2 2.5 40 34.7 74.9 80.1 86.8.6.2 1.3.2 1.9.2h.6.6c.6 0 1.3-.1 1.9-.2 45.4-11.9 77.6-46.8 80.1-86.8 1.7-27.6-15.8-44.6-33.9-49.2z"/></clipPath><clipPath id="b"><path d="m-136.4-1214h2837v5043.6h-2837z"/></clipPath><g clip-path="url(#a)"><path clip-path="url(#b)" d="m-22.1-8.2h244.2v216.4h-244.2z"/></g></svg>