<svg enable-background="new 0 0 200 200" viewBox="0 0 200 200" xmlns="http://www.w3.org/2000/svg" xmlns:xlink="http://www.w3.org/1999/xlink"><clipPath id="a"><path d="m176.3 38h156v156h-156z"/></clipPath><clipPath id="b"><path d="m20.3-740h2808v4992h-2808z"/></clipPath><clipPath><path d="m379.8 112.5c0 4.1-3.3 7.5-7.5 7.5h-25.1l-27.2 35.1-27.2-35.2h-25.1c-4.1 0-7.5-3.3-7.5-7.5v-59.7c0-4.1 3.3-7.5 7.5-7.5h104.7c4.1 0 7.5 3.3 7.5 7.5v59.8zm0-82.3h-119.6c-8.3 0-15 6.7-15 14.9v74.9c0 8.3 6.7 14.9 15 14.9h26.2l33.6 44.9 33.6-44.9h26.2c8.3 0 15-6.7 15-14.9v-74.8c0-8.3-6.7-15-15-15z"/></clipPath><path d="m164.5 161.2h-129c-6.6 0-12-5.4-12-12v-98.4c0-6.6 5.4-12 12-12h129.1c6.6 0 12 5.4 12 12v98.3c-.1 6.7-5.5 12.1-12.1 12.1z" style="fill:none;stroke:#000;stroke-width:14;stroke-linecap:round;stroke-linejoin:round;stroke-miterlimit:10"/><path d="m176.5 38.8-71 68.2c-3.1 3-7.8 3-10.9 0l-71.1-68.2" fill="none" stroke="#000" stroke-linejoin="round" stroke-miterlimit="10" stroke-width="14"/><g clip-path="url(#a)"><path clip-path="url(#b)" d="m137.3-1h234v234h-234z" opacity="0"/></g></svg>