<svg viewBox="0 0 375 98.25" xmlns="http://www.w3.org/2000/svg"><path d="m49.91 2.65h20.57v90.85h-20.57z"/><path d="m0 2.65v20.57h14.09v40.36a14.11 14.11 0 0 1 -14.09 14.1v20.57a34.67 34.67 0 0 0 34.67-34.67v-60.93z"/><path d="m354.43 2.65h20.57v90.85h-20.57z"/><path d="m304.52 2.65v20.57h14.1v40.36a14.12 14.12 0 0 1 -14.1 14.1v20.57a34.67 34.67 0 0 0 34.67-34.67v-60.93z"/><path d="m157.34 2.65-25.54 25.51-25.51-25.51h-20.57v90.84h20.57v-61.75l25.5 25.5 25.54-25.53v61.78h20.57v-90.84z"/><path d="m241.22 20.57a27.5 27.5 0 1 1 -27.5 27.5 27.53 27.53 0 0 1 27.5-27.5m0-20.57a48.07 48.07 0 1 0 48.06 48.07 48.07 48.07 0 0 0 -48.06-48.07z"/></svg>