<svg viewBox="0 0 64 64" xmlns="http://www.w3.org/2000/svg"><path d="m51.28 55.23h-38.52a6.86 6.86 0 0 1 -6.86-6.86v-32.74a6.87 6.87 0 0 1 6.86-6.87h38.52a6.88 6.88 0 0 1 6.87 6.87v32.74a6.87 6.87 0 0 1 -6.87 6.86zm-19.2-26.95a10.62 10.62 0 0 0 9-5h4.62a2.49 2.49 0 0 0 2.5-2.5 2.5 2.5 0 0 0 -2.5-2.5h-7.84l-.66 1.57a5.59 5.59 0 0 1 -5.15 3.42 5.64 5.64 0 0 1 -5.19-3.45l-.65-1.54h-7.81a2.5 2.5 0 0 0 -2.5 2.5 2.49 2.49 0 0 0 2.5 2.5h4.6a10.61 10.61 0 0 0 9 5z"/><path d="m0 0h64v64h-64z" fill="none"/></svg>