<svg enable-background="new 0 0 200 200" viewBox="0 0 200 200" xmlns="http://www.w3.org/2000/svg"><clipPath><path d="m-703-197h156v156h-156z"/></clipPath><clipPath><path d="m-499.4-122.5c0 4.1-3.3 7.5-7.5 7.5h-25.1l-27.2 35.2-27.2-35.2h-25.1c-4.1 0-7.5-3.3-7.5-7.5v-59.8c0-4.1 3.3-7.5 7.5-7.5h104.7c4.1 0 7.5 3.3 7.5 7.5v59.8zm0-82.3h-119.7c-8.3 0-15 6.7-15 14.9v74.8c0 8.3 6.7 14.9 15 14.9h26.2l33.6 44.9 33.6-44.9h26.2c8.3 0 15-6.7 15-14.9v-74.8c0-8.2-6.7-14.9-14.9-14.9z"/></clipPath><clipPath><path d="m-271.4-154.2c-2.1 33.3-29.3 62.5-67.8 73.1-38.6-10.6-65.8-39.8-67.8-73.1-1.2-19.1 10.6-30.8 22.8-34 12-3.1 28.2.8 37.7 21.1 1.3 2.9 4.3 4.4 7.3 4.2 3 .2 5.9-1.3 7.3-4.2 9.5-20.2 25.7-24.2 37.7-21.1 12.2 3.2 24 14.9 22.8 34zm-19.2-48.2c-14.6-3.7-34.8-.5-48.7 18.8-13.9-19.2-34.1-22.5-48.7-18.8-18.1 4.6-35.6 21.6-33.9 49.2 2.5 40 34.7 74.9 80.1 86.8.6.2 1.3.2 1.9.2h.6.6c.6 0 1.3-.1 1.9-.2 45.4-11.9 77.6-46.8 80.1-86.8 1.7-27.6-15.8-44.6-33.9-49.2z"/></clipPath><path d="m155.9 157.1h-111.8c-8 0-14.5-6.3-13.7-13.6.3-3.2 2.1-6 4.7-8s6-3.2 9.6-3.2c2.3 0 4.1-1.7 4.1-3.7v-47.3c0-12.7 5.8-24.3 15.1-32.6 6.6-6 15-10.3 24.4-12.3 0-.2 0-.4 0-.7 0-5.6 5.1-10.1 11.4-10.1s11.4 4.5 11.4 10.1v.5c23 4.5 40.4 23.1 40.4 45.1v47.2c0 2 1.9 3.7 4.1 3.7 7.2 0 13.5 4.8 14.2 11.2.6 7.4-5.9 13.7-13.9 13.7z" fill="none" stroke="#000" stroke-miterlimit="10" stroke-width="10"/><path d="m83.9 167.3c.3 7.2 7 13 15.1 13s14.7-5.8 15.1-13z"/></svg>