<svg viewBox="0 0 73.03 82.03" xmlns="http://www.w3.org/2000/svg"><g fill="#212121"><path d="m43.69 12.53a1.08 1.08 0 0 0 -.31-.19 1.05 1.05 0 0 0 -.36-.08.22.22 0 0 0 -.23.17 14.87 14.87 0 0 1 -.7 1.46c-.26.48-.53.95-.83 1.4a13 13 0 0 1 -.9 1.17 6.24 6.24 0 0 1 -.88.82 4.9 4.9 0 0 1 .09-1.21c.09-.48.21-1 .34-1.5s.28-1 .43-1.5.28-.87.37-1.2a.58.58 0 0 0 -.14-.56 1.86 1.86 0 0 0 -.59-.44 2.36 2.36 0 0 0 -.78-.2 1 1 0 0 0 -.68.17 5.89 5.89 0 0 0 -.79.71 8.73 8.73 0 0 0 -.78.93c-.26.34-.51.7-.76 1.09s-.48.77-.69 1.15a3.1 3.1 0 0 1 .15-.46l.34-.8c.14-.3.28-.63.42-1s.27-.7.4-1c0-.13 0-.27-.2-.42a1.46 1.46 0 0 0 -.61-.36 1.48 1.48 0 0 0 -.72-.09.53.53 0 0 0 -.49.38 16.9 16.9 0 0 0 -.74 2 11.62 11.62 0 0 1 -1 2 17.11 17.11 0 0 1 -1.29 1.86 9.9 9.9 0 0 1 -1.3 1.37 1.65 1.65 0 0 1 -1 .5c-.18 0-.28-.14-.32-.38a3.28 3.28 0 0 1 0-.83 6 6 0 0 1 .11-.94 5.68 5.68 0 0 1 .18-.71 2.76 2.76 0 0 0 .8.15 2.22 2.22 0 0 0 .8-.15 2.62 2.62 0 0 0 1.09-.94 7.4 7.4 0 0 0 .75-1.42 7.83 7.83 0 0 0 .41-1.41 3.69 3.69 0 0 0 .11-.93.93.93 0 0 0 -.6-.83c-.28-.12-.53-.24-.75-.35a2.69 2.69 0 0 0 -.65-.24 1.67 1.67 0 0 0 -.59 0 1.49 1.49 0 0 0 -.58.24 4.8 4.8 0 0 0 -1 1.07 10.38 10.38 0 0 0 -1 1.62c-.11.22-.2.45-.3.68h-.13a6.66 6.66 0 0 0 -1.92 1 3.85 3.85 0 0 0 -.14-1 1.23 1.23 0 0 0 -.35-.52 1.42 1.42 0 0 0 -.61-.28l-1-.22a1.75 1.75 0 0 0 -.6 0 1.9 1.9 0 0 0 -.46.15 1.88 1.88 0 0 0 -.42.27l-.42.38c.09-.35.17-.62.22-.81s.12-.38.18-.54 0-.25-.18-.38a1.68 1.68 0 0 0 -.61-.27 1.56 1.56 0 0 0 -.68 0 .42.42 0 0 0 -.4.33q-.19.63-.54 1.8l-.86 2.5c-.27 1-.56 2-.86 3s-.58 2-.85 3-.49 1.78-.7 2.52-.35 1.3-.44 1.66a.53.53 0 0 0 .21.57 1.86 1.86 0 0 0 .69.34 1.73 1.73 0 0 0 .75 0c.23 0 .36-.14.39-.32s.15-.78.3-1.48.36-1.51.61-2.41.54-1.84.87-2.84a28.36 28.36 0 0 1 1.09-2.78 12.7 12.7 0 0 1 1.22-2.23 2.91 2.91 0 0 1 1.34-1.16q.15.08.18.39a3.18 3.18 0 0 1 0 .69 3.85 3.85 0 0 1 -.16.75 2.7 2.7 0 0 1 -.25.61 4.93 4.93 0 0 1 -.56.65c-.26.27-.54.57-.82.89s-.57.67-.86 1a4.4 4.4 0 0 0 -.65 1 1.93 1.93 0 0 0 -.18.91.86.86 0 0 0 .5.7 1 1 0 0 0 .85.09 2.79 2.79 0 0 0 .86-.52 7.3 7.3 0 0 0 .92-1c.29-.39.57-.78.83-1.17a12 12 0 0 0 .65-1.09 8.58 8.58 0 0 0 .37-.82 2.66 2.66 0 0 1 .58-.71c.33-.32.7-.64 1.12-1l.27-.2a10.11 10.11 0 0 0 -.4 1.71 5.32 5.32 0 0 0 0 1.69 1.91 1.91 0 0 0 .61 1.2 4.45 4.45 0 0 0 .58.38 3.64 3.64 0 0 0 .76.33 2.51 2.51 0 0 0 .81.14 1.25 1.25 0 0 0 .73-.21 9.57 9.57 0 0 0 1.4-1.22 14.41 14.41 0 0 0 1.24-1.46v.19c-.12.63-.21 1.13-.27 1.52 0 .14.05.27.25.39a1.82 1.82 0 0 0 .64.27 2.11 2.11 0 0 0 .71 0 .52.52 0 0 0 .44-.27c.13-.37.33-.85.59-1.42s.56-1.16.88-1.76.65-1.16 1-1.69a8.11 8.11 0 0 1 .93-1.25c0 .12-.09.36-.17.74s-.15.79-.22 1.25a12.69 12.69 0 0 0 -.13 1.37 3 3 0 0 0 .11 1.07.84.84 0 0 0 .4.43 2.34 2.34 0 0 0 .73.3 3.3 3.3 0 0 0 .83.09 1.43 1.43 0 0 0 .73-.2 4.46 4.46 0 0 0 1-1 14.35 14.35 0 0 0 1-1.47c.31-.54.6-1.1.86-1.67s.48-1.1.65-1.57c-.14.01-.18-.05-.27-.13zm-13.78 1.71c.13-.31.29-.65.48-1s.39-.71.6-1a3.29 3.29 0 0 1 .52-.66 5.13 5.13 0 0 1 -.11 1 6.22 6.22 0 0 1 -.35 1.11 4 4 0 0 1 -.57.89.93.93 0 0 1 -.76.33 2 2 0 0 1 .19-.67z"/><path d="m18.13 8.63a3.32 3.32 0 0 0 -.93-1.26 5.92 5.92 0 0 0 -1.61-1 6.27 6.27 0 0 0 -2-.49 4.24 4.24 0 0 0 -2 .28 7.15 7.15 0 0 0 -2.02 1.26 14.52 14.52 0 0 0 -1.93 2 18.88 18.88 0 0 0 -1.64 2.47 18.41 18.41 0 0 0 -1.25 2.75 14 14 0 0 0 -.75 2.78 9.15 9.15 0 0 0 0 2.58 5 5 0 0 0 1.25 2.65 4.61 4.61 0 0 0 3 1.27 2.62 2.62 0 0 0 .89.83 5.17 5.17 0 0 0 1.35.57 5.48 5.48 0 0 0 1.51.18 2.77 2.77 0 0 0 1.35-.32 5.85 5.85 0 0 0 1.65-1.59 15.37 15.37 0 0 0 1.51-2.53 22.5 22.5 0 0 0 1.25-3.06 22.37 22.37 0 0 0 .74-3.34 17.45 17.45 0 0 0 .17-3.23 8.1 8.1 0 0 0 -.54-2.8zm-2 5.14a22.66 22.66 0 0 1 -.68 3.15 20.29 20.29 0 0 1 -1.15 3 14.09 14.09 0 0 1 -1.53 2.56 7.37 7.37 0 0 1 -1.77 1.8 3.13 3.13 0 0 1 -.87-1.46 8.15 8.15 0 0 1 -.29-2.08 12.29 12.29 0 0 1 .2-2.42 16 16 0 0 1 .62-2.45 12.27 12.27 0 0 1 1-2.22 7 7 0 0 1 1.26-1.65c.11-.11.12-.27 0-.5a2.11 2.11 0 0 0 -.48-.63 2 2 0 0 0 -.74-.43.72.72 0 0 0 -.73.14 6.5 6.5 0 0 0 -1.4 1.56 12.46 12.46 0 0 0 -1.12 2.14 16.22 16.22 0 0 0 -.81 2.47 15.19 15.19 0 0 0 -.39 2.52 10.79 10.79 0 0 0 .08 2.34 4.92 4.92 0 0 0 .67 1.84 2.57 2.57 0 0 1 -1.5-1.51 6.3 6.3 0 0 1 -.41-2.58 12.71 12.71 0 0 1 .56-3.18 16.37 16.37 0 0 1 1.35-3.29 15.48 15.48 0 0 1 2.1-3 10.62 10.62 0 0 1 2.66-2.2 4 4 0 0 1 1.24-.46 1.61 1.61 0 0 1 .87 0 1.26 1.26 0 0 1 .57.45 3.33 3.33 0 0 1 .38.66 8.35 8.35 0 0 1 .45 2.43 17.17 17.17 0 0 1 -.12 3z"/><path d="m67.58 8.36a.54.54 0 0 0 -.23-.22.8.8 0 0 0 -.3-.09.28.28 0 0 0 -.24.1 12.1 12.1 0 0 1 -1 2 18 18 0 0 1 -1.26 1.85 9.93 9.93 0 0 1 -1.3 1.37 1.65 1.65 0 0 1 -1 .5c-.17 0-.28-.14-.32-.38a4.57 4.57 0 0 1 0-.83 7.4 7.4 0 0 1 .12-.93 4.35 4.35 0 0 1 .18-.71 3.56 3.56 0 0 0 .79.15 2.25 2.25 0 0 0 .81-.16 2.63 2.63 0 0 0 1.09-1 7.32 7.32 0 0 0 .75-1.41 8.74 8.74 0 0 0 .33-1.38 4.22 4.22 0 0 0 .11-.93.93.93 0 0 0 -.6-.83c-.29-.12-.54-.24-.76-.35a3.51 3.51 0 0 0 -.64-.24 1.7 1.7 0 0 0 -.59 0 1.6 1.6 0 0 0 -.59.24 4.8 4.8 0 0 0 -1 1.07 10.32 10.32 0 0 0 -1 1.62 15.53 15.53 0 0 0 -.8 1.94 12 12 0 0 0 -.37 1.43c-.15.28-.3.54-.48.84a7.2 7.2 0 0 1 -1.94 2.1 5.7 5.7 0 0 1 .34-2.11c.13-.41.26-.8.4-1.18s.26-.76.4-1.13c.07-.18.14-.35.19-.5l.16-.43a.81.81 0 0 0 -.25-.8 2.2 2.2 0 0 0 -1-.46 1.06 1.06 0 0 0 -.53 0 1.85 1.85 0 0 0 -.45.21 6.12 6.12 0 0 0 -.8.81c-.27.32-.55.69-.84 1.09-.59.84-1.12 1.68-1.6 2.51a33.64 33.64 0 0 1 3.16-7.59 11.61 11.61 0 0 1 1.67.06 7.15 7.15 0 0 1 1.3.27c.71.27 1 .66 1 1.18a1 1 0 0 0 .4-.81 2.25 2.25 0 0 0 -.06-.63 3.47 3.47 0 0 0 -.2-.6 2 2 0 0 0 -1.21-.83 8.3 8.3 0 0 0 -1.81-.26 3.44 3.44 0 0 1 .39-.39 1.13 1.13 0 0 1 .27-.22.63.63 0 0 0 -.27-.75 2.29 2.29 0 0 0 -1-.5 1.14 1.14 0 0 0 -1 .29 10.17 10.17 0 0 0 -1.11 1.73l-.72.09-.76.11a17.93 17.93 0 0 1 1.09-1.5.81.81 0 0 0 -.06-1 1.89 1.89 0 0 0 -1-.69c-.4-.16-.7-.13-.9.11a12 12 0 0 0 -1.06 1.6c-.36.62-.72 1.34-1.09 2.14-.83.25-1.61.51-2.35.79s-1.43.58-2.07.89c-.13.08-.17.23-.1.46a1.69 1.69 0 0 0 .13.33 3.28 3.28 0 0 0 .2.31 1.85 1.85 0 0 0 .52.56.47.47 0 0 0 .54 0 7.71 7.71 0 0 1 1-.69 12.75 12.75 0 0 1 1.24-.58c-.43 1.1-.82 2.19-1.16 3.25s-.66 2.11-.94 3.15-.43 2-.54 2.75a7.3 7.3 0 0 0 -.06 2 2.83 2.83 0 0 0 1.7 2.36 1.67 1.67 0 0 0 2-.54q-1.47.15-1.53-2.07a12.91 12.91 0 0 1 .21-2.48 30.57 30.57 0 0 1 .7-3c.32-1.11.69-2.18 1.09-3.23a30.62 30.62 0 0 1 1.36-3l.83-.18.84-.23c-.86 2.08-1.66 4.25-2.4 6.53a48.49 48.49 0 0 0 -1.39 5.16c0 .22.11.4.41.54a4.42 4.42 0 0 0 .48.15 2.14 2.14 0 0 0 .5.06c.35 0 .56-.09.65-.3.19-.43.43-.93.7-1.5s.62-1.2 1-1.92a18.53 18.53 0 0 1 2.11-3.21.24.24 0 0 1 0 .14 1.45 1.45 0 0 0 -.06.19c-.07.26-.14.55-.23.87s-.17.69-.25 1.1a8.42 8.42 0 0 0 -.14 1.11 3.16 3.16 0 0 0 .06.87 1.1 1.1 0 0 0 .63.57 4.42 4.42 0 0 0 1.08.29 1.81 1.81 0 0 0 1-.2 5.16 5.16 0 0 0 1-.92c.21-.26.4-.54.6-.82a2 2 0 0 0 .58 1 4.45 4.45 0 0 0 .58.38 4.3 4.3 0 0 0 .76.34 2.8 2.8 0 0 0 .81.13 1.2 1.2 0 0 0 .73-.21 10.12 10.12 0 0 0 1.34-1.13 15.37 15.37 0 0 0 1.31-1.59 11.79 11.79 0 0 0 1.07-1.81 9 9 0 0 0 .66-1.89.31.31 0 0 0 -.01-.35zm-4.87 1c.13-.31.29-.65.48-1s.39-.71.6-1a3.09 3.09 0 0 1 .52-.67 6.13 6.13 0 0 1 -.11 1 5.33 5.33 0 0 1 -.36 1.11 3.37 3.37 0 0 1 -.57.89.9.9 0 0 1 -.75.33 1.8 1.8 0 0 1 .19-.63z"/><path d="m72.77 51c-.2-.25-.52-.29-1-.09-1.25.62-2.44 1.25-3.57 1.9s-2.5 1.55-4.2 2.62c.26-.77.6-1.71 1-2.84s.86-2.32 1.32-3.58.9-2.48 1.3-3.67a26.25 26.25 0 0 0 .88-3.15 1.37 1.37 0 0 0 -.48-1.27 5.59 5.59 0 0 0 -1.6-1.17 5.18 5.18 0 0 0 -1.85-.57 1.38 1.38 0 0 0 -1.34.48c-.29.46-.8 1.2-1.54 2.22s-1.57 2.18-2.52 3.47-2 2.63-3 4-2.12 2.65-3.1 3.85-1.87 2.13-2.66 2.91a4.13 4.13 0 0 1 -1.77 1.26c-.4.07-.43-.36-.09-1.31a26 26 0 0 1 1.54-3.3c.68-1.26 1.45-2.52 2.29-3.78a19.76 19.76 0 0 1 2.08-2.74 1 1 0 0 0 .15-1.36 3.91 3.91 0 0 0 -1.39-1.29 5.79 5.79 0 0 0 -1.91-.74 1.57 1.57 0 0 0 -1.49.3 26.21 26.21 0 0 0 -2.69 3.43 36.3 36.3 0 0 0 -2.33 4.07q-1 2.13-1.85 4.19a37 37 0 0 0 -1.24 3.68 2.1 2.1 0 0 0 .42 1.82 5.93 5.93 0 0 0 1.7 1.57 7 7 0 0 0 2.19.92 2.63 2.63 0 0 0 1.91-.15 20 20 0 0 0 2.62-1.86 35.94 35.94 0 0 0 2.8-2.58q1.4-1.41 2.76-3a35.17 35.17 0 0 0 2.44-3.14c-.2.57-.43 1.13-.69 1.69s-.6 1.33-.91 2-.61 1.38-.93 2-.61 1.2-.85 1.62a11 11 0 0 1 -2.52 2.19c-1.43 1.05-3.07 2.25-4.91 3.62s-3.69 2.86-5.53 4.47a27.35 27.35 0 0 0 -4.39 4.73 3.94 3.94 0 0 0 -.89 3.31 5 5 0 0 0 1.55 2.51 6.91 6.91 0 0 0 2.62 1.46 4 4 0 0 0 2.34.17 12.78 12.78 0 0 0 4.67-2.87 42.92 42.92 0 0 0 4.68-5 62.4 62.4 0 0 0 4.21-6c1.3-2.09 2.44-4 3.41-5.73a4.92 4.92 0 0 1 1.46-1.55q2.13-1.56 4.39-3c1.52-.93 3.15-1.86 4.91-2.8a3.59 3.59 0 0 0 1.32-1.36 4.16 4.16 0 0 0 .51-1.48 1.36 1.36 0 0 0 -.23-1.08zm-24.89 20c-.75.91-1.54 1.8-2.35 2.67a32.22 32.22 0 0 1 -2.46 2.33 22.41 22.41 0 0 1 -2.33 1.78 4.55 4.55 0 0 1 1.1-1.78c.65-.79 1.43-1.63 2.33-2.54s1.88-1.81 2.91-2.73 2-1.72 2.79-2.4a32.6 32.6 0 0 1 -1.99 2.67z"/><path d="m33.66 44.79q1.59-2.45 3.47-5.11c1.26-1.77 2.51-3.43 3.73-5a42.77 42.77 0 0 1 3.47-3.9 7.83 7.83 0 0 1 2.67-1.9c.33-.59.28-1.05-.19-1.38l-1.5-1.07a7.65 7.65 0 0 0 -2.34-1.25 2.4 2.4 0 0 0 -2.13.72 26 26 0 0 0 -4.12 4.52c-1.47 1.95-3 4.16-4.44 6.61s-3 5-4.45 7.73c-.41.76-.79 1.49-1.18 2.24a10 10 0 0 0 -2.28.75 33.5 33.5 0 0 0 -3.48 1.78c-1.17.69-2.34 1.4-3.49 2.11s-2.16 1.31-3 1.78a5.8 5.8 0 0 1 -1.15-3.63 12.59 12.59 0 0 1 .63-4 9.48 9.48 0 0 1 1.8-3.26 2.79 2.79 0 0 1 2.32-1.24c-.09.22-.24.51-.44.89a10.82 10.82 0 0 0 -.56 1.21 12.33 12.33 0 0 0 -.4 1.31 2.76 2.76 0 0 0 -.08 1.21 4.24 4.24 0 0 0 .57 1.37 4.62 4.62 0 0 0 .95 1.07 5.1 5.1 0 0 0 1.07.65 1.32 1.32 0 0 0 .87.12 3.53 3.53 0 0 1 .4-2.69 17.65 17.65 0 0 1 2.12-3.3 32.77 32.77 0 0 1 2.9-3.13 15.67 15.67 0 0 1 2.6-2.15c.32-.2.37-.59.17-1.16a6.75 6.75 0 0 0 -.93-1.69 6.27 6.27 0 0 0 -1.39-1.38c-.5-.36-.91-.44-1.22-.24-.55.44-1.28 1.09-2.18 1.92a26 26 0 0 0 -3.2 3.89 14.87 14.87 0 0 0 -1.25-.9 10.14 10.14 0 0 0 -1.74-.88 6.51 6.51 0 0 0 -1.93-.48 2.94 2.94 0 0 0 -1.72.32 13.37 13.37 0 0 0 -2.7 2.15 12.08 12.08 0 0 0 -2 2.79 11.2 11.2 0 0 0 -1.14 3.23 9.59 9.59 0 0 0 0 3.42 8.84 8.84 0 0 0 1.46 3.51c.74 1.07 1.46 2.19 2.18 3.37-1.73 1.16-3.42 2.4-5.09 3.74a20.54 20.54 0 0 0 -4.15 4.38 5.41 5.41 0 0 0 -1.17 2.81 3.48 3.48 0 0 0 .59 2.15 4.21 4.21 0 0 0 1.81 1.45 9.18 9.18 0 0 0 2.6.75 10.61 10.61 0 0 0 2.87 0 9.34 9.34 0 0 0 2.69-.78 17.38 17.38 0 0 0 3.44-2.22 12.34 12.34 0 0 0 2.68-3 8 8 0 0 0 1.32-3.34 6.19 6.19 0 0 0 -.63-3.56c-.2-.36-.39-.7-.59-1s-.4-.65-.6-1a17.14 17.14 0 0 1 2.36-1.72q1.8-1.17 3.89-2.38c.79-.45 1.56-.87 2.32-1.28-.32.64-.65 1.29-.95 1.92q-1.83 3.81-3.23 7t-2 5.1c-.15.38 0 .78.52 1.2a5.52 5.52 0 0 0 1.73 1 6.43 6.43 0 0 0 1.94.38 1.07 1.07 0 0 0 1.18-.68q.18-.78.54-1.86c.24-.73.52-1.54.83-2.43a8.68 8.68 0 0 1 3-1 12 12 0 0 1 3.17-.11 10.5 10.5 0 0 1 2.86.7 8.71 8.71 0 0 1 2.18 1.24.9.9 0 0 0 1.1-.18 6.12 6.12 0 0 0 1.23-1.36 7.2 7.2 0 0 0 .85-1.74c.19-.6.22-1 .11-1.17a5.62 5.62 0 0 0 -2.55-1.17 18.05 18.05 0 0 0 -3.94-.56c.64-.57 1.5-1.37 2.59-2.39s2.21-2.12 3.39-3.29 2.3-2.33 3.35-3.48a29.1 29.1 0 0 0 2.43-3c.62-.92.69-1.66.2-2.21a10.44 10.44 0 0 0 -2.57-1.85 1.15 1.15 0 0 0 -1.2 0 6.69 6.69 0 0 0 -1.12.68 24.59 24.59 0 0 0 -2.64 2.13c-1 .86-1.89 1.77-2.84 2.73s-1.91 1.95-2.76 2.92-1.67 1.84-2.37 2.63a12.22 12.22 0 0 1 1.22-2.7c.72-1.29 1.61-2.75 2.66-4.38zm-22.11 16.55a11.92 11.92 0 0 1 -1.85 2.56 13.51 13.51 0 0 1 -2.48 2.1 4.46 4.46 0 0 1 -2.22.88 12.3 12.3 0 0 1 2.9-4.16q1.91-1.81 4-3.58a2.68 2.68 0 0 1 -.35 2.2zm19.82-9.48c.91-1 1.88-2 2.89-2.93a29.72 29.72 0 0 1 2.88-2.37c-.29.42-.8 1.07-1.53 2s-1.56 1.86-2.49 2.89-1.9 2.06-2.93 3.09-2 1.9-2.83 2.63a18.56 18.56 0 0 1 1.64-2.39c.66-.94 1.46-1.91 2.37-2.92z"/></g></svg>