<svg viewBox="0 0 64 64" xmlns="http://www.w3.org/2000/svg"><rect height="5" rx="2.5" width="37.49" x="13.26" y="29.48"/><path d="m22.63 57.34h-7.1a8.88 8.88 0 0 1 -8.87-8.87v-7.1h5v7.1a3.88 3.88 0 0 0 3.87 3.87h7.1z"/><path d="m48.47 57.34h-7.1v-5h7.1a3.88 3.88 0 0 0 3.87-3.87v-7.1h5v7.1a8.88 8.88 0 0 1 -8.87 8.87z"/><path d="m57.34 22.63h-5v-7.1a3.88 3.88 0 0 0 -3.87-3.87h-7.1v-5h7.1a8.88 8.88 0 0 1 8.87 8.87z"/><path d="m11.66 22.63h-5v-7.1a8.88 8.88 0 0 1 8.87-8.87h7.1v5h-7.1a3.88 3.88 0 0 0 -3.87 3.87z"/><path d="m0 0h64v64h-64z" fill="none"/></svg>