<svg enable-background="new 0 0 200 200" viewBox="0 0 200 200" xmlns="http://www.w3.org/2000/svg"><g fill="none" stroke="#000" stroke-miterlimit="10" stroke-width="13"><circle cx="100" cy="100" r="32"/><path d="m144.2 154.9c-6.8 5.5-14.6 9.6-22.7 12.2-13.5-10.9-32.8-11.5-46.9-1.4-4-1.5-7.9-3.5-11.6-5.8-3.8-2.3-7.2-4.9-10.4-7.8 2.7-17.2-6.4-34.2-22.2-41.4-1.3-8.5-1.1-17.2.8-25.8 16.3-6.2 26.4-22.6 24.7-40 6.8-5.5 14.6-9.6 22.7-12.2 13.5 10.9 32.8 11.5 46.9 1.4 4 1.5 7.8 3.5 11.6 5.8s7.2 4.9 10.4 7.8c-2.7 17.2 6.4 34.2 22.2 41.4 1.3 8.5 1.1 17.2-.8 25.8-16.2 6.3-26.4 22.7-24.7 40z" stroke-linecap="round" stroke-linejoin="round"/></g></svg>