<svg enable-background="new 0 0 200 200" viewBox="0 0 200 200" xmlns="http://www.w3.org/2000/svg"><clipPath><path d="m-483-197h156v156h-156z"/></clipPath><clipPath><path d="m-279.4-122.5c0 4.1-3.3 7.5-7.5 7.5h-25.1l-27.2 35.2-27.2-35.2h-25.1c-4.1 0-7.5-3.3-7.5-7.5v-59.8c0-4.1 3.3-7.5 7.5-7.5h104.7c4.1 0 7.5 3.3 7.5 7.5v59.8zm0-82.3h-119.7c-8.3 0-15 6.7-15 14.9v74.8c0 8.3 6.7 14.9 15 14.9h26.2l33.6 44.9 33.6-44.9h26.2c8.3 0 15-6.7 15-14.9v-74.8c0-8.2-6.7-14.9-14.9-14.9z"/></clipPath><clipPath><path d="m-51.4-154.2c-2.1 33.3-29.3 62.5-67.8 73.1-38.6-10.6-65.8-39.8-67.8-73.1-1.2-19.1 10.6-30.8 22.8-34 12-3.1 28.2.8 37.7 21.1 1.3 2.9 4.3 4.4 7.3 4.2 3 .2 5.9-1.3 7.3-4.2 9.5-20.2 25.7-24.2 37.7-21.1 12.2 3.2 24 14.9 22.8 34zm-19.2-48.2c-14.6-3.7-34.8-.5-48.7 18.8-13.9-19.2-34.1-22.5-48.7-18.8-18.1 4.6-35.6 21.6-33.9 49.2 2.5 40 34.7 74.9 80.1 86.8.6.2 1.3.2 1.9.2h.6.6c.6 0 1.3-.1 1.9-.2 45.4-11.9 77.6-46.8 80.1-86.8 1.7-27.6-15.8-44.6-33.9-49.2z"/></clipPath><path d="m156.7 35.2h-16.2v-12.2c0-2.2-1.8-4.1-4.1-4.1s-4.1 1.8-4.1 4.1v12.2h-64.7v-12.2c0-2.2-1.8-4.1-4.1-4.1-2.2 0-4.1 1.8-4.1 4.1v12.2h-16.2c-13.4 0-24.3 10.9-24.3 24.3v97.3c0 13.4 10.9 24.3 24.3 24.3h113.5c13.4 0 24.3-10.9 24.3-24.3v-97.3c.1-13.4-10.9-24.3-24.3-24.3zm16.2 121.5c0 8.9-7.3 16.2-16.2 16.2h-113.4c-8.9 0-16.2-7.3-16.2-16.2v-72.9h145.9v72.9zm0-81h-145.8v-16.2c0-8.9 7.3-16.2 16.2-16.2h16.2v12.2c0 2.2 1.8 4.1 4.1 4.1 2.2 0 4.1-1.8 4.1-4.1v-12.2h64.8v12.2c0 2.2 1.8 4.1 4.1 4.1s4.1-1.8 4.1-4.1v-12.2h16.2c8.9 0 16.2 7.3 16.2 16.2z"/><path d="m91.7 152.8c1.6 1.6 4.2 1.6 5.7 0l40.1-40.1c1.6-1.6 1.6-4.2 0-5.7-1.6-1.6-4.2-1.6-5.7 0l-37.2 37.2-14.3-14.3c-1.6-1.6-4.2-1.6-5.7 0-1.6 1.6-1.6 4.2 0 5.7z"/></svg>