<svg enable-background="new 0 0 200 200" viewBox="0 0 200 200" xmlns="http://www.w3.org/2000/svg"><path d="m99.9 46.9c12.2-.3 24.2-6.2 31.6-17.7 2.3-3.6 7.3-4.3 10.5-1.4l31.1 28.1c10.2 9.3 7.6 26-4.9 31.7l-18 9.7 7.1 64.1c.3 2.4-1.3 4.7-3.6 5.3l-.8.2c-34.7 9.4-71.3 9.4-106.1 0-2.6-.4-4.4-2.8-4.1-5.4l7-64.2-18-9.7c-12.6-5.7-15.2-22.4-4.9-31.7l31.2-28.1c3.2-2.9 8.2-2.2 10.5 1.4 7.4 11.5 19.5 17.4 31.6 17.7" style="fill:none;stroke:#000;stroke-width:14;stroke-linecap:round;stroke-linejoin:round;stroke-miterlimit:10"/></svg>