<svg viewBox="0 0 44.72 44.72" xmlns="http://www.w3.org/2000/svg"><g fill="#fff"><path d="m42.72 44.72a1.72 1.72 0 0 1 -.39 0l-10.46-2.12a22 22 0 0 1 -9.51 2.12 22.34 22.34 0 1 1 19.08-10.72l3.14 8a2 2 0 0 1 -1.86 2.74zm-20.36-40.72a18.36 18.36 0 0 0 0 36.72 18 18 0 0 0 8.33-2 2.08 2.08 0 0 1 1.3-.18l7.52 1.46-2.17-5.5a2 2 0 0 1 .21-1.86 18.37 18.37 0 0 0 -15.19-28.64z"/><path d="m19.65 16.75 4.69-5.94a.36.36 0 0 1 .66.19l1.86 7.33a.35.35 0 0 0 .22.25l7.1 2.63a.37.37 0 0 1 .07.65l-6.4 4a.38.38 0 0 0 -.17.3l-.3 7.56a.36.36 0 0 1 -.6.26l-5.82-4.84a.38.38 0 0 0 -.33-.07l-7.3 2.03a.36.36 0 0 1 -.44-.48l2.81-7a.37.37 0 0 0 0-.34l-4.24-6.28a.37.37 0 0 1 .33-.57l7.55.5a.41.41 0 0 0 .31-.18z"/></g></svg>