<svg viewBox="0 0 64 64" xmlns="http://www.w3.org/2000/svg"><path d="m32 55.48a23.48 23.48 0 1 1 20.9-12.78l2.58 12.78-12.78-2.58a23.31 23.31 0 0 1 -10.7 2.58zm-8.26-27.9a2.51 2.51 0 0 0 -3 1.89 2.5 2.5 0 0 0 1.89 3l5.37 1.18-3.64 5.59a2.5 2.5 0 0 0 .74 3.46 2.51 2.51 0 0 0 3.41-.7l3.49-5.41 3.49 5.41a2.51 2.51 0 0 0 3.51.7 2.5 2.5 0 0 0 .74-3.46l-3.63-5.59 5.3-1.19a2.5 2.5 0 0 0 1.89-3 2.51 2.51 0 0 0 -3-1.89l-5.76 1.3v-5.07a2.5 2.5 0 0 0 -2.54-2.5 2.5 2.5 0 0 0 -2.5 2.5v5.08z"/><path d="m0 0h64v64h-64z" fill="none"/></svg>