<svg viewBox="0 0 64 64" xmlns="http://www.w3.org/2000/svg"><path d="m49.63 64h-35.26a5 5 0 0 1 -5-5v-54a5 5 0 0 1 5-5h35.26a5 5 0 0 1 5 5v54a5 5 0 0 1 -5 5zm-11.27-56.44a1.74 1.74 0 0 0 -1.74-1.74h-9.37a1.74 1.74 0 0 0 -1.75 1.74 1.75 1.75 0 0 0 1.75 1.75h9.37a1.74 1.74 0 0 0 1.74-1.75zm-6.36 43.23a4.61 4.61 0 1 0 4.61 4.6 4.61 4.61 0 0 0 -4.61-4.6zm-.25-31.86a12 12 0 1 0 10.94 17 9.28 9.28 0 1 1 -7.88-16.56 12.34 12.34 0 0 0 -3.06-.44z" fill="#bdbdbd"/><path d="m0 0h64v64h-64z" fill="none"/></svg>