<svg viewBox="0 0 64 64" xmlns="http://www.w3.org/2000/svg"><g fill="#bdbdbd"><path d="m0 32.1c6.39-11.9 18.33-21 32-21a31.51 31.51 0 0 1 10.62 1.9l7.76-7.76 4.25 4.24-45.26 45.24-4.24-4.24 5.45-5.48a43.31 43.31 0 0 1 -10.58-12.9zm24-.5a8 8 0 0 1 7.48-7.49l5.21-5.2a14 14 0 0 0 -18.69 13.19 14.06 14.06 0 0 0 .81 4.7z"/><path d="m32.5 40.08 7.5-7.48a8 8 0 0 1 -7.5 7.48z"/><path d="m27.3 45.29a14 14 0 0 0 17.89-17.9l8.23-8.23a43.35 43.35 0 0 1 10.58 12.94c-6.39 11.89-18.33 21-32 21a31.51 31.51 0 0 1 -10.62-1.9z"/></g><path d="m0 0h64v64h-64z" fill="none"/></svg>