<svg viewBox="0 0 64 64" xmlns="http://www.w3.org/2000/svg"><path d="m64 32.23v22.41a9.36 9.36 0 0 1 -9.36 9.36h-45.28a9.36 9.36 0 0 1 -9.36-9.36v-45.28a9.36 9.36 0 0 1 9.36-9.36h22.41zm0-13.23v-9.64a9.36 9.36 0 0 0 -9.36-9.36h-9.64zm-16.33 19.85h3.27l2.45-13.7h-3.27l-1.24 6.94-1.21-4h-3.26l-1.21 4-1.2-6.94h-3.3l2.45 13.7h3.26l1.59-5.36zm-19.11-3.27v-1.95h6.88v-3.26h-6.88v-1.95h6.88v-3.27h-10.14v13.7h10.12v-3.27zm-17.95-10.43v13.7h3.27v-8.22l4.89 8.22h3.23v-13.7h-3.23v8.22l-4.89-8.22z" fill="#bdbdbd"/></svg>